<?xml version="1.0" encoding="utf-8"?>
<!-- Generator: Adobe Illustrator 15.1.0, SVG Export Plug-In . SVG Version: 6.00 Build 0)  -->
<!DOCTYPE svg PUBLIC "-//W3C//DTD SVG 1.1//EN" "http://www.w3.org/Graphics/SVG/1.1/DTD/svg11.dtd">
<svg version="1.1" id="Layer_1" xmlns="http://www.w3.org/2000/svg" xmlns:xlink="http://www.w3.org/1999/xlink" x="0px" y="0px"
	 width="4.75px" height="6.958px" viewBox="0 0 4.75 6.958" enable-background="new 0 0 4.75 6.958" xml:space="preserve">
<image display="none" overflow="visible" width="614" height="955" xlink:href="8F2A0837.jpg"  transform="matrix(0.9999 0 0 0.9999 -696.8223 -392.8247)">
</image>
<path fill="#F9C6C2" d="M4.226,3.506c0,1.552-0.73,2.864-1.779,2.864c-1.051,0-1.72-1.274-1.782-2.825
	C0.593,1.767,1.396,0.902,2.446,0.902C3.495,0.902,4.226,1.954,4.226,3.506z"/>
<polygon fill="#CFA58F" points="0.677,3.112 0.882,3.403 1.124,3.125 "/>
<polygon fill="#CFA58F" points="3.717,3.112 3.922,3.403 4.164,3.125 "/>
<polyline fill="#3B281F" points="3.583,6.041 3.405,6.219 3.124,6.371 2.979,6.497 2.763,6.569 2.479,6.654 2.231,6.654 
	2.082,6.623 1.845,6.497 1.608,6.303 1.405,6.041 1.235,5.947 1.001,5.767 0.986,5.465 1.088,5.563 1.421,5.752 1.672,5.752 
	1.685,5.942 1.845,6.165 2.106,6.303 2.421,6.165 2.696,6.262 2.854,6.219 3.085,6.013 3.174,5.777 3.519,5.665 3.843,5.563 
	3.801,5.729 3.729,5.863 3.845,5.767 4.063,5.125 3.801,5.729 3.758,5.829 "/>
<polygon fill="#604132" points="1.531,5.37 1.745,5.161 1.903,5.074 2.247,5 2.479,4.943 2.763,5.027 3.031,5.074 3.185,5.191 
	3.298,5.348 3.345,5.191 3.289,5.027 3.185,4.943 2.972,4.778 2.816,4.778 2.671,4.746 2.461,4.746 2.24,4.697 2.095,4.723 
	1.921,4.759 1.747,4.858 1.589,4.918 1.501,5.074 "/>
<g>
	<g>
		<polygon fill="#774634" points="1.452,3.078 1.789,3.241 1.747,3.078 		"/>
		<polygon fill="#856856" points="1.078,3.438 1.144,3.352 1.11,3.327 		"/>
		<polygon fill="#FACDBE" points="2.138,1.171 1.576,1.171 1.472,1.5 		"/>
		<polygon fill="#FDDCD2" points="2.138,1.171 2.247,2.67 1.452,1.5 		"/>
		<polygon fill="#E5AD94" points="1.576,1.383 1.157,2.895 0.644,2.577 		"/>
		<polygon fill="#EBB39C" points="1.576,1.383 0.644,2.577 0.896,1.709 		"/>
		<polygon fill="#D19D88" points="1.11,1.233 1.576,1.171 0.896,1.647 		"/>
		<polygon fill="#FBCBC1" points="1.483,1.712 1.934,2.937 2.247,2.702 		"/>
		<polygon fill="#FDDCD2" points="2.138,1.383 1.535,1.624 1.451,1.673 2.247,2.702 		"/>
		<polygon fill="#FBC3B1" points="1.483,1.545 1.934,2.937 1.157,2.889 		"/>
		<polygon fill="#FCD2C6" points="2.138,1.383 2.425,1.552 2.425,2.685 2.247,2.702 		"/>
		<polygon fill="#EEB8AB" points="2.138,1.383 2.425,1.552 2.425,1.382 		"/>
		<polygon fill="#DCA894" points="2.425,2.651 2.247,2.67 2.425,2.777 		"/>
		<polygon fill="#CF9679" points="2.247,2.67 1.934,2.937 2.059,3.119 		"/>
		<polygon fill="#D39A87" points="2.247,2.67 2.425,2.777 2.059,3.119 		"/>
		<polygon fill="#D39D87" points="2.059,3.119 2.425,2.984 2.425,2.777 		"/>
		<polygon fill="#D7A087" points="2.059,3.119 2.425,3.218 2.425,2.984 		"/>
		<polygon fill="#CF967E" points="2.059,3.119 2.192,3.362 2.425,3.313 2.425,3.218 		"/>
		<polygon fill="#825A4D" points="1.675,2.911 1.934,2.937 2.059,3.119 		"/>
		<polygon fill="#57372F" points="1.675,2.911 1.747,3.078 2.059,3.119 		"/>
		<polygon fill="#281312" points="1.675,2.911 1.452,3.078 1.747,3.078 		"/>
		<polygon fill="#3D2A28" points="1.675,2.911 1.157,2.889 1.452,3.078 		"/>
		<polygon fill="#2C1919" points="1.157,2.889 1.101,3.155 1.452,3.078 		"/>
		<polygon fill="#6D4E47" points="1.157,2.889 1.101,3.155 0.794,3.243 		"/>
		<polygon fill="#5D4545" points="0.786,3.243 0.834,3.316 1.101,3.155 		"/>
		<polygon fill="#906348" points="1.452,3.078 1.774,3.23 1.501,3.23 		"/>
		<polygon fill="#8F6B5B" points="1.452,3.078 1.379,3.274 1.501,3.23 		"/>
		<polygon fill="#956A58" points="1.452,3.078 1.101,3.155 1.254,3.291 1.385,3.258 		"/>
		<polygon fill="#987564" points="1.101,3.155 1.11,3.327 1.292,3.281 		"/>
		<polygon fill="#A3806D" points="1.101,3.155 0.894,3.362 1.11,3.327 		"/>
		<polygon fill="#8E5C42" points="0.894,3.362 1.044,3.438 1.11,3.327 		"/>
		<polygon fill="#9E6C56" points="0.894,3.362 0.851,3.545 1.044,3.438 		"/>
		<polygon fill="#7A463D" points="1.747,3.078 2.059,3.119 1.782,3.23 		"/>
		<polygon fill="#78503F" points="2.059,3.119 2.192,3.362 1.997,3.454 		"/>
		<polygon fill="#693E2F" points="2.059,3.119 2.025,3.362 1.782,3.23 		"/>
		<polygon fill="#D3A38D" points="0.644,2.527 1.157,2.889 0.736,3.3 		"/>
		<polygon fill="#D1AC9B" points="0.644,2.527 0.715,3.129 0.62,3.181 		"/>
		<polygon fill="#D09B7B" points="0.62,3.181 0.62,3.362 0.873,3.336 0.715,3.129 		"/>
		<polygon fill="#D69C83" points="0.62,3.362 0.873,3.336 0.894,3.362 0.851,3.574 		"/>
		<polygon fill="#CFA58F" points="0.62,3.362 0.851,3.574 0.62,3.831 		"/>
		<polygon fill="#E6BCAB" points="0.851,3.574 1.276,3.704 0.62,3.831 		"/>
		<polygon fill="#DCAA93" points="0.851,3.574 1.078,3.522 1.276,3.704 		"/>
		<polygon fill="#C99885" points="1.078,3.522 1.326,3.597 1.528,3.574 1.276,3.704 		"/>
		<polygon fill="#BA856C" points="1.276,3.704 1.528,3.574 1.874,3.665 		"/>
		<polygon fill="#BD8670" points="1.528,3.574 1.747,3.555 1.874,3.665 		"/>
		<polygon fill="#A0715F" points="1.747,3.555 1.997,3.454 1.874,3.665 		"/>
		<polygon fill="#AB755F" points="1.997,3.454 2.192,3.362 2.106,3.545 		"/>
		<polygon fill="#C08F7B" points="1.874,3.665 1.997,3.454 2.106,3.545 		"/>
		<polygon fill="#DB9D8D" points="1.276,3.704 1.545,3.893 1.874,3.665 		"/>
		<polygon fill="#DDAD9E" points="1.545,3.893 1.874,3.665 2.009,3.831 		"/>
		<polygon fill="#D7A493" points="1.874,3.665 2.106,3.545 2.006,3.827 		"/>
		<polygon fill="#F1C5BA" points="1.545,3.893 2.004,3.832 1.899,4.122 		"/>
		<polygon fill="#F9D5D1" points="1.545,3.893 1.899,4.122 1.11,4.131 		"/>
		<polygon fill="#F9C6C2" points="1.276,3.704 1.545,3.893 0.735,4.366 		"/>
		<polygon fill="#E7B59E" points="0.62,3.831 0.735,4.366 1.276,3.704 		"/>
		<polygon fill="#FBCDC6" points="1.141,4.122 1.439,4.427 1.899,4.122 		"/>
		<polygon fill="#F5B6AA" points="1.141,4.122 1.439,4.427 0.735,4.366 		"/>
		<polygon fill="#EFBBAB" points="2.192,3.362 2.106,3.545 2.425,3.358 2.425,3.313 		"/>
		<polygon fill="#FBD0D1" points="2.425,3.358 2.425,3.93 2.227,4.012 		"/>
		<polygon fill="#FACDC7" points="2.425,3.358 2.227,4.012 2.175,3.505 		"/>
		<polygon fill="#EFB5A1" points="2.175,3.505 2.227,4.012 2.043,4.131 		"/>
		<polygon fill="#ECAD9D" points="2.106,3.545 2.175,3.505 2.043,4.131 1.845,4.274 		"/>
		<polygon fill="#DC9486" points="1.899,4.122 1.672,4.53 1.439,4.427 		"/>
		<polygon fill="#C47866" points="1.439,4.427 1.439,4.858 1.672,4.53 		"/>
		<polygon fill="#E4A292" points="0.735,4.366 1.439,4.427 1.439,4.858 		"/>
		<polygon fill="#D09584" points="0.735,4.366 1.439,4.858 0.892,5.027 		"/>
		<polygon fill="#AD7161" points="1.899,4.122 1.845,4.274 1.803,4.285 		"/>
		<polygon fill="#D79E95" points="2.227,4.012 1.942,4.274 1.803,4.285 		"/>
		<polygon fill="#B3766D" points="1.803,4.285 1.942,4.274 1.874,4.427 		"/>
		<polygon fill="#8E503E" points="1.803,4.285 1.874,4.427 1.439,4.858 		"/>
		<polygon fill="#995D4F" points="1.874,4.427 1.89,4.518 1.734,4.565 		"/>
		<polygon fill="#9E6552" points="1.734,4.565 1.631,4.858 1.593,4.697 		"/>
		<polygon fill="#B6816C" points="1.439,4.858 1.593,4.697 1.631,4.858 		"/>
		<polygon fill="#CA8D7E" points="1.734,4.565 1.89,4.506 1.974,4.723 		"/>
		<polygon fill="#C4897A" points="1.734,4.565 1.631,4.858 1.974,4.723 		"/>
		<polygon fill="#D19384" points="1.889,4.506 1.872,4.427 2.051,4.53 		"/>
		<path fill="#71382B" d="M1.89,4.506C1.905,4.509,2.052,4.53,2.052,4.53L2.24,4.697L1.974,4.565L1.89,4.506z"/>
		<polygon fill="#E4B5AB" points="2.059,4.167 1.942,4.274 1.874,4.427 2.052,4.53 2.175,4.397 		"/>
		<polygon fill="#C0897B" points="1.89,4.506 1.974,4.723 2.24,4.697 		"/>
		<polygon fill="#DCA094" points="2.052,4.53 2.175,4.397 2.421,4.521 2.24,4.697 		"/>
		<polygon fill="#F6C4BD" points="2.175,4.397 2.425,4.413 2.421,4.521 2.396,4.51 		"/>
		<polygon fill="#FAD1D1" points="2.425,4.246 2.425,4.413 2.175,4.397 		"/>
		<polygon fill="#F7DAD6" points="2.227,4.012 2.425,4.246 2.175,4.397 2.059,4.167 		"/>
		<polygon fill="#BB836D" points="0.892,5.027 1.439,4.858 1.438,5.14 		"/>
		<polygon fill="#B37766" points="1.439,4.858 1.432,5.14 1.631,4.858 		"/>
		<polygon fill="#C39375" points="1.432,5.14 1.535,5.443 1.326,5.665 		"/>
		<polygon fill="#C08268" points="1.129,5.074 1.326,5.665 1.432,5.14 		"/>
		<polygon fill="#B78066" points="0.892,5.027 1.136,5.074 1.326,5.665 		"/>
		<polygon fill="#8E6654" points="0.892,5.027 0.986,5.465 1.326,5.665 		"/>
		<polygon fill="#FBCFD2" points="2.227,4.012 2.425,3.93 2.425,4.246 		"/>
		<path fill="#C48376" d="M2.421,4.521c0,0.011,0.004,0.158,0.004,0.158L2.24,4.697L2.421,4.521z"/>
		<polygon fill="#C48376" points="2.24,4.697 2.425,4.738 2.425,4.679 		"/>
		<polygon fill="#73503D" points="2.425,4.738 2.426,5.061 2.24,4.697 		"/>
		<polygon fill="#6A4433" points="1.974,4.723 2.195,5.061 2.24,4.697 		"/>
		<polygon fill="#604132" points="2.24,4.697 2.195,5.061 2.426,5.061 		"/>
		<polygon fill="#5A382D" points="1.974,4.723 1.631,4.858 2.195,5.061 		"/>
		<polygon fill="#644339" points="1.631,4.858 1.745,5.161 2.195,5.061 		"/>
		<polygon fill="#734436" points="1.631,4.858 1.432,5.14 1.745,5.161 		"/>
		<polygon fill="#523624" points="1.432,5.14 1.745,5.161 1.535,5.443 		"/>
		<polygon fill="#754541" points="1.745,5.161 1.913,5.201 2.157,5.069 		"/>
		<polygon fill="#854E50" points="2.195,5.061 2.294,5.199 1.913,5.201 2.157,5.069 		"/>
		<polygon fill="#955F5C" points="2.195,5.061 2.294,5.199 2.426,5.061 		"/>
		<polygon fill="#955B5D" points="2.426,5.061 2.426,5.208 2.289,5.191 		"/>
		<polygon fill="#925259" points="2.181,5.199 2.231,5.226 2.426,5.208 2.289,5.191 		"/>
		<polygon fill="#904D52" points="1.745,5.161 1.913,5.268 2.181,5.199 1.913,5.201 1.769,5.166 		"/>
		<polyline fill="#986062" points="1.913,5.268 2.05,5.327 2.181,5.199 1.913,5.262 		"/>
		<polygon fill="#5C1921" points="2.181,5.199 2.158,5.212 2.215,5.257 2.425,5.257 2.426,5.208 2.231,5.226 		"/>
		<polygon fill="#D58C91" points="2.158,5.216 2.187,5.392 2.05,5.327 		"/>
		<polyline fill="#C4828B" points="2.158,5.216 2.187,5.392 2.215,5.257 2.158,5.212 		"/>
		<polygon fill="#D28B92" points="2.215,5.257 2.425,5.257 2.425,5.439 2.187,5.392 		"/>
		<polygon fill="#896046" points="1.745,5.161 1.621,5.477 1.535,5.443 		"/>
		<polygon fill="#B17C66" points="1.913,5.262 1.745,5.161 1.621,5.477 1.578,5.665 		"/>
		<polygon fill="#DBA992" points="1.578,5.665 1.722,5.682 1.913,5.262 		"/>
		<polygon fill="#C89983" points="1.722,5.682 2.187,5.392 1.913,5.262 		"/>
		<polygon fill="#9B6F59" points="1.578,5.665 1.621,5.477 1.535,5.443 1.396,5.592 1.462,5.682 		"/>
		<polygon fill="#47251A" points="1.462,5.682 1.396,5.592 1.326,5.665 		"/>
		<polygon fill="#523D33" points="0.986,5.465 1.088,5.829 1.263,6.041 1.326,5.665 		"/>
		<polygon fill="#724C43" points="1.326,5.665 1.462,5.682 1.578,5.665 1.263,6.041 		"/>
		<polygon fill="#423024" points="1.263,6.041 1.439,6.219 1.578,5.665 		"/>
		<polygon fill="#684E42" points="1.578,5.665 1.722,5.682 1.439,6.219 		"/>
		<polygon fill="#33251E" points="1.722,5.682 1.76,6.013 1.439,6.219 		"/>
		<polygon fill="#14100F" points="1.76,6.013 1.939,6.623 1.439,6.219 		"/>
		<polygon fill="#211012" points="1.76,6.013 2.082,6.219 1.939,6.623 		"/>
		<polygon fill="#2D1A16" points="2.082,6.219 2.425,6.441 2.028,6.371 		"/>
		<polygon fill="#0E0B0E" points="2.028,6.371 1.939,6.623 2.425,6.441 		"/>
		<polygon fill="#0F090A" points="2.425,6.441 2.425,6.53 1.939,6.623 		"/>
		<polygon fill="#201010" points="2.425,6.53 2.428,6.778 1.939,6.623 		"/>
		<polygon fill="#DAA88F" points="1.722,5.682 2.187,5.392 2.118,5.829 		"/>
		<polygon fill="#E0B9A6" points="1.722,5.682 1.76,6.013 2.082,6.219 2.118,5.829 		"/>
		<polygon fill="#4D3226" points="2.082,6.219 2.425,6.165 2.425,6.441 		"/>
		<polygon fill="#D9A897" points="2.082,6.219 2.425,6.165 2.425,5.841 		"/>
		<polygon fill="#EFB8AE" points="2.118,5.829 2.425,5.841 2.082,6.219 		"/>
		<polygon fill="#DAA094" points="2.166,5.518 2.305,5.518 2.425,5.429 2.187,5.392 		"/>
		<polygon fill="#9C7562" points="2.166,5.518 2.304,5.518 2.118,5.829 		"/>
		<polygon fill="#D29082" points="2.305,5.518 2.425,5.518 2.425,5.429 		"/>
		<polygon fill="#604139" points="2.304,5.518 2.425,5.841 2.425,5.518 		"/>
		<polygon fill="#6A4B40" points="2.118,5.829 2.304,5.518 2.425,5.841 		"/>
		<polygon fill="#13110D" points="2.425,1.171 2.425,0.965 2.142,1.225 		"/>
		<polygon fill="#3C2D2B" points="2.425,1.229 2.425,0.751 2.142,1.489 		"/>
		<polygon fill="#3B3036" points="2.425,0.751 2.227,0.332 2.039,0.93 		"/>
		<polygon fill="#241311" points="2.425,0.751 2.142,1.489 2.039,0.93 		"/>
		<polygon fill="#070707" points="2.227,0.332 1.963,0.624 1.635,0.552 2.142,1.489 2.043,0.93 		"/>
		<polygon fill="#3C312E" points="1.635,0.552 1.078,0.802 2.142,1.489 		"/>
		<polygon fill="#342A2B" points="1.042,0.78 1.57,1.531 2.142,1.489 		"/>
		<polygon fill="#191517" points="1.57,1.531 1.157,1.578 1.042,0.78 		"/>
		<polygon fill="#070A09" points="1.042,0.737 0.813,0.984 1.157,1.578 		"/>
		<polygon fill="#1A1313" points="0.813,0.984 0.644,1.175 1.157,1.578 		"/>
		<polygon fill="#060B0B" points="0.644,1.175 0.525,1.376 1.157,1.578 		"/>
		<polygon fill="#1D1916" points="0.525,1.376 1.157,1.578 0.491,1.719 		"/>
		<polygon fill="#443937" points="0.491,1.719 1.157,1.578 0.896,1.912 		"/>
		<polygon fill="#0A0B0A" points="0.491,1.719 0.896,1.912 0.339,2.294 		"/>
		<polygon fill="#42342C" points="0.889,1.936 0.629,2.811 0.339,2.294 0.896,1.912 		"/>
		<polygon fill="#1B1210" points="0.339,2.294 0.43,2.71 0.644,2.54 		"/>
		<polygon fill="#564036" points="0.433,2.708 0.622,3.119 0.644,2.54 		"/>
		<polygon fill="#212218" points="0.575,3.015 0.507,3.505 0.622,3.119 		"/>
		<polygon fill="#503A2E" points="0.507,3.505 0.62,3.831 0.622,3.119 		"/>
		<polygon fill="#5D4536" points="0.62,3.831 0.593,4.468 0.735,4.366 		"/>
		<polygon fill="#523D33" points="0.593,4.468 0.782,5.125 0.735,4.366 		"/>
		<polygon fill="#463522" points="0.735,4.366 0.892,5.027 0.782,5.125 		"/>
		<polygon fill="#533628" points="0.782,5.125 0.982,5.447 0.892,5.027 		"/>
		<polygon fill="#39291F" points="0.782,5.125 1.088,5.829 0.982,5.447 		"/>
		<polyline fill="#3B281F" points="1.116,5.863 1.001,5.767 0.782,5.125 1.044,5.729 1.088,5.829 		"/>
		<polygon fill="#221417" points="2.227,0.332 2.425,0.751 2.425,0.331 		"/>
		<polygon fill="#996A54" points="0.851,3.574 0.857,3.542 1.044,3.438 1.078,3.438 		"/>
		<polyline fill="#987564" points="1.078,3.438 1.11,3.327 1.044,3.438 		"/>
		<polyline fill="#8F6B5E" points="1.144,3.352 1.501,3.23 1.11,3.327 		"/>
		<polygon fill="#745449" points="1.3,3.298 1.782,3.23 1.501,3.23 		"/>
		<polygon fill="#714436" points="1.639,3.246 1.814,3.308 1.997,3.454 2.025,3.362 1.782,3.23 		"/>
		<polygon fill="#3A170E" points="0.851,3.574 1.078,3.522 1.078,3.438 		"/>
		<polygon fill="#1E0E0C" points="1.078,3.522 1.193,3.454 1.078,3.438 		"/>
		<polygon fill="#1E0E0C" points="1.078,3.438 1.144,3.352 1.641,3.243 1.406,3.319 1.193,3.454 		"/>
		<polygon fill="#453932" points="1.578,3.259 1.144,3.352 1.3,3.296 		"/>
		<polygon fill="#563030" points="1.272,3.403 1.365,3.458 1.187,3.458 		"/>
		<polygon fill="#B59D93" points="1.272,3.403 1.405,3.317 1.482,3.46 1.365,3.458 		"/>
		<polygon fill="#402B1B" points="1.405,3.317 1.482,3.46 1.628,3.454 1.49,3.291 		"/>
		<polygon fill="#100A09" points="1.49,3.291 1.556,3.264 1.633,3.356 1.547,3.359 		"/>
		<polygon fill="#100A09" points="1.556,3.264 1.639,3.241 1.814,3.308 1.69,3.305 1.625,3.352 1.554,3.291 		"/>
		<polygon fill="#2B130C" points="1.547,3.359 1.625,3.352 1.639,3.376 		"/>
		<polygon fill="#160E0B" points="1.547,3.359 1.635,3.462 1.801,3.438 1.801,3.369 1.779,3.358 1.69,3.287 1.635,3.344 
			1.625,3.352 1.637,3.374 		"/>
		<polygon fill="#190F0E" points="1.69,3.302 1.709,3.361 1.801,3.373 1.814,3.308 		"/>
		<polygon fill="#9B8478" points="1.814,3.308 1.801,3.369 1.793,3.431 1.997,3.454 		"/>
		<polygon fill="#87605C" points="1.077,3.522 1.193,3.454 1.365,3.458 1.326,3.597 		"/>
		<polygon fill="#986961" points="1.365,3.458 1.326,3.597 1.528,3.574 1.635,3.462 		"/>
		<polyline fill="#84534A" points="1.482,3.46 1.528,3.574 1.747,3.555 1.997,3.454 1.793,3.431 1.628,3.454 		"/>
		<polygon fill="#3C312E" points="2.425,0.331 2.227,0.332 2.439,0.303 		"/>
		<polygon fill="#191517" points="2.142,1.627 1.57,1.652 1.157,1.577 2.004,1.382 		"/>
		<polygon fill="#443937" points="0.911,1.911 1.365,1.615 1.157,1.571 		"/>
		<polygon opacity="0.75" fill="#D7C7B6" points="1.628,3.343 1.591,3.312 1.588,3.347 		"/>
		<polygon opacity="0.75" fill="#D7C7B6" points="1.633,3.339 1.662,3.319 1.675,3.325 1.671,3.346 1.646,3.356 		"/>
	</g>
	<polygon fill="#774634" points="3.393,3.078 3.056,3.241 3.099,3.078 	"/>
	<polygon fill="#856856" points="3.768,3.438 3.701,3.352 3.735,3.327 	"/>
	<polygon fill="#FACDBE" points="2.708,1.171 3.269,1.171 3.374,1.5 	"/>
	<polygon fill="#FDDCD2" points="2.708,1.171 2.598,2.67 3.514,1.571 	"/>
	<polygon fill="#E5AD94" points="3.269,1.396 3.688,2.895 4.201,2.58 	"/>
	<polygon fill="#EBB39C" points="3.269,1.396 4.201,2.58 3.949,1.812 	"/>
	<polygon fill="#D19D88" points="3.735,1.233 3.269,1.171 3.949,1.647 	"/>
	<polygon fill="#FBCBC1" points="3.361,1.723 2.912,2.937 2.598,2.704 	"/>
	<polygon fill="#FDDCD2" points="2.708,1.396 3.358,1.741 2.598,2.704 	"/>
	<polygon fill="#FBC3B1" points="3.361,1.723 2.912,2.937 3.688,2.895 	"/>
	<polygon fill="#FCD2C6" points="2.708,1.396 2.421,1.564 2.421,2.687 2.598,2.704 	"/>
	<polygon fill="#EEB8AB" points="2.708,1.171 2.421,1.363 2.421,1.171 	"/>
	<polygon fill="#DCA894" points="2.421,2.651 2.598,2.67 2.421,2.777 	"/>
	<polygon fill="#CF9679" points="2.598,2.67 2.912,2.937 2.786,3.119 	"/>
	<polygon fill="#D39A87" points="2.598,2.67 2.421,2.777 2.786,3.119 	"/>
	<polygon fill="#D39D87" points="2.786,3.119 2.421,2.984 2.421,2.777 	"/>
	<polygon fill="#D7A087" points="2.786,3.119 2.421,3.218 2.421,2.984 	"/>
	<polygon fill="#CF967E" points="2.786,3.119 2.652,3.362 2.421,3.313 2.421,3.218 	"/>
	<polygon fill="#825A4D" points="3.171,2.911 2.912,2.937 2.786,3.119 	"/>
	<polygon fill="#57372F" points="3.171,2.911 3.099,3.078 2.786,3.119 	"/>
	<polygon fill="#281312" points="3.171,2.911 3.393,3.078 3.099,3.078 	"/>
	<polygon fill="#3D2A28" points="3.171,2.911 3.688,2.889 3.393,3.078 	"/>
	<polygon fill="#2C1919" points="3.688,2.889 3.744,3.155 3.393,3.078 	"/>
	<polygon fill="#6D4E47" points="3.688,2.889 3.744,3.155 4.094,3.215 	"/>
	<polygon fill="#5D4545" points="4.094,3.208 4.071,3.291 3.744,3.155 	"/>
	<polygon fill="#906348" points="3.393,3.078 3.07,3.23 3.345,3.23 	"/>
	<polygon fill="#8F6B5B" points="3.393,3.078 3.467,3.274 3.345,3.23 	"/>
	<polygon fill="#956A58" points="3.393,3.078 3.744,3.155 3.592,3.291 3.46,3.258 	"/>
	<polygon fill="#987564" points="3.744,3.155 3.735,3.327 3.553,3.281 	"/>
	<polygon fill="#A3806D" points="3.744,3.155 3.951,3.362 3.735,3.327 	"/>
	<polygon fill="#8E5C42" points="3.951,3.362 3.802,3.438 3.735,3.327 	"/>
	<polygon fill="#9E6C56" points="3.951,3.362 3.994,3.545 3.802,3.438 	"/>
	<polygon fill="#7A463D" points="3.099,3.078 2.786,3.119 3.063,3.23 	"/>
	<polygon fill="#78503F" points="2.786,3.119 2.652,3.362 2.849,3.454 	"/>
	<polygon fill="#693E2F" points="2.786,3.119 2.819,3.362 3.063,3.23 	"/>
	<polygon fill="#D3A38D" points="4.201,2.527 3.688,2.889 4.145,3.272 	"/>
	<polygon fill="#D1AC9B" points="4.201,2.527 4.13,3.129 4.226,3.181 	"/>
	<polygon fill="#D09B7B" points="4.226,3.181 4.226,3.362 3.972,3.336 4.13,3.129 	"/>
	<polygon fill="#D69C83" points="4.226,3.362 3.972,3.336 3.951,3.362 3.994,3.574 	"/>
	<polygon fill="#342A2B" points="2.184,1.652 1.57,1.267 2.265,1.112 3.203,1.48 	"/>
	<polygon fill="#CFA58F" points="4.226,3.362 3.994,3.574 4.226,3.831 	"/>
	<polygon fill="#E6BCAB" points="3.994,3.574 3.568,3.704 4.226,3.831 	"/>
	<polygon fill="#DCAA93" points="3.994,3.574 3.768,3.522 3.568,3.704 	"/>
	<polygon fill="#C99885" points="3.768,3.522 3.519,3.597 3.316,3.574 3.568,3.704 	"/>
	<polygon fill="#BA856C" points="3.568,3.704 3.316,3.574 2.972,3.665 	"/>
	<polygon fill="#BD8670" points="3.316,3.574 3.099,3.555 2.972,3.665 	"/>
	<polygon fill="#A0715F" points="3.099,3.555 2.849,3.454 2.972,3.665 	"/>
	<polygon fill="#AB755F" points="2.849,3.454 2.652,3.362 2.738,3.545 	"/>
	<polygon fill="#C08F7B" points="2.972,3.665 2.849,3.454 2.738,3.545 	"/>
	<polygon fill="#DB9D8D" points="3.568,3.704 3.3,3.893 2.972,3.665 	"/>
	<polygon fill="#DDAD9E" points="3.3,3.893 2.972,3.665 2.836,3.831 	"/>
	<polygon fill="#D7A493" points="2.972,3.665 2.738,3.545 2.839,3.827 	"/>
	<polygon fill="#F1C5BA" points="3.3,3.893 2.842,3.832 2.945,4.122 	"/>
	<polygon fill="#F9D5D1" points="3.3,3.893 2.945,4.122 3.735,4.131 	"/>
	<polygon fill="#F9C6C2" points="3.568,3.704 3.3,3.893 4.109,4.366 	"/>
	<polygon fill="#E7B59E" points="4.226,3.831 4.109,4.366 3.568,3.704 	"/>
	<polygon fill="#FBCDC6" points="3.705,4.122 3.405,4.427 2.945,4.122 	"/>
	<polygon fill="#F5B6AA" points="3.705,4.122 3.405,4.427 4.109,4.366 	"/>
	<polygon fill="#EFBBAB" points="2.652,3.362 2.738,3.545 2.421,3.358 2.421,3.313 	"/>
	<polygon fill="#FBD0D1" points="2.421,3.358 2.421,3.93 2.618,4.012 	"/>
	<polygon fill="#FACDC7" points="2.421,3.358 2.618,4.012 2.671,3.505 	"/>
	<polygon fill="#EFB5A1" points="2.671,3.505 2.618,4.012 2.802,4.131 	"/>
	<polygon fill="#ECAD9D" points="2.738,3.545 2.671,3.505 2.802,4.131 3,4.274 	"/>
	<polygon fill="#DC9486" points="2.945,4.122 3.174,4.53 3.405,4.427 	"/>
	<polygon fill="#C47866" points="3.405,4.427 3.405,4.858 3.174,4.53 	"/>
	<polygon fill="#E4A292" points="4.109,4.366 3.405,4.427 3.405,4.858 	"/>
	<polygon fill="#D09584" points="4.109,4.366 3.405,4.858 3.954,5.027 	"/>
	<polygon fill="#AD7161" points="2.945,4.122 3,4.274 3.043,4.285 	"/>
	<polygon fill="#D79E95" points="2.618,4.012 2.902,4.274 3.043,4.285 	"/>
	<polygon fill="#B3766D" points="3.043,4.285 2.902,4.274 2.972,4.427 	"/>
	<polygon fill="#8E503E" points="3.043,4.285 2.972,4.427 3.405,4.858 	"/>
	<polygon fill="#995D4F" points="2.972,4.427 2.955,4.518 3.11,4.565 	"/>
	<polygon fill="#9E6552" points="3.11,4.565 3.214,4.858 3.252,4.697 	"/>
	<polygon fill="#B6816C" points="3.405,4.858 3.252,4.697 3.214,4.858 	"/>
	<polygon fill="#CA8D7E" points="3.11,4.565 2.955,4.506 2.872,4.723 	"/>
	<polygon fill="#C4897A" points="3.11,4.565 3.214,4.858 2.872,4.723 	"/>
	<polygon fill="#D19384" points="2.957,4.506 2.973,4.427 2.795,4.53 	"/>
	<path fill="#71382B" d="M2.955,4.506C2.94,4.509,2.793,4.53,2.793,4.53L2.605,4.697l0.267-0.132L2.955,4.506z"/>
	<polygon fill="#E4B5AB" points="2.787,4.167 2.902,4.274 2.972,4.427 2.793,4.53 2.671,4.397 	"/>
	<polygon fill="#C0897B" points="2.955,4.506 2.872,4.723 2.605,4.697 	"/>
	<polygon fill="#DCA094" points="2.793,4.53 2.671,4.397 2.417,4.521 2.605,4.697 	"/>
	<polygon fill="#F6C4BD" points="2.671,4.397 2.421,4.413 2.421,4.521 2.449,4.51 	"/>
	<polygon fill="#FAD1D1" points="2.421,4.246 2.421,4.413 2.671,4.397 	"/>
	<polygon fill="#F7DAD6" points="2.618,4.012 2.421,4.246 2.671,4.397 2.787,4.167 	"/>
	<polygon fill="#BB836D" points="3.954,5.027 3.405,4.858 3.386,5.14 	"/>
	<polygon fill="#B37766" points="3.405,4.858 3.386,5.14 3.214,4.858 	"/>
	<polygon fill="#C39375" points="3.386,5.14 3.31,5.443 3.519,5.665 	"/>
	<polygon fill="#C08268" points="3.716,5.074 3.519,5.665 3.378,5.14 	"/>
	<polygon fill="#B78066" points="3.954,5.027 3.716,5.074 3.519,5.665 	"/>
	<polygon fill="#8E6654" points="3.954,5.027 3.858,5.465 3.519,5.665 	"/>
	<polygon fill="#FBCFD2" points="2.618,4.012 2.421,3.93 2.421,4.246 	"/>
	<path fill="#C48376" d="M2.421,4.521c0,0.046,0-0.007,0,0.158l0.185,0.018L2.421,4.521z"/>
	<polygon fill="#C48376" points="2.605,4.697 2.421,4.759 2.421,4.679 	"/>
	<polygon fill="#73503D" points="2.421,4.738 2.42,5.061 2.605,4.697 	"/>
	<polygon fill="#6A4433" points="2.872,4.723 2.65,5.061 2.605,4.697 	"/>
	<polygon fill="#604132" points="2.605,4.697 2.65,5.061 2.42,5.061 	"/>
	<polygon fill="#5A382D" points="2.872,4.723 3.214,4.858 2.65,5.061 	"/>
	<polygon fill="#644339" points="3.214,4.858 3.1,5.161 2.65,5.061 	"/>
	<polygon fill="#734436" points="3.214,4.858 3.386,5.14 3.1,5.161 	"/>
	<polygon fill="#523624" points="3.386,5.14 3.1,5.161 3.31,5.443 	"/>
	<polygon fill="#754541" points="3.1,5.161 2.933,5.201 2.688,5.069 	"/>
	<polygon fill="#854E50" points="2.65,5.061 2.551,5.199 2.933,5.201 2.688,5.069 	"/>
	<polygon fill="#955F5C" points="2.65,5.061 2.551,5.199 2.42,5.061 	"/>
	<polygon fill="#955B5D" points="2.42,5.061 2.42,5.208 2.557,5.191 	"/>
	<polygon fill="#925259" points="2.665,5.199 2.614,5.226 2.42,5.208 2.557,5.191 	"/>
	<polygon fill="#904D52" points="3.1,5.161 2.933,5.268 2.665,5.199 2.933,5.201 3.077,5.166 	"/>
	<polyline fill="#986062" points="2.933,5.268 2.796,5.327 2.665,5.199 2.933,5.262 	"/>
	<polygon fill="#5C1921" points="2.665,5.199 2.687,5.212 2.63,5.257 2.421,5.257 2.42,5.208 2.614,5.226 	"/>
	<polygon fill="#D58C91" points="2.687,5.216 2.658,5.392 2.796,5.327 	"/>
	<polyline fill="#C4828B" points="2.687,5.216 2.658,5.392 2.63,5.257 2.687,5.212 	"/>
	<polygon fill="#D28B92" points="2.63,5.257 2.421,5.257 2.421,5.439 2.658,5.392 	"/>
	<polygon fill="#896046" points="3.1,5.161 3.224,5.477 3.31,5.443 	"/>
	<polygon fill="#B17C66" points="2.933,5.262 3.1,5.161 3.224,5.477 3.268,5.665 	"/>
	<polygon fill="#DBA992" points="3.268,5.665 3.124,5.682 2.933,5.262 	"/>
	<polygon fill="#C89983" points="3.124,5.682 2.658,5.392 2.933,5.262 	"/>
	<polygon fill="#9B6F59" points="3.268,5.665 3.224,5.477 3.31,5.443 3.449,5.592 3.383,5.682 	"/>
	<polygon fill="#47251A" points="3.383,5.682 3.449,5.592 3.519,5.665 	"/>
	<polygon fill="#523D33" points="3.858,5.465 3.758,5.829 3.583,6.041 3.519,5.665 	"/>
	<polygon fill="#724C43" points="3.519,5.665 3.383,5.682 3.268,5.665 3.583,6.041 	"/>
	<polygon fill="#423024" points="3.583,6.041 3.405,6.219 3.268,5.665 	"/>
	<polygon fill="#684E42" points="3.268,5.665 3.124,5.682 3.405,6.219 	"/>
	<polygon fill="#33251E" points="3.124,5.674 3.085,6.013 3.405,6.219 	"/>
	<polygon fill="#14100F" points="3.085,6.013 2.905,6.623 3.405,6.219 	"/>
	<polygon fill="#211012" points="3.085,6.013 2.763,6.219 2.905,6.623 	"/>
	<polygon fill="#2D1A16" points="2.763,6.219 2.421,6.441 2.816,6.371 	"/>
	<polygon fill="#0E0B0E" points="2.816,6.371 2.905,6.623 2.421,6.441 	"/>
	<polygon fill="#0F090A" points="2.421,6.441 2.421,6.53 2.905,6.623 	"/>
	<polygon fill="#201010" points="2.421,6.53 2.424,6.778 2.905,6.623 	"/>
	<polygon fill="#DAA88F" points="3.124,5.682 2.658,5.392 2.727,5.829 	"/>
	<polygon fill="#E0B9A6" points="3.124,5.682 3.085,6.013 2.763,6.219 2.727,5.829 	"/>
	<polygon fill="#4D3226" points="2.763,6.219 2.421,6.165 2.421,6.441 	"/>
	<polygon fill="#D9A897" points="2.763,6.219 2.421,6.165 2.421,5.841 	"/>
	<polygon fill="#EFB8AE" points="2.727,5.829 2.421,5.841 2.763,6.219 	"/>
	<polygon fill="#DAA094" points="2.679,5.518 2.54,5.518 2.421,5.429 2.658,5.392 	"/>
	<polygon fill="#9C7562" points="2.679,5.518 2.541,5.518 2.727,5.829 	"/>
	<polygon fill="#D29082" points="2.54,5.518 2.42,5.518 2.421,5.429 	"/>
	<polygon fill="#604139" points="2.541,5.518 2.421,5.841 2.421,5.518 	"/>
	<polygon fill="#6A4B40" points="2.727,5.829 2.541,5.518 2.421,5.841 	"/>
	<polygon fill="#13110D" points="2.421,1.171 2.421,0.965 2.704,1.225 	"/>
	<polygon fill="#3C2D2B" points="2.413,1.201 2.413,0.722 2.696,1.46 	"/>
	<polygon fill="#3B3036" points="2.413,0.722 2.611,0.303 2.799,0.902 	"/>
	<polygon fill="#241311" points="2.413,0.722 2.696,1.46 2.799,0.902 	"/>
	<polygon fill="#070707" points="2.611,0.303 2.925,0.32 3.386,0.42 2.696,1.46 2.795,0.902 	"/>
	<polygon fill="#3C312E" points="3.203,0.452 3.796,0.752 2.696,1.46 	"/>
	<polygon fill="#342A2B" points="3.796,0.752 3.268,1.502 2.696,1.46 	"/>
	<polygon fill="#191517" points="3.268,1.502 3.681,1.549 3.796,0.752 	"/>
	<polygon fill="#070A09" points="3.768,0.68 4.117,0.956 3.681,1.549 	"/>
	<polygon fill="#1A1313" points="4.115,0.958 4.273,1.163 3.681,1.549 	"/>
	<polygon fill="#060B0B" points="4.273,1.163 4.243,1.31 3.681,1.549 	"/>
	<polygon fill="#1D1916" points="4.329,1.267 3.681,1.549 4.347,1.502 	"/>
	<polygon fill="#443937" points="4.347,1.502 3.681,1.549 3.942,1.883 	"/>
	<polygon fill="#0A0B0A" points="4.347,1.502 3.942,1.883 4.45,2.582 	"/>
	<polygon fill="#42342C" points="3.949,1.908 4.209,2.775 4.45,2.582 3.942,1.883 	"/>
	<line fill="#1B1210" x1="4.201" y1="2.775" x2="4.45" y2="2.582"/>
	<polygon fill="#564036" points="4.45,2.582 4.223,3.119 4.201,2.54 	"/>
	<polygon fill="#212218" points="4.27,2.979 4.338,3.389 4.223,3.119 	"/>
	<polygon fill="#503A2E" points="4.338,3.389 4.226,3.831 4.223,3.119 	"/>
	<polygon fill="#5D4536" points="4.226,3.831 4.252,4.468 4.109,4.366 	"/>
	<polygon fill="#523D33" points="4.252,4.468 4.063,5.125 4.109,4.366 	"/>
	<polygon fill="#463522" points="4.109,4.366 3.954,5.027 4.063,5.125 	"/>
	<polygon fill="#533628" points="4.063,5.125 3.862,5.447 3.954,5.027 	"/>
	<polygon fill="#39291F" points="4.063,5.125 3.758,5.829 3.862,5.447 	"/>
	<polygon fill="#221417" points="2.611,0.303 2.413,0.722 2.413,0.302 	"/>
	<polygon fill="#996A54" points="3.994,3.574 3.988,3.542 3.802,3.438 3.768,3.438 	"/>
	<polyline fill="#987564" points="3.768,3.438 3.735,3.327 3.802,3.438 	"/>
	<polyline fill="#8F6B5E" points="3.701,3.352 3.345,3.23 3.735,3.327 	"/>
	<polygon fill="#745449" points="3.546,3.298 3.063,3.23 3.345,3.23 	"/>
	<polygon fill="#714436" points="3.206,3.246 3.031,3.308 2.849,3.454 2.819,3.362 3.063,3.23 	"/>
	<polygon fill="#3A170E" points="3.994,3.574 3.768,3.522 3.768,3.438 	"/>
	<polygon fill="#1E0E0C" points="3.768,3.522 3.651,3.454 3.768,3.438 	"/>
	<polygon fill="#1E0E0C" points="3.768,3.438 3.701,3.352 3.205,3.243 3.438,3.319 3.651,3.454 	"/>
	<polygon fill="#453932" points="3.268,3.259 3.701,3.352 3.546,3.296 	"/>
	<polygon fill="#563030" points="3.572,3.403 3.479,3.458 3.659,3.458 	"/>
	<polygon fill="#B59D93" points="3.572,3.403 3.439,3.317 3.362,3.46 3.479,3.458 	"/>
	<polygon fill="#402B1B" points="3.439,3.317 3.362,3.46 3.218,3.454 3.355,3.291 	"/>
	<polygon fill="#100A09" points="3.355,3.291 3.289,3.264 3.298,3.359 	"/>
	<polygon fill="#100A09" points="3.289,3.264 3.206,3.241 3.031,3.308 3.154,3.305 3.221,3.352 3.292,3.291 	"/>
	<polygon fill="#2B130C" points="3.298,3.359 3.292,3.291 3.221,3.352 3.206,3.376 	"/>
	<polygon fill="#160E0B" points="3.298,3.359 3.211,3.462 3.045,3.438 3.045,3.369 3.137,3.358 3.188,3.341 3.211,3.344 
		3.221,3.352 3.209,3.374 	"/>
	<polygon fill="#190F0E" points="3.154,3.302 3.223,3.354 3.045,3.373 3.031,3.308 	"/>
	<polygon fill="#9B8478" points="3.031,3.308 3.045,3.369 3.052,3.431 2.849,3.454 	"/>
	<polygon fill="#87605C" points="3.769,3.522 3.651,3.454 3.479,3.458 3.519,3.597 	"/>
	<polygon fill="#986961" points="3.479,3.458 3.519,3.597 3.316,3.574 3.211,3.462 	"/>
	<polyline fill="#84534A" points="3.362,3.46 3.316,3.574 3.099,3.555 2.849,3.454 3.052,3.431 3.218,3.454 	"/>
	<polygon fill="#3C312E" points="3.203,0.452 3.796,0.873 3.386,0.42 	"/>
	<polygon fill="#3C312E" points="2.413,0.302 2.611,0.303 2.925,0.32 	"/>
	<polygon fill="#191517" points="3.268,1.502 3.48,1.641 3.774,1.883 3.681,1.549 	"/>
	<polygon fill="#443937" points="3.978,1.912 3.774,1.883 3.681,1.548 	"/>
	<polygon opacity="0.75" fill="#D7C7B6" points="3.218,3.346 3.266,3.305 3.27,3.35 	"/>
	<polygon opacity="0.75" fill="#D7C7B6" points="3.212,3.34 3.175,3.315 3.158,3.323 3.163,3.35 3.196,3.362 	"/>
</g>
<polygon fill="#3C312E" points="3.268,1.502 4.088,2.375 4.04,1.958 3.521,1.662 "/>
</svg>
