<?xml version="1.0" encoding="utf-8"?>
<!-- Generator: Adobe Illustrator 20.1.0, SVG Export Plug-In . SVG Version: 6.00 Build 0)  -->
<svg version="1.1" id="Layer_1" xmlns="http://www.w3.org/2000/svg" xmlns:xlink="http://www.w3.org/1999/xlink" x="0px" y="0px"
	 viewBox="0 0 20 20" style="enable-background:new 0 0 20 20;" xml:space="preserve">
<style type="text/css">
	.st0{fill:#E7425B;}
	.st1{fill:#E4415B;}
	.st2{fill:#952A5C;}
	.st3{fill:#6C1E5B;}
	.st4{fill:#AE315C;}
	.st5{fill:#85255C;}
	.st6{fill:#7F225B;}
	.st7{fill:#A92F5C;}
	.st8{fill:#992B5C;}
	.st9{fill:#BD355C;}
</style>
<polygon class="st0" points="0,20 4.6,20 5,17.6 2.3,15.3 0,16.7 "/>
<polygon class="st1" points="3,20 9,20 3.2,16.6 "/>
<polyline class="st2" points="4.8,17.3 0,12.1 0,13.4 5,17.6 "/>
<polygon class="st3" points="3.4,3.7 3.2,0 0,0 0,2.3 "/>
<polygon class="st4" points="0,17.8 0,13.4 2.3,15.3 "/>
<polygon class="st5" points="20,6.3 18.2,6.2 17.3,0 20,0 "/>
<polygon class="st6" points="18.2,6.1 3.2,3.7 3.2,0 17.7,0 "/>
<polygon class="st7" points="18.2,6.1 5,17.6 3.3,2.2 "/>
<path class="st8" d="M3.7,3.8L0,2.3v9.8l5,5.5L3.7,3.8z"/>
<polygon class="st9" points="9,20 20,20 20,6.3 18.2,6.1 4.9,17.7 "/>
</svg>
