<?xml version="1.0" encoding="utf-8"?>
<!-- Generator: Adobe Illustrator 16.0.0, SVG Export Plug-In . SVG Version: 6.00 Build 0)  -->
<!DOCTYPE svg PUBLIC "-//W3C//DTD SVG 1.1//EN" "http://www.w3.org/Graphics/SVG/1.1/DTD/svg11.dtd">
<svg version="1.1" id="Layer_1" xmlns="http://www.w3.org/2000/svg" xmlns:xlink="http://www.w3.org/1999/xlink" x="0px" y="0px"
	 width="300px" height="300px" viewBox="0 0 300 300" enable-background="new 0 0 300 300" xml:space="preserve">
<circle fill="#FFFFFF" cx="194.082" cy="8.876" r="7.125"/>
<g>
	
		<image overflow="visible" opacity="0.06" enable-background="new    " width="92" height="92" xlink:href="1272D320.png"  transform="matrix(0.2243 0 0 0.2243 23.6343 1.5815)">
	</image>
	<g>
		<polygon fill="#FFFFFF" points="34.086,19.17 28.882,17.145 26.634,12.034 28.659,6.83 33.77,4.582 38.974,6.606 41.222,11.718 
			39.197,16.922 		"/>
	</g>
</g>
<g>
	<g>
		
			<image overflow="visible" opacity="0.06" enable-background="new    " width="92" height="88" xlink:href="1272D321.png"  transform="matrix(0.2243 0 0 0.2345 2.7485 1.249)">
		</image>
		<g>
			<circle fill="#FFFFFF" cx="13" cy="11.5" r="7.25"/>
		</g>
	</g>
</g>
<g>
	<line fill="none" stroke="#E3E4E6" stroke-width="0.03" stroke-miterlimit="10" x1="7.909" y1="16.591" x2="18.091" y2="6.409"/>
	<line fill="none" stroke="#E3E4E6" stroke-width="0.03" stroke-miterlimit="10" x1="13" y1="18.701" x2="13" y2="4.3"/>
	<line fill="none" stroke="#E3E4E6" stroke-width="0.03" stroke-miterlimit="10" x1="20.2" y1="11.5" x2="5.8" y2="11.5"/>
	<line fill="none" stroke="#E3E4E6" stroke-width="0.03" stroke-miterlimit="10" x1="18.091" y1="16.591" x2="7.909" y2="6.409"/>
</g>
<circle fill="#F7911E" cx="13" cy="11.5" r="2.664"/>
<g>
	<g>
		<path fill="#A9A9AA" d="M33.725,72.707c-0.558,0-1.011,0.454-1.011,1.012c0,0.558,0.454,1.011,1.011,1.011
			s1.011-0.454,1.011-1.011C34.736,73.16,34.282,72.707,33.725,72.707z M33.725,74.224c-0.279,0-0.506-0.227-0.506-0.505
			c0-0.279,0.227-0.506,0.506-0.506c0.279,0,0.506,0.227,0.506,0.506C34.23,73.997,34.003,74.224,33.725,74.224z"/>
		<path fill="#A9A9AA" d="M32.713,61.581h1.011c0.14,0,0.253-0.113,0.253-0.252c0-0.14-0.113-0.253-0.253-0.253h-1.011
			c-0.14,0-0.253,0.113-0.253,0.253C32.46,61.468,32.574,61.581,32.713,61.581z"/>
		<path fill="#A9A9AA" d="M34.483,61.581h0.252c0.14,0,0.253-0.113,0.253-0.252c0-0.14-0.113-0.253-0.253-0.253h-0.252
			c-0.14,0-0.253,0.113-0.253,0.253C34.23,61.468,34.344,61.581,34.483,61.581z"/>
		<path fill="#A9A9AA" d="M37.858,74.973c0-0.001,0-0.001,0.001-0.002c0.031-0.048,0.058-0.099,0.082-0.151
			c0.006-0.013,0.012-0.026,0.017-0.039c0.005-0.012,0.011-0.022,0.015-0.035c0.003-0.01,0.002-0.019,0.004-0.029
			c0.038-0.111,0.063-0.229,0.063-0.354l-0.001-0.391v-0.231l-0.001-0.692l-0.001-0.231l-0.001-0.692v-0.23l-0.002-0.692v-0.231
			l-0.001-0.692l-0.001-0.231l-0.001-0.692v-0.23l-0.002-0.692v-0.23l-0.017-6.785c-0.001-0.614-0.502-1.112-1.117-1.111
			l-6.37,0.016c-0.614,0.001-1.112,0.502-1.111,1.117l0.032,12.943c0.001,0.614,0.502,1.113,1.117,1.111l6.369-0.016h0.126
			c0.039,0,0.074-0.01,0.106-0.025c0.148-0.032,0.284-0.094,0.404-0.179C37.589,75.391,37.858,74.973,37.858,74.973z M29.932,62.339
			h7.586v4.804v0.379v0.692v0.231v0.692v0.231v0.692v0.23v0.692v0.231v0.692v0.042h-7.586V62.339L29.932,62.339z M30.54,60.822
			h6.369c0.335,0,0.608,0.272,0.608,0.608v0.403h-7.586V61.43C29.932,61.095,30.205,60.822,30.54,60.822z M36.909,74.982H30.54
			c-0.335,0-0.608-0.273-0.608-0.608v-1.92h7.586v0.376v0.231v0.692v0.23v0.391c0,0.078-0.016,0.152-0.043,0.221
			c-0.017,0.044-0.039,0.085-0.065,0.125C37.299,74.878,37.117,74.982,36.909,74.982z"/>
	</g>
	<text transform="matrix(1 0 0 1 29.2817 79.166)" fill="#A9A9AA" font-family="'MyriadPro-Regular'" font-size="3">iPhone</text>
</g>
<g>
	<g>
		<path fill="#A9A9AA" d="M52.781,72.707c-0.558,0-1.011,0.454-1.011,1.012c0,0.558,0.454,1.011,1.011,1.011
			c0.557,0,1.011-0.454,1.011-1.011C53.792,73.16,53.339,72.707,52.781,72.707z M52.781,74.224c-0.279,0-0.506-0.227-0.506-0.505
			c0-0.279,0.227-0.506,0.506-0.506c0.279,0,0.506,0.227,0.506,0.506C53.287,73.997,53.06,74.224,52.781,74.224z"/>
		<path fill="#A9A9AA" d="M51.77,61.581h1.011c0.14,0,0.253-0.113,0.253-0.252c0-0.14-0.113-0.253-0.253-0.253H51.77
			c-0.14,0-0.253,0.113-0.253,0.253C51.517,61.468,51.63,61.581,51.77,61.581z"/>
		<path fill="#A9A9AA" d="M53.54,61.581h0.252c0.14,0,0.253-0.113,0.253-0.252c0-0.14-0.113-0.253-0.253-0.253H53.54
			c-0.14,0-0.253,0.113-0.253,0.253C53.287,61.468,53.4,61.581,53.54,61.581z"/>
		<path fill="#A9A9AA" d="M56.915,74.973c0-0.001,0-0.001,0.001-0.002c0.031-0.048,0.058-0.099,0.082-0.151
			c0.006-0.013,0.012-0.026,0.017-0.039c0.005-0.012,0.011-0.022,0.015-0.035c0.003-0.01,0.002-0.019,0.004-0.029
			c0.038-0.111,0.063-0.229,0.063-0.354l-0.001-0.391v-0.231l-0.001-0.692l-0.001-0.231l-0.001-0.692v-0.23l-0.002-0.692v-0.231
			l-0.001-0.692l-0.001-0.231l-0.001-0.692v-0.23l-0.002-0.692v-0.23l-0.017-6.785c-0.001-0.614-0.502-1.112-1.117-1.111
			l-6.37,0.016c-0.614,0.001-1.112,0.502-1.111,1.117l0.032,12.943c0.001,0.614,0.502,1.113,1.117,1.111l6.369-0.016h0.126
			c0.039,0,0.074-0.01,0.106-0.025c0.148-0.032,0.284-0.094,0.404-0.179C56.646,75.391,56.915,74.973,56.915,74.973z M48.988,62.339
			h7.586v4.804v0.379v0.692v0.231v0.692v0.231v0.692v0.23v0.692v0.231v0.692v0.042h-7.586V62.339z M49.597,60.822h6.369
			c0.335,0,0.608,0.272,0.608,0.608v0.403h-7.586V61.43C48.988,61.095,49.261,60.822,49.597,60.822z M55.966,74.982h-6.369
			c-0.335,0-0.608-0.273-0.608-0.608v-1.92h7.586v0.376v0.231v0.692v0.23v0.391c0,0.078-0.016,0.152-0.043,0.221
			c-0.017,0.044-0.039,0.085-0.065,0.125C56.356,74.878,56.173,74.982,55.966,74.982z"/>
	</g>
	<text transform="matrix(1 0 0 1 48.3384 79.166)" fill="#A9A9AA" font-family="'MyriadPro-Regular'" font-size="3">Android</text>
</g>
<g>
	<g>
		<path fill="#A9A9AA" d="M73.225,72.707c-0.558,0-1.011,0.454-1.011,1.012c0,0.558,0.454,1.011,1.011,1.011
			s1.011-0.454,1.011-1.011C74.236,73.16,73.783,72.707,73.225,72.707z M73.225,74.224c-0.279,0-0.506-0.227-0.506-0.505
			c0-0.279,0.227-0.506,0.506-0.506c0.279,0,0.506,0.227,0.506,0.506C73.731,73.997,73.504,74.224,73.225,74.224z"/>
		<path fill="#A9A9AA" d="M72.214,61.581h1.011c0.14,0,0.253-0.113,0.253-0.252c0-0.14-0.113-0.253-0.253-0.253h-1.011
			c-0.14,0-0.253,0.113-0.253,0.253C71.961,61.468,72.074,61.581,72.214,61.581z"/>
		<path fill="#A9A9AA" d="M73.984,61.581h0.252c0.14,0,0.253-0.113,0.253-0.252c0-0.14-0.113-0.253-0.253-0.253h-0.252
			c-0.14,0-0.253,0.113-0.253,0.253C73.731,61.468,73.844,61.581,73.984,61.581z"/>
		<path fill="#A9A9AA" d="M77.358,74.973c0-0.001,0-0.001,0.001-0.002c0.031-0.048,0.058-0.099,0.082-0.151
			c0.006-0.013,0.012-0.026,0.017-0.039c0.005-0.012,0.011-0.022,0.015-0.035c0.003-0.01,0.002-0.019,0.004-0.029
			c0.038-0.111,0.063-0.229,0.063-0.354l-0.001-0.391v-0.231l-0.001-0.692l-0.001-0.231l-0.001-0.692v-0.23l-0.002-0.692v-0.231
			l-0.001-0.692l-0.001-0.231l-0.001-0.692v-0.23l-0.002-0.692v-0.23l-0.017-6.785c-0.001-0.614-0.502-1.112-1.117-1.111
			l-6.37,0.016c-0.614,0.001-1.112,0.502-1.111,1.117l0.032,12.943c0.001,0.614,0.502,1.113,1.117,1.111l6.369-0.016h0.126
			c0.039,0,0.074-0.01,0.106-0.025c0.148-0.032,0.284-0.094,0.404-0.179C77.089,75.391,77.358,74.973,77.358,74.973z M69.432,62.339
			h7.586v4.804v0.379v0.692v0.231v0.692v0.231v0.692v0.23v0.692v0.231v0.692v0.042h-7.586V62.339z M70.041,60.822h6.369
			c0.335,0,0.608,0.272,0.608,0.608v0.403h-7.586V61.43C69.432,61.095,69.705,60.822,70.041,60.822z M76.41,74.982h-6.369
			c-0.335,0-0.608-0.273-0.608-0.608v-1.92h7.586v0.376v0.231v0.692v0.23v0.391c0,0.078-0.016,0.152-0.043,0.221
			c-0.017,0.044-0.039,0.085-0.065,0.125C76.8,74.878,76.617,74.982,76.41,74.982z"/>
	</g>
	<text transform="matrix(1 0 0 1 68.7817 79.166)" fill="#A9A9AA" font-family="'MyriadPro-Regular'" font-size="3">HTML5</text>
</g>
<g>
	<g>
		<path fill="#A9A9AA" d="M93.014,72.707c-0.558,0-1.011,0.454-1.011,1.012c0,0.558,0.454,1.011,1.011,1.011
			c0.557,0,1.011-0.454,1.011-1.011C94.025,73.16,93.571,72.707,93.014,72.707z M93.014,74.224c-0.279,0-0.506-0.227-0.506-0.505
			c0-0.279,0.227-0.506,0.506-0.506c0.279,0,0.506,0.227,0.506,0.506C93.52,73.997,93.292,74.224,93.014,74.224z"/>
		<path fill="#A9A9AA" d="M92.002,61.581h1.011c0.14,0,0.253-0.113,0.253-0.252c0-0.14-0.113-0.253-0.253-0.253h-1.011
			c-0.14,0-0.253,0.113-0.253,0.253C91.75,61.468,91.863,61.581,92.002,61.581z"/>
		<path fill="#A9A9AA" d="M93.772,61.581h0.252c0.14,0,0.253-0.113,0.253-0.252c0-0.14-0.113-0.253-0.253-0.253h-0.252
			c-0.14,0-0.253,0.113-0.253,0.253C93.52,61.468,93.633,61.581,93.772,61.581z"/>
		<path fill="#A9A9AA" d="M97.147,74.973c0-0.001,0-0.001,0.001-0.002c0.031-0.048,0.058-0.099,0.082-0.151
			c0.006-0.013,0.012-0.026,0.017-0.039c0.005-0.012,0.011-0.022,0.015-0.035c0.003-0.01,0.002-0.019,0.004-0.029
			c0.038-0.111,0.063-0.229,0.063-0.354l-0.001-0.391v-0.231l-0.001-0.692l-0.001-0.231l-0.001-0.692v-0.23l-0.002-0.692v-0.231
			l-0.001-0.692l-0.001-0.231l-0.001-0.692v-0.23l-0.002-0.692v-0.23l-0.017-6.785c-0.001-0.614-0.502-1.112-1.117-1.111
			l-6.37,0.016c-0.614,0.001-1.112,0.502-1.111,1.117l0.032,12.943c0.001,0.614,0.502,1.113,1.117,1.111l6.369-0.016h0.126
			c0.039,0,0.074-0.01,0.106-0.025c0.148-0.032,0.284-0.094,0.404-0.179C96.878,75.391,97.147,74.973,97.147,74.973z M89.221,62.339
			h7.586v4.804v0.379v0.692v0.231v0.692v0.231v0.692v0.23v0.692v0.231v0.692v0.042h-7.586V62.339z M89.829,60.822h6.369
			c0.335,0,0.608,0.272,0.608,0.608v0.403H89.22V61.43C89.221,61.095,89.494,60.822,89.829,60.822z M96.198,74.982h-6.369
			c-0.335,0-0.608-0.273-0.608-0.608v-1.92h7.586v0.376v0.231v0.692v0.23v0.391c0,0.078-0.016,0.152-0.043,0.221
			c-0.017,0.044-0.039,0.085-0.065,0.125C96.588,74.878,96.406,74.982,96.198,74.982z"/>
	</g>
	<text transform="matrix(1 0 0 1 88.5698 79.166)" fill="#A9A9AA" font-family="'MyriadPro-Regular'" font-size="3">iPhone</text>
</g>
<g>
	<g>
		<path fill="#A9A9AA" d="M112.07,72.707c-0.558,0-1.011,0.454-1.011,1.012c0,0.558,0.454,1.011,1.011,1.011
			c0.557,0,1.011-0.454,1.011-1.011C113.081,73.16,112.627,72.707,112.07,72.707z M112.07,74.224c-0.279,0-0.506-0.227-0.506-0.505
			c0-0.279,0.227-0.506,0.506-0.506c0.279,0,0.506,0.227,0.506,0.506C112.576,73.997,112.349,74.224,112.07,74.224z"/>
		<path fill="#A9A9AA" d="M111.059,61.581h1.011c0.14,0,0.253-0.113,0.253-0.252c0-0.14-0.113-0.253-0.253-0.253h-1.011
			c-0.14,0-0.253,0.113-0.253,0.253C110.806,61.468,110.919,61.581,111.059,61.581z"/>
		<path fill="#A9A9AA" d="M112.829,61.581h0.252c0.14,0,0.253-0.113,0.253-0.252c0-0.14-0.113-0.253-0.253-0.253h-0.252
			c-0.14,0-0.253,0.113-0.253,0.253C112.576,61.468,112.689,61.581,112.829,61.581z"/>
		<path fill="#A9A9AA" d="M116.203,74.973c0-0.001,0-0.001,0.001-0.002c0.031-0.048,0.058-0.099,0.082-0.151
			c0.006-0.013,0.012-0.026,0.017-0.039c0.005-0.012,0.011-0.022,0.015-0.035c0.003-0.01,0.002-0.019,0.004-0.029
			c0.038-0.111,0.063-0.229,0.063-0.354l-0.001-0.391v-0.231l-0.001-0.692l-0.001-0.231l-0.001-0.692v-0.23l-0.002-0.692v-0.231
			l-0.001-0.692l-0.001-0.231l-0.001-0.692v-0.23l-0.002-0.692v-0.23l-0.017-6.785c-0.001-0.614-0.502-1.112-1.117-1.111
			l-6.37,0.016c-0.614,0.001-1.112,0.502-1.111,1.117l0.032,12.943c0.001,0.614,0.502,1.113,1.117,1.111l6.369-0.016h0.126
			c0.039,0,0.074-0.01,0.106-0.025c0.148-0.032,0.284-0.094,0.404-0.179C115.934,75.391,116.203,74.973,116.203,74.973z
			 M108.277,62.339h7.586v4.804v0.379v0.692v0.231v0.692v0.231v0.692v0.23v0.692v0.231v0.692v0.042h-7.586V62.339z M108.885,60.822
			h6.369c0.335,0,0.608,0.272,0.608,0.608v0.403h-7.586V61.43C108.277,61.095,108.55,60.822,108.885,60.822z M115.254,74.982h-6.369
			c-0.335,0-0.608-0.273-0.608-0.608v-1.92h7.586v0.376v0.231v0.692v0.23v0.391c0,0.078-0.016,0.152-0.043,0.221
			c-0.017,0.044-0.039,0.085-0.065,0.125C115.645,74.878,115.462,74.982,115.254,74.982z"/>
	</g>
	<text transform="matrix(1 0 0 1 107.6265 79.166)" fill="#A9A9AA" font-family="'MyriadPro-Regular'" font-size="3">Android</text>
</g>
<g>
	<g>
		<path fill="#A9A9AA" d="M132.514,72.707c-0.558,0-1.011,0.454-1.011,1.012c0,0.558,0.454,1.011,1.011,1.011
			c0.557,0,1.011-0.454,1.011-1.011C133.525,73.16,133.071,72.707,132.514,72.707z M132.514,74.224
			c-0.279,0-0.506-0.227-0.506-0.505c0-0.279,0.227-0.506,0.506-0.506c0.279,0,0.506,0.227,0.506,0.506
			C133.02,73.997,132.792,74.224,132.514,74.224z"/>
		<path fill="#A9A9AA" d="M131.502,61.581h1.011c0.14,0,0.253-0.113,0.253-0.252c0-0.14-0.113-0.253-0.253-0.253h-1.011
			c-0.14,0-0.253,0.113-0.253,0.253C131.25,61.468,131.363,61.581,131.502,61.581z"/>
		<path fill="#A9A9AA" d="M133.272,61.581h0.252c0.14,0,0.253-0.113,0.253-0.252c0-0.14-0.113-0.253-0.253-0.253h-0.252
			c-0.14,0-0.253,0.113-0.253,0.253C133.02,61.468,133.133,61.581,133.272,61.581z"/>
		<path fill="#A9A9AA" d="M136.647,74.973c0-0.001,0-0.001,0.001-0.002c0.031-0.048,0.058-0.099,0.082-0.151
			c0.006-0.013,0.012-0.026,0.017-0.039c0.005-0.012,0.011-0.022,0.015-0.035c0.003-0.01,0.002-0.019,0.004-0.029
			c0.038-0.111,0.063-0.229,0.063-0.354l-0.001-0.391v-0.231l-0.001-0.692l-0.001-0.231l-0.001-0.692v-0.23l-0.002-0.692v-0.231
			l-0.001-0.692l-0.001-0.231l-0.001-0.692v-0.23l-0.002-0.692v-0.23l-0.017-6.785c-0.001-0.614-0.502-1.112-1.117-1.111
			l-6.37,0.016c-0.614,0.001-1.112,0.502-1.111,1.117l0.032,12.943c0.001,0.614,0.502,1.113,1.117,1.111l6.369-0.016h0.126
			c0.039,0,0.074-0.01,0.106-0.025c0.148-0.032,0.284-0.094,0.404-0.179C136.378,75.391,136.647,74.973,136.647,74.973z
			 M128.721,62.339h7.586v4.804v0.379v0.692v0.231v0.692v0.231v0.692v0.23v0.692v0.231v0.692v0.042h-7.586V62.339z M129.329,60.822
			h6.369c0.335,0,0.608,0.272,0.608,0.608v0.403h-7.586V61.43C128.721,61.095,128.994,60.822,129.329,60.822z M135.698,74.982
			h-6.369c-0.335,0-0.608-0.273-0.608-0.608v-1.92h7.586v0.376v0.231v0.692v0.23v0.391c0,0.078-0.016,0.152-0.043,0.221
			c-0.017,0.044-0.039,0.085-0.065,0.125C136.088,74.878,135.906,74.982,135.698,74.982z"/>
	</g>
	<text transform="matrix(1 0 0 1 128.0698 79.166)" fill="#A9A9AA" font-family="'MyriadPro-Regular'" font-size="3">HTML5</text>
</g>
<g>
	<g>
		<path fill="#A9A9AA" d="M151.596,72.707c-0.558,0-1.011,0.454-1.011,1.012c0,0.558,0.454,1.011,1.011,1.011
			s1.012-0.454,1.012-1.011C152.607,73.16,152.152,72.707,151.596,72.707z M151.596,74.224c-0.277,0-0.506-0.227-0.506-0.505
			c0-0.279,0.229-0.506,0.506-0.506c0.279,0,0.506,0.227,0.506,0.506C152.102,73.997,151.875,74.224,151.596,74.224z"/>
		<path fill="#A9A9AA" d="M150.584,61.581h1.012c0.139,0,0.252-0.113,0.252-0.252c0-0.14-0.113-0.253-0.252-0.253h-1.012
			c-0.14,0-0.253,0.113-0.253,0.253C150.332,61.468,150.445,61.581,150.584,61.581z"/>
		<path fill="#A9A9AA" d="M152.354,61.581h0.254c0.146,0,0.252-0.113,0.252-0.252c0-0.14-0.106-0.253-0.252-0.253h-0.254
			c-0.14,0-0.252,0.113-0.252,0.253C152.102,61.468,152.215,61.581,152.354,61.581z"/>
		<path fill="#A9A9AA" d="M155.729,74.973c0-0.001,0-0.001,0-0.002c0.031-0.048,0.063-0.099,0.082-0.151
			c0.006-0.013,0.019-0.026,0.021-0.039c0.004-0.012,0.01-0.022,0.018-0.035c0.004-0.01,0.002-0.019,0.004-0.029
			c0.039-0.111,0.063-0.229,0.063-0.354l-0.001-0.391v-0.231l-0.002-0.692l-0.001-0.231l-0.001-0.692l-0.003-0.23l-0.003-0.692
			v-0.231l-0.002-0.692V70.05l-0.002-0.692v-0.23l-0.002-0.692v-0.23l-0.021-6.785c-0.001-0.614-0.502-1.112-1.113-1.111
			l-6.373,0.016c-0.614,0.001-1.112,0.502-1.111,1.117l0.032,12.943c0.001,0.614,0.502,1.113,1.117,1.111l6.369-0.016h0.128
			c0.037,0,0.072-0.01,0.105-0.025c0.146-0.032,0.279-0.094,0.4-0.179C155.46,75.391,155.729,74.973,155.729,74.973z
			 M147.803,62.339h7.585v4.804v0.379v0.692v0.231v0.692v0.231v0.692v0.23v0.692v0.231v0.692v0.042h-7.585V62.339z M148.411,60.822
			h6.368c0.337,0,0.609,0.272,0.609,0.608v0.403H147.8V61.43C147.803,61.095,148.076,60.822,148.411,60.822z M154.779,74.982h-6.368
			c-0.335,0-0.608-0.273-0.608-0.608v-1.92h7.585v0.376v0.231v0.692v0.23v0.391c0,0.078-0.021,0.152-0.043,0.221
			c-0.021,0.044-0.037,0.085-0.064,0.125C155.171,74.878,154.986,74.982,154.779,74.982z"/>
	</g>
	<text transform="matrix(1 0 0 1 147.1519 79.166)" fill="#A9A9AA" font-family="'MyriadPro-Regular'" font-size="3">Android</text>
</g>
<g>
	<g>
		<path fill="#A9A9AA" d="M172.04,72.707c-0.558,0-1.011,0.454-1.011,1.012c0,0.558,0.453,1.011,1.011,1.011
			s1.011-0.454,1.011-1.011C173.051,73.16,172.598,72.707,172.04,72.707z M172.04,74.224c-0.278,0-0.506-0.227-0.506-0.505
			c0-0.279,0.228-0.506,0.506-0.506s0.506,0.227,0.506,0.506C172.546,73.997,172.318,74.224,172.04,74.224z"/>
		<path fill="#A9A9AA" d="M171.029,61.581h1.011c0.14,0,0.253-0.113,0.253-0.252c0-0.14-0.113-0.253-0.253-0.253h-1.011
			c-0.141,0-0.254,0.113-0.254,0.253C170.775,61.468,170.889,61.581,171.029,61.581z"/>
		<path fill="#A9A9AA" d="M172.799,61.581h0.252c0.141,0,0.254-0.113,0.254-0.252c0-0.14-0.113-0.253-0.254-0.253h-0.252
			c-0.14,0-0.253,0.113-0.253,0.253C172.546,61.468,172.659,61.581,172.799,61.581z"/>
		<path fill="#A9A9AA" d="M176.174,74.973c0-0.001,0-0.001,0-0.002c0.031-0.048,0.059-0.099,0.082-0.151
			c0.006-0.013,0.012-0.026,0.018-0.039c0.004-0.012,0.017-0.022,0.021-0.035c0.003-0.01,0.002-0.019,0.004-0.029
			c0.038-0.111,0.063-0.229,0.063-0.354v-0.391v-0.231l-0.002-0.692l-0.002-0.231v-0.692l-0.002-0.23l-0.002-0.692v-0.231
			l-0.002-0.692l-0.002-0.231l-0.002-0.692v-0.23l-0.004-0.692v-0.23l-0.019-6.785c0-0.614-0.505-1.112-1.115-1.111l-6.37,0.016
			c-0.609,0.001-1.107,0.502-1.107,1.117l0.031,12.943c0.002,0.614,0.502,1.113,1.114,1.111l6.369-0.016h0.126
			c0.039,0,0.07-0.01,0.104-0.025c0.146-0.032,0.281-0.094,0.401-0.179C175.904,75.391,176.174,74.973,176.174,74.973z
			 M168.247,62.339h7.586v4.804v0.379v0.692v0.231v0.692v0.231v0.692v0.23v0.692v0.231v0.692v0.042h-7.586V62.339z M168.855,60.822
			h6.369c0.336,0,0.604,0.272,0.604,0.608v0.403h-7.586V61.43C168.247,61.095,168.52,60.822,168.855,60.822z M175.225,74.982h-6.369
			c-0.336,0-0.604-0.273-0.604-0.608v-1.92h7.586v0.376v0.231v0.692v0.23v0.391c0,0.078-0.021,0.152-0.043,0.221
			c-0.021,0.044-0.038,0.085-0.063,0.125C175.615,74.878,175.432,74.982,175.225,74.982z"/>
	</g>
	<text transform="matrix(1 0 0 1 167.5967 79.166)" fill="#A9A9AA" font-family="'MyriadPro-Regular'" font-size="3">HTML5</text>
</g>
<g>
	<g>
		<path fill="#A9A9AA" d="M157.303,14.469c-0.558,0-1.011,0.454-1.011,1.012c0,0.558,0.454,1.011,1.011,1.011
			s1.012-0.454,1.012-1.011C158.314,14.922,157.859,14.469,157.303,14.469z M157.303,15.986c-0.277,0-0.506-0.227-0.506-0.505
			c0-0.279,0.229-0.506,0.506-0.506c0.279,0,0.506,0.227,0.506,0.506C157.809,15.759,157.582,15.986,157.303,15.986z"/>
		<path fill="#A9A9AA" d="M156.291,3.343h1.012c0.139,0,0.252-0.113,0.252-0.252c0-0.14-0.113-0.253-0.252-0.253h-1.012
			c-0.141,0-0.253,0.113-0.253,0.253C156.039,3.23,156.152,3.343,156.291,3.343z"/>
		<path fill="#A9A9AA" d="M158.061,3.343h0.254c0.146,0,0.252-0.113,0.252-0.252c0-0.14-0.106-0.253-0.252-0.253h-0.254
			c-0.14,0-0.252,0.113-0.252,0.253C157.809,3.23,157.922,3.343,158.061,3.343z"/>
		<path fill="#A9A9AA" d="M161.436,16.735c0-0.001,0-0.001,0-0.002c0.031-0.048,0.063-0.099,0.082-0.151
			c0.006-0.013,0.019-0.026,0.021-0.039c0.004-0.012,0.01-0.022,0.018-0.035c0.004-0.01,0.002-0.019,0.004-0.029
			c0.039-0.111,0.063-0.229,0.063-0.354l-0.001-0.391v-0.231l-0.002-0.692l-0.001-0.231l-0.001-0.692l-0.003-0.23l-0.003-0.692
			v-0.231l-0.002-0.692v-0.231l-0.002-0.692v-0.23l-0.002-0.692v-0.23l-0.021-6.785c-0.001-0.614-0.502-1.112-1.113-1.111
			L154.1,2.088c-0.613,0.001-1.111,0.502-1.111,1.117l0.033,12.943c0,0.614,0.502,1.113,1.117,1.111l6.368-0.016h0.128
			c0.037,0,0.072-0.01,0.105-0.025c0.146-0.032,0.279-0.094,0.4-0.179C161.167,17.153,161.436,16.735,161.436,16.735z M153.51,4.101
			h7.586v4.804v0.379v0.692v0.231v0.692v0.231v0.692v0.23v0.692v0.231v0.692v0.042h-7.586V4.101z M154.118,2.584h6.368
			c0.337,0,0.609,0.272,0.609,0.608v0.403h-7.589V3.192C153.51,2.857,153.783,2.584,154.118,2.584z M160.486,16.744h-6.368
			c-0.335,0-0.608-0.273-0.608-0.608v-1.92h7.586v0.376v0.231v0.692v0.23v0.391c0,0.078-0.021,0.152-0.043,0.221
			c-0.021,0.044-0.037,0.085-0.064,0.125C160.878,16.64,160.693,16.744,160.486,16.744z"/>
	</g>
	<text transform="matrix(1 0 0 1 152.8594 20.9282)" fill="#A9A9AA" font-family="'MyriadPro-Regular'" font-size="3">Android</text>
</g>
<g>
	<g>
		<path fill="#A9A9AA" d="M33.725,105.493c-0.558,0-1.011,0.454-1.011,1.012s0.454,1.011,1.011,1.011s1.011-0.454,1.011-1.011
			C34.736,105.946,34.282,105.493,33.725,105.493z M33.725,107.01c-0.279,0-0.506-0.227-0.506-0.505
			c0-0.279,0.227-0.506,0.506-0.506c0.279,0,0.506,0.227,0.506,0.506C34.23,106.783,34.003,107.01,33.725,107.01z"/>
		<path fill="#A9A9AA" d="M32.713,94.367h1.011c0.14,0,0.253-0.113,0.253-0.252c0-0.14-0.113-0.253-0.253-0.253h-1.011
			c-0.14,0-0.253,0.113-0.253,0.253C32.46,94.254,32.574,94.367,32.713,94.367z"/>
		<path fill="#A9A9AA" d="M34.483,94.367h0.252c0.14,0,0.253-0.113,0.253-0.252c0-0.14-0.113-0.253-0.253-0.253h-0.252
			c-0.14,0-0.253,0.113-0.253,0.253C34.23,94.254,34.344,94.367,34.483,94.367z"/>
		<path fill="#A9A9AA" d="M37.858,107.759c0-0.001,0-0.001,0.001-0.002c0.031-0.048,0.058-0.099,0.082-0.151
			c0.006-0.013,0.012-0.026,0.017-0.039c0.005-0.012,0.011-0.022,0.015-0.035c0.003-0.01,0.002-0.019,0.004-0.029
			c0.038-0.111,0.063-0.229,0.063-0.354l-0.001-0.391v-0.231l-0.001-0.692l-0.001-0.231l-0.001-0.692v-0.23l-0.002-0.692v-0.231
			l-0.001-0.692l-0.001-0.231l-0.001-0.692v-0.23l-0.002-0.692v-0.23l-0.017-6.785c-0.001-0.614-0.502-1.112-1.117-1.111
			l-6.37,0.016c-0.614,0.001-1.112,0.502-1.111,1.117l0.032,12.943c0.001,0.614,0.502,1.113,1.117,1.111l6.369-0.016h0.126
			c0.039,0,0.074-0.01,0.106-0.025c0.148-0.032,0.284-0.094,0.404-0.179C37.589,108.177,37.858,107.759,37.858,107.759z
			 M29.932,95.125h7.586v4.804v0.379V101v0.231v0.692v0.231v0.692v0.23v0.692v0.231v0.692v0.042h-7.586V95.125L29.932,95.125z
			 M30.54,93.608h6.369c0.335,0,0.608,0.272,0.608,0.608v0.403h-7.586v-0.403C29.932,93.881,30.205,93.608,30.54,93.608z
			 M36.909,107.768H30.54c-0.335,0-0.608-0.273-0.608-0.608v-1.92h7.586v0.376v0.231v0.692v0.23v0.391
			c0,0.078-0.016,0.152-0.043,0.221c-0.017,0.044-0.039,0.085-0.065,0.125C37.299,107.664,37.117,107.768,36.909,107.768z"/>
	</g>
	<text transform="matrix(1 0 0 1 29.2817 111.9521)" fill="#A9A9AA" font-family="'MyriadPro-Regular'" font-size="3">iPhone</text>
</g>
<g>
	<g>
		<path fill="#A9A9AA" d="M52.781,105.493c-0.558,0-1.011,0.454-1.011,1.012s0.454,1.011,1.011,1.011
			c0.557,0,1.011-0.454,1.011-1.011C53.792,105.946,53.339,105.493,52.781,105.493z M52.781,107.01
			c-0.279,0-0.506-0.227-0.506-0.505c0-0.279,0.227-0.506,0.506-0.506c0.279,0,0.506,0.227,0.506,0.506
			C53.287,106.783,53.06,107.01,52.781,107.01z"/>
		<path fill="#A9A9AA" d="M51.77,94.367h1.011c0.14,0,0.253-0.113,0.253-0.252c0-0.14-0.113-0.253-0.253-0.253H51.77
			c-0.14,0-0.253,0.113-0.253,0.253C51.517,94.254,51.63,94.367,51.77,94.367z"/>
		<path fill="#A9A9AA" d="M53.54,94.367h0.252c0.14,0,0.253-0.113,0.253-0.252c0-0.14-0.113-0.253-0.253-0.253H53.54
			c-0.14,0-0.253,0.113-0.253,0.253C53.287,94.254,53.4,94.367,53.54,94.367z"/>
		<path fill="#A9A9AA" d="M56.915,107.759c0-0.001,0-0.001,0.001-0.002c0.031-0.048,0.058-0.099,0.082-0.151
			c0.006-0.013,0.012-0.026,0.017-0.039c0.005-0.012,0.011-0.022,0.015-0.035c0.003-0.01,0.002-0.019,0.004-0.029
			c0.038-0.111,0.063-0.229,0.063-0.354l-0.001-0.391v-0.231l-0.001-0.692l-0.001-0.231l-0.001-0.692v-0.23l-0.002-0.692v-0.231
			l-0.001-0.692l-0.001-0.231l-0.001-0.692v-0.23l-0.002-0.692v-0.23l-0.017-6.785c-0.001-0.614-0.502-1.112-1.117-1.111
			l-6.37,0.016c-0.614,0.001-1.112,0.502-1.111,1.117l0.032,12.943c0.001,0.614,0.502,1.113,1.117,1.111l6.369-0.016h0.126
			c0.039,0,0.074-0.01,0.106-0.025c0.148-0.032,0.284-0.094,0.404-0.179C56.646,108.177,56.915,107.759,56.915,107.759z
			 M48.988,95.125h7.586v4.804v0.379V101v0.231v0.692v0.231v0.692v0.23v0.692v0.231v0.692v0.042h-7.586V95.125z M49.597,93.608
			h6.369c0.335,0,0.608,0.272,0.608,0.608v0.403h-7.586v-0.403C48.988,93.881,49.261,93.608,49.597,93.608z M55.966,107.768h-6.369
			c-0.335,0-0.608-0.273-0.608-0.608v-1.92h7.586v0.376v0.231v0.692v0.23v0.391c0,0.078-0.016,0.152-0.043,0.221
			c-0.017,0.044-0.039,0.085-0.065,0.125C56.356,107.664,56.173,107.768,55.966,107.768z"/>
	</g>
	<text transform="matrix(1 0 0 1 48.3384 111.9521)" fill="#A9A9AA" font-family="'MyriadPro-Regular'" font-size="3">Android</text>
</g>
<g>
	<g>
		<path fill="#A9A9AA" d="M73.225,105.493c-0.558,0-1.011,0.454-1.011,1.012s0.454,1.011,1.011,1.011s1.011-0.454,1.011-1.011
			C74.236,105.946,73.783,105.493,73.225,105.493z M73.225,107.01c-0.279,0-0.506-0.227-0.506-0.505
			c0-0.279,0.227-0.506,0.506-0.506c0.279,0,0.506,0.227,0.506,0.506C73.731,106.783,73.504,107.01,73.225,107.01z"/>
		<path fill="#A9A9AA" d="M72.214,94.367h1.011c0.14,0,0.253-0.113,0.253-0.252c0-0.14-0.113-0.253-0.253-0.253h-1.011
			c-0.14,0-0.253,0.113-0.253,0.253C71.961,94.254,72.074,94.367,72.214,94.367z"/>
		<path fill="#A9A9AA" d="M73.984,94.367h0.252c0.14,0,0.253-0.113,0.253-0.252c0-0.14-0.113-0.253-0.253-0.253h-0.252
			c-0.14,0-0.253,0.113-0.253,0.253C73.731,94.254,73.844,94.367,73.984,94.367z"/>
		<path fill="#A9A9AA" d="M77.358,107.759c0-0.001,0-0.001,0.001-0.002c0.031-0.048,0.058-0.099,0.082-0.151
			c0.006-0.013,0.012-0.026,0.017-0.039c0.005-0.012,0.011-0.022,0.015-0.035c0.003-0.01,0.002-0.019,0.004-0.029
			c0.038-0.111,0.063-0.229,0.063-0.354l-0.001-0.391v-0.231l-0.001-0.692l-0.001-0.231l-0.001-0.692v-0.23l-0.002-0.692v-0.231
			l-0.001-0.692l-0.001-0.231l-0.001-0.692v-0.23l-0.002-0.692v-0.23l-0.017-6.785c-0.001-0.614-0.502-1.112-1.117-1.111
			l-6.37,0.016c-0.614,0.001-1.112,0.502-1.111,1.117l0.032,12.943c0.001,0.614,0.502,1.113,1.117,1.111l6.369-0.016h0.126
			c0.039,0,0.074-0.01,0.106-0.025c0.148-0.032,0.284-0.094,0.404-0.179C77.089,108.177,77.358,107.759,77.358,107.759z
			 M69.432,95.125h7.586v4.804v0.379V101v0.231v0.692v0.231v0.692v0.23v0.692v0.231v0.692v0.042h-7.586V95.125z M70.041,93.608
			h6.369c0.335,0,0.608,0.272,0.608,0.608v0.403h-7.586v-0.403C69.432,93.881,69.705,93.608,70.041,93.608z M76.41,107.768h-6.369
			c-0.335,0-0.608-0.273-0.608-0.608v-1.92h7.586v0.376v0.231v0.692v0.23v0.391c0,0.078-0.016,0.152-0.043,0.221
			c-0.017,0.044-0.039,0.085-0.065,0.125C76.8,107.664,76.617,107.768,76.41,107.768z"/>
	</g>
	<text transform="matrix(1 0 0 1 68.7817 111.9521)" fill="#A9A9AA" font-family="'MyriadPro-Regular'" font-size="3">HTML5</text>
</g>
<g>
	<g>
		<path fill="#A9A9AA" d="M93.014,105.493c-0.558,0-1.011,0.454-1.011,1.012s0.454,1.011,1.011,1.011
			c0.557,0,1.011-0.454,1.011-1.011C94.025,105.946,93.571,105.493,93.014,105.493z M93.014,107.01
			c-0.279,0-0.506-0.227-0.506-0.505c0-0.279,0.227-0.506,0.506-0.506c0.279,0,0.506,0.227,0.506,0.506
			C93.52,106.783,93.292,107.01,93.014,107.01z"/>
		<path fill="#A9A9AA" d="M92.002,94.367h1.011c0.14,0,0.253-0.113,0.253-0.252c0-0.14-0.113-0.253-0.253-0.253h-1.011
			c-0.14,0-0.253,0.113-0.253,0.253C91.75,94.254,91.863,94.367,92.002,94.367z"/>
		<path fill="#A9A9AA" d="M93.772,94.367h0.252c0.14,0,0.253-0.113,0.253-0.252c0-0.14-0.113-0.253-0.253-0.253h-0.252
			c-0.14,0-0.253,0.113-0.253,0.253C93.52,94.254,93.633,94.367,93.772,94.367z"/>
		<path fill="#A9A9AA" d="M97.147,107.759c0-0.001,0-0.001,0.001-0.002c0.031-0.048,0.058-0.099,0.082-0.151
			c0.006-0.013,0.012-0.026,0.017-0.039c0.005-0.012,0.011-0.022,0.015-0.035c0.003-0.01,0.002-0.019,0.004-0.029
			c0.038-0.111,0.063-0.229,0.063-0.354l-0.001-0.391v-0.231l-0.001-0.692l-0.001-0.231l-0.001-0.692v-0.23l-0.002-0.692v-0.231
			l-0.001-0.692l-0.001-0.231l-0.001-0.692v-0.23l-0.002-0.692v-0.23l-0.017-6.785c-0.001-0.614-0.502-1.112-1.117-1.111
			l-6.37,0.016c-0.614,0.001-1.112,0.502-1.111,1.117l0.032,12.943c0.001,0.614,0.502,1.113,1.117,1.111l6.369-0.016h0.126
			c0.039,0,0.074-0.01,0.106-0.025c0.148-0.032,0.284-0.094,0.404-0.179C96.878,108.177,97.147,107.759,97.147,107.759z
			 M89.221,95.125h7.586v4.804v0.379V101v0.231v0.692v0.231v0.692v0.23v0.692v0.231v0.692v0.042h-7.586V95.125z M89.829,93.608
			h6.369c0.335,0,0.608,0.272,0.608,0.608v0.403H89.22v-0.403C89.221,93.881,89.494,93.608,89.829,93.608z M96.198,107.768h-6.369
			c-0.335,0-0.608-0.273-0.608-0.608v-1.92h7.586v0.376v0.231v0.692v0.23v0.391c0,0.078-0.016,0.152-0.043,0.221
			c-0.017,0.044-0.039,0.085-0.065,0.125C96.588,107.664,96.406,107.768,96.198,107.768z"/>
	</g>
	<text transform="matrix(1 0 0 1 88.5698 111.9521)" fill="#A9A9AA" font-family="'MyriadPro-Regular'" font-size="3">iPhone</text>
</g>
<g>
	<g>
		<path fill="#A9A9AA" d="M112.07,105.493c-0.558,0-1.011,0.454-1.011,1.012s0.454,1.011,1.011,1.011
			c0.557,0,1.011-0.454,1.011-1.011C113.081,105.946,112.627,105.493,112.07,105.493z M112.07,107.01
			c-0.279,0-0.506-0.227-0.506-0.505c0-0.279,0.227-0.506,0.506-0.506c0.279,0,0.506,0.227,0.506,0.506
			C112.576,106.783,112.349,107.01,112.07,107.01z"/>
		<path fill="#A9A9AA" d="M111.059,94.367h1.011c0.14,0,0.253-0.113,0.253-0.252c0-0.14-0.113-0.253-0.253-0.253h-1.011
			c-0.14,0-0.253,0.113-0.253,0.253C110.806,94.254,110.919,94.367,111.059,94.367z"/>
		<path fill="#A9A9AA" d="M112.829,94.367h0.252c0.14,0,0.253-0.113,0.253-0.252c0-0.14-0.113-0.253-0.253-0.253h-0.252
			c-0.14,0-0.253,0.113-0.253,0.253C112.576,94.254,112.689,94.367,112.829,94.367z"/>
		<path fill="#A9A9AA" d="M116.203,107.759c0-0.001,0-0.001,0.001-0.002c0.031-0.048,0.058-0.099,0.082-0.151
			c0.006-0.013,0.012-0.026,0.017-0.039c0.005-0.012,0.011-0.022,0.015-0.035c0.003-0.01,0.002-0.019,0.004-0.029
			c0.038-0.111,0.063-0.229,0.063-0.354l-0.001-0.391v-0.231l-0.001-0.692l-0.001-0.231l-0.001-0.692v-0.23l-0.002-0.692v-0.231
			l-0.001-0.692l-0.001-0.231l-0.001-0.692v-0.23l-0.002-0.692v-0.23l-0.017-6.785c-0.001-0.614-0.502-1.112-1.117-1.111
			l-6.37,0.016c-0.614,0.001-1.112,0.502-1.111,1.117l0.032,12.943c0.001,0.614,0.502,1.113,1.117,1.111l6.369-0.016h0.126
			c0.039,0,0.074-0.01,0.106-0.025c0.148-0.032,0.284-0.094,0.404-0.179C115.934,108.177,116.203,107.759,116.203,107.759z
			 M108.277,95.125h7.586v4.804v0.379V101v0.231v0.692v0.231v0.692v0.23v0.692v0.231v0.692v0.042h-7.586V95.125z M108.885,93.608
			h6.369c0.335,0,0.608,0.272,0.608,0.608v0.403h-7.586v-0.403C108.277,93.881,108.55,93.608,108.885,93.608z M115.254,107.768
			h-6.369c-0.335,0-0.608-0.273-0.608-0.608v-1.92h7.586v0.376v0.231v0.692v0.23v0.391c0,0.078-0.016,0.152-0.043,0.221
			c-0.017,0.044-0.039,0.085-0.065,0.125C115.645,107.664,115.462,107.768,115.254,107.768z"/>
	</g>
	<text transform="matrix(1 0 0 1 107.6265 111.9521)" fill="#A9A9AA" font-family="'MyriadPro-Regular'" font-size="3">Android</text>
</g>
<g>
	<g>
		<path fill="#A9A9AA" d="M132.514,105.493c-0.558,0-1.011,0.454-1.011,1.012s0.454,1.011,1.011,1.011
			c0.557,0,1.011-0.454,1.011-1.011C133.525,105.946,133.071,105.493,132.514,105.493z M132.514,107.01
			c-0.279,0-0.506-0.227-0.506-0.505c0-0.279,0.227-0.506,0.506-0.506c0.279,0,0.506,0.227,0.506,0.506
			C133.02,106.783,132.792,107.01,132.514,107.01z"/>
		<path fill="#A9A9AA" d="M131.502,94.367h1.011c0.14,0,0.253-0.113,0.253-0.252c0-0.14-0.113-0.253-0.253-0.253h-1.011
			c-0.14,0-0.253,0.113-0.253,0.253C131.25,94.254,131.363,94.367,131.502,94.367z"/>
		<path fill="#A9A9AA" d="M133.272,94.367h0.252c0.14,0,0.253-0.113,0.253-0.252c0-0.14-0.113-0.253-0.253-0.253h-0.252
			c-0.14,0-0.253,0.113-0.253,0.253C133.02,94.254,133.133,94.367,133.272,94.367z"/>
		<path fill="#A9A9AA" d="M136.647,107.759c0-0.001,0-0.001,0.001-0.002c0.031-0.048,0.058-0.099,0.082-0.151
			c0.006-0.013,0.012-0.026,0.017-0.039c0.005-0.012,0.011-0.022,0.015-0.035c0.003-0.01,0.002-0.019,0.004-0.029
			c0.038-0.111,0.063-0.229,0.063-0.354l-0.001-0.391v-0.231l-0.001-0.692l-0.001-0.231l-0.001-0.692v-0.23l-0.002-0.692v-0.231
			l-0.001-0.692l-0.001-0.231l-0.001-0.692v-0.23l-0.002-0.692v-0.23l-0.017-6.785c-0.001-0.614-0.502-1.112-1.117-1.111
			l-6.37,0.016c-0.614,0.001-1.112,0.502-1.111,1.117l0.032,12.943c0.001,0.614,0.502,1.113,1.117,1.111l6.369-0.016h0.126
			c0.039,0,0.074-0.01,0.106-0.025c0.148-0.032,0.284-0.094,0.404-0.179C136.378,108.177,136.647,107.759,136.647,107.759z
			 M128.721,95.125h7.586v4.804v0.379V101v0.231v0.692v0.231v0.692v0.23v0.692v0.231v0.692v0.042h-7.586V95.125z M129.329,93.608
			h6.369c0.335,0,0.608,0.272,0.608,0.608v0.403h-7.586v-0.403C128.721,93.881,128.994,93.608,129.329,93.608z M135.698,107.768
			h-6.369c-0.335,0-0.608-0.273-0.608-0.608v-1.92h7.586v0.376v0.231v0.692v0.23v0.391c0,0.078-0.016,0.152-0.043,0.221
			c-0.017,0.044-0.039,0.085-0.065,0.125C136.088,107.664,135.906,107.768,135.698,107.768z"/>
	</g>
	<text transform="matrix(1 0 0 1 128.0698 111.9521)" fill="#A9A9AA" font-family="'MyriadPro-Regular'" font-size="3">HTML5</text>
</g>
<g>
	<g>
		<path fill="#A9A9AA" d="M151.596,105.493c-0.558,0-1.011,0.454-1.011,1.012s0.454,1.011,1.011,1.011s1.012-0.454,1.012-1.011
			C152.607,105.946,152.152,105.493,151.596,105.493z M151.596,107.01c-0.277,0-0.506-0.227-0.506-0.505
			c0-0.279,0.229-0.506,0.506-0.506c0.279,0,0.506,0.227,0.506,0.506C152.102,106.783,151.875,107.01,151.596,107.01z"/>
		<path fill="#A9A9AA" d="M150.584,94.367h1.012c0.139,0,0.252-0.113,0.252-0.252c0-0.14-0.113-0.253-0.252-0.253h-1.012
			c-0.14,0-0.253,0.113-0.253,0.253C150.332,94.254,150.445,94.367,150.584,94.367z"/>
		<path fill="#A9A9AA" d="M152.354,94.367h0.254c0.146,0,0.252-0.113,0.252-0.252c0-0.14-0.106-0.253-0.252-0.253h-0.254
			c-0.14,0-0.252,0.113-0.252,0.253C152.102,94.254,152.215,94.367,152.354,94.367z"/>
		<path fill="#A9A9AA" d="M155.729,107.759c0-0.001,0-0.001,0-0.002c0.031-0.048,0.063-0.099,0.082-0.151
			c0.006-0.013,0.019-0.026,0.021-0.039c0.004-0.012,0.01-0.022,0.018-0.035c0.004-0.01,0.002-0.019,0.004-0.029
			c0.039-0.111,0.063-0.229,0.063-0.354l-0.001-0.391v-0.231l-0.002-0.692l-0.001-0.231l-0.001-0.692l-0.003-0.23l-0.003-0.692
			v-0.231l-0.002-0.692v-0.231l-0.002-0.692v-0.23l-0.002-0.692v-0.23l-0.021-6.785c-0.001-0.614-0.502-1.112-1.113-1.111
			l-6.373,0.016c-0.614,0.001-1.112,0.502-1.111,1.117l0.032,12.943c0.001,0.614,0.502,1.113,1.117,1.111l6.369-0.016h0.128
			c0.037,0,0.072-0.01,0.105-0.025c0.146-0.032,0.279-0.094,0.4-0.179C155.46,108.177,155.729,107.759,155.729,107.759z
			 M147.803,95.125h7.585v4.804v0.379V101v0.231v0.692v0.231v0.692v0.23v0.692v0.231v0.692v0.042h-7.585V95.125z M148.411,93.608
			h6.368c0.337,0,0.609,0.272,0.609,0.608v0.403H147.8v-0.403C147.803,93.881,148.076,93.608,148.411,93.608z M154.779,107.768
			h-6.368c-0.335,0-0.608-0.273-0.608-0.608v-1.92h7.585v0.376v0.231v0.692v0.23v0.391c0,0.078-0.021,0.152-0.043,0.221
			c-0.021,0.044-0.037,0.085-0.064,0.125C155.171,107.664,154.986,107.768,154.779,107.768z"/>
	</g>
	<text transform="matrix(1 0 0 1 147.1519 111.9521)" fill="#A9A9AA" font-family="'MyriadPro-Regular'" font-size="3">Android</text>
</g>
<g>
	<g>
		<path fill="#A9A9AA" d="M172.04,105.493c-0.558,0-1.011,0.454-1.011,1.012s0.453,1.011,1.011,1.011s1.011-0.454,1.011-1.011
			C173.051,105.946,172.598,105.493,172.04,105.493z M172.04,107.01c-0.278,0-0.506-0.227-0.506-0.505
			c0-0.279,0.228-0.506,0.506-0.506s0.506,0.227,0.506,0.506C172.546,106.783,172.318,107.01,172.04,107.01z"/>
		<path fill="#A9A9AA" d="M171.029,94.367h1.011c0.14,0,0.253-0.113,0.253-0.252c0-0.14-0.113-0.253-0.253-0.253h-1.011
			c-0.141,0-0.254,0.113-0.254,0.253C170.775,94.254,170.889,94.367,171.029,94.367z"/>
		<path fill="#A9A9AA" d="M172.799,94.367h0.252c0.141,0,0.254-0.113,0.254-0.252c0-0.14-0.113-0.253-0.254-0.253h-0.252
			c-0.14,0-0.253,0.113-0.253,0.253C172.546,94.254,172.659,94.367,172.799,94.367z"/>
		<path fill="#A9A9AA" d="M176.174,107.759c0-0.001,0-0.001,0-0.002c0.031-0.048,0.059-0.099,0.082-0.151
			c0.006-0.013,0.012-0.026,0.018-0.039c0.004-0.012,0.017-0.022,0.021-0.035c0.003-0.01,0.002-0.019,0.004-0.029
			c0.038-0.111,0.063-0.229,0.063-0.354v-0.391v-0.231l-0.002-0.692l-0.002-0.231v-0.692l-0.002-0.23l-0.002-0.692v-0.231
			l-0.002-0.692l-0.002-0.231l-0.002-0.692v-0.23l-0.004-0.692v-0.23l-0.019-6.785c0-0.614-0.505-1.112-1.115-1.111l-6.37,0.016
			c-0.609,0.001-1.107,0.502-1.107,1.117l0.031,12.943c0.002,0.614,0.502,1.113,1.114,1.111l6.369-0.016h0.126
			c0.039,0,0.07-0.01,0.104-0.025c0.146-0.032,0.281-0.094,0.401-0.179C175.904,108.177,176.174,107.759,176.174,107.759z
			 M168.247,95.125h7.586v4.804v0.379V101v0.231v0.692v0.231v0.692v0.23v0.692v0.231v0.692v0.042h-7.586V95.125z M168.855,93.608
			h6.369c0.336,0,0.604,0.272,0.604,0.608v0.403h-7.586v-0.403C168.247,93.881,168.52,93.608,168.855,93.608z M175.225,107.768
			h-6.369c-0.336,0-0.604-0.273-0.604-0.608v-1.92h7.586v0.376v0.231v0.692v0.23v0.391c0,0.078-0.021,0.152-0.043,0.221
			c-0.021,0.044-0.038,0.085-0.063,0.125C175.615,107.664,175.432,107.768,175.225,107.768z"/>
	</g>
	<text transform="matrix(1 0 0 1 167.5967 111.9521)" fill="#A9A9AA" font-family="'MyriadPro-Regular'" font-size="3">HTML5</text>
</g>
<g>
	<g>
		<path fill="#A9A9AA" d="M33.725,137.826c-0.558,0-1.011,0.454-1.011,1.012s0.454,1.011,1.011,1.011s1.011-0.454,1.011-1.011
			C34.736,138.279,34.282,137.826,33.725,137.826z M33.725,139.343c-0.279,0-0.506-0.227-0.506-0.505
			c0-0.279,0.227-0.506,0.506-0.506c0.279,0,0.506,0.227,0.506,0.506C34.23,139.116,34.003,139.343,33.725,139.343z"/>
		<path fill="#A9A9AA" d="M32.713,126.7h1.011c0.14,0,0.253-0.113,0.253-0.252c0-0.14-0.113-0.253-0.253-0.253h-1.011
			c-0.14,0-0.253,0.113-0.253,0.253C32.46,126.587,32.574,126.7,32.713,126.7z"/>
		<path fill="#A9A9AA" d="M34.483,126.7h0.252c0.14,0,0.253-0.113,0.253-0.252c0-0.14-0.113-0.253-0.253-0.253h-0.252
			c-0.14,0-0.253,0.113-0.253,0.253C34.23,126.587,34.344,126.7,34.483,126.7z"/>
		<path fill="#A9A9AA" d="M37.858,140.092c0-0.001,0-0.001,0.001-0.002c0.031-0.048,0.058-0.099,0.082-0.151
			c0.006-0.013,0.012-0.026,0.017-0.039c0.005-0.012,0.011-0.022,0.015-0.035c0.003-0.01,0.002-0.019,0.004-0.029
			c0.038-0.111,0.063-0.229,0.063-0.354l-0.001-0.391v-0.231l-0.001-0.692l-0.001-0.231l-0.001-0.692v-0.23l-0.002-0.692v-0.231
			l-0.001-0.692l-0.001-0.231l-0.001-0.692v-0.23l-0.002-0.692v-0.23l-0.017-6.785c-0.001-0.614-0.502-1.112-1.117-1.111
			l-6.37,0.016c-0.614,0.001-1.112,0.502-1.111,1.117l0.032,12.943c0.001,0.614,0.502,1.113,1.117,1.111l6.369-0.016h0.126
			c0.039,0,0.074-0.01,0.106-0.025c0.148-0.032,0.284-0.094,0.404-0.179C37.589,140.51,37.858,140.092,37.858,140.092z
			 M29.932,127.458h7.586v4.804v0.379v0.692v0.231v0.692v0.231v0.692v0.23v0.692v0.231v0.692v0.042h-7.586V127.458L29.932,127.458z
			 M30.54,125.941h6.369c0.335,0,0.608,0.272,0.608,0.608v0.403h-7.586v-0.403C29.932,126.214,30.205,125.941,30.54,125.941z
			 M36.909,140.101H30.54c-0.335,0-0.608-0.273-0.608-0.608v-1.92h7.586v0.376v0.231v0.692v0.23v0.391
			c0,0.078-0.016,0.152-0.043,0.221c-0.017,0.044-0.039,0.085-0.065,0.125C37.299,139.997,37.117,140.101,36.909,140.101z"/>
	</g>
	<text transform="matrix(1 0 0 1 29.2817 144.2852)" fill="#A9A9AA" font-family="'MyriadPro-Regular'" font-size="3">iPhone</text>
</g>
<g>
	<g>
		<path fill="#A9A9AA" d="M52.781,137.826c-0.558,0-1.011,0.454-1.011,1.012s0.454,1.011,1.011,1.011
			c0.557,0,1.011-0.454,1.011-1.011C53.792,138.279,53.339,137.826,52.781,137.826z M52.781,139.343
			c-0.279,0-0.506-0.227-0.506-0.505c0-0.279,0.227-0.506,0.506-0.506c0.279,0,0.506,0.227,0.506,0.506
			C53.287,139.116,53.06,139.343,52.781,139.343z"/>
		<path fill="#A9A9AA" d="M51.77,126.7h1.011c0.14,0,0.253-0.113,0.253-0.252c0-0.14-0.113-0.253-0.253-0.253H51.77
			c-0.14,0-0.253,0.113-0.253,0.253C51.517,126.587,51.63,126.7,51.77,126.7z"/>
		<path fill="#A9A9AA" d="M53.54,126.7h0.252c0.14,0,0.253-0.113,0.253-0.252c0-0.14-0.113-0.253-0.253-0.253H53.54
			c-0.14,0-0.253,0.113-0.253,0.253C53.287,126.587,53.4,126.7,53.54,126.7z"/>
		<path fill="#A9A9AA" d="M56.915,140.092c0-0.001,0-0.001,0.001-0.002c0.031-0.048,0.058-0.099,0.082-0.151
			c0.006-0.013,0.012-0.026,0.017-0.039c0.005-0.012,0.011-0.022,0.015-0.035c0.003-0.01,0.002-0.019,0.004-0.029
			c0.038-0.111,0.063-0.229,0.063-0.354l-0.001-0.391v-0.231l-0.001-0.692l-0.001-0.231l-0.001-0.692v-0.23l-0.002-0.692v-0.231
			L57.09,135.4l-0.001-0.231l-0.001-0.692v-0.23l-0.002-0.692v-0.23l-0.017-6.785c-0.001-0.614-0.502-1.112-1.117-1.111l-6.37,0.016
			c-0.614,0.001-1.112,0.502-1.111,1.117l0.032,12.943c0.001,0.614,0.502,1.113,1.117,1.111l6.369-0.016h0.126
			c0.039,0,0.074-0.01,0.106-0.025c0.148-0.032,0.284-0.094,0.404-0.179C56.646,140.51,56.915,140.092,56.915,140.092z
			 M48.988,127.458h7.586v4.804v0.379v0.692v0.231v0.692v0.231v0.692v0.23v0.692v0.231v0.692v0.042h-7.586V127.458z M49.597,125.941
			h6.369c0.335,0,0.608,0.272,0.608,0.608v0.403h-7.586v-0.403C48.988,126.214,49.261,125.941,49.597,125.941z M55.966,140.101
			h-6.369c-0.335,0-0.608-0.273-0.608-0.608v-1.92h7.586v0.376v0.231v0.692v0.23v0.391c0,0.078-0.016,0.152-0.043,0.221
			c-0.017,0.044-0.039,0.085-0.065,0.125C56.356,139.997,56.173,140.101,55.966,140.101z"/>
	</g>
	<text transform="matrix(1 0 0 1 48.3384 144.2852)" fill="#A9A9AA" font-family="'MyriadPro-Regular'" font-size="3">Android</text>
</g>
<g>
	<g>
		<path fill="#A9A9AA" d="M73.225,137.826c-0.558,0-1.011,0.454-1.011,1.012s0.454,1.011,1.011,1.011s1.011-0.454,1.011-1.011
			C74.236,138.279,73.783,137.826,73.225,137.826z M73.225,139.343c-0.279,0-0.506-0.227-0.506-0.505
			c0-0.279,0.227-0.506,0.506-0.506c0.279,0,0.506,0.227,0.506,0.506C73.731,139.116,73.504,139.343,73.225,139.343z"/>
		<path fill="#A9A9AA" d="M72.214,126.7h1.011c0.14,0,0.253-0.113,0.253-0.252c0-0.14-0.113-0.253-0.253-0.253h-1.011
			c-0.14,0-0.253,0.113-0.253,0.253C71.961,126.587,72.074,126.7,72.214,126.7z"/>
		<path fill="#A9A9AA" d="M73.984,126.7h0.252c0.14,0,0.253-0.113,0.253-0.252c0-0.14-0.113-0.253-0.253-0.253h-0.252
			c-0.14,0-0.253,0.113-0.253,0.253C73.731,126.587,73.844,126.7,73.984,126.7z"/>
		<path fill="#A9A9AA" d="M77.358,140.092c0-0.001,0-0.001,0.001-0.002c0.031-0.048,0.058-0.099,0.082-0.151
			c0.006-0.013,0.012-0.026,0.017-0.039c0.005-0.012,0.011-0.022,0.015-0.035c0.003-0.01,0.002-0.019,0.004-0.029
			c0.038-0.111,0.063-0.229,0.063-0.354l-0.001-0.391v-0.231l-0.001-0.692l-0.001-0.231l-0.001-0.692v-0.23l-0.002-0.692v-0.231
			l-0.001-0.692l-0.001-0.231l-0.001-0.692v-0.23l-0.002-0.692v-0.23l-0.017-6.785c-0.001-0.614-0.502-1.112-1.117-1.111
			l-6.37,0.016c-0.614,0.001-1.112,0.502-1.111,1.117l0.032,12.943c0.001,0.614,0.502,1.113,1.117,1.111l6.369-0.016h0.126
			c0.039,0,0.074-0.01,0.106-0.025c0.148-0.032,0.284-0.094,0.404-0.179C77.089,140.51,77.358,140.092,77.358,140.092z
			 M69.432,127.458h7.586v4.804v0.379v0.692v0.231v0.692v0.231v0.692v0.23v0.692v0.231v0.692v0.042h-7.586V127.458z M70.041,125.941
			h6.369c0.335,0,0.608,0.272,0.608,0.608v0.403h-7.586v-0.403C69.432,126.214,69.705,125.941,70.041,125.941z M76.41,140.101
			h-6.369c-0.335,0-0.608-0.273-0.608-0.608v-1.92h7.586v0.376v0.231v0.692v0.23v0.391c0,0.078-0.016,0.152-0.043,0.221
			c-0.017,0.044-0.039,0.085-0.065,0.125C76.8,139.997,76.617,140.101,76.41,140.101z"/>
	</g>
	<text transform="matrix(1 0 0 1 68.7817 144.2852)" fill="#A9A9AA" font-family="'MyriadPro-Regular'" font-size="3">HTML5</text>
</g>
<g>
	<g>
		<path fill="#A9A9AA" d="M93.014,137.826c-0.558,0-1.011,0.454-1.011,1.012s0.454,1.011,1.011,1.011
			c0.557,0,1.011-0.454,1.011-1.011C94.025,138.279,93.571,137.826,93.014,137.826z M93.014,139.343
			c-0.279,0-0.506-0.227-0.506-0.505c0-0.279,0.227-0.506,0.506-0.506c0.279,0,0.506,0.227,0.506,0.506
			C93.52,139.116,93.292,139.343,93.014,139.343z"/>
		<path fill="#A9A9AA" d="M92.002,126.7h1.011c0.14,0,0.253-0.113,0.253-0.252c0-0.14-0.113-0.253-0.253-0.253h-1.011
			c-0.14,0-0.253,0.113-0.253,0.253C91.75,126.587,91.863,126.7,92.002,126.7z"/>
		<path fill="#A9A9AA" d="M93.772,126.7h0.252c0.14,0,0.253-0.113,0.253-0.252c0-0.14-0.113-0.253-0.253-0.253h-0.252
			c-0.14,0-0.253,0.113-0.253,0.253C93.52,126.587,93.633,126.7,93.772,126.7z"/>
		<path fill="#A9A9AA" d="M97.147,140.092c0-0.001,0-0.001,0.001-0.002c0.031-0.048,0.058-0.099,0.082-0.151
			c0.006-0.013,0.012-0.026,0.017-0.039c0.005-0.012,0.011-0.022,0.015-0.035c0.003-0.01,0.002-0.019,0.004-0.029
			c0.038-0.111,0.063-0.229,0.063-0.354l-0.001-0.391v-0.231l-0.001-0.692l-0.001-0.231l-0.001-0.692v-0.23l-0.002-0.692v-0.231
			l-0.001-0.692l-0.001-0.231l-0.001-0.692v-0.23l-0.002-0.692v-0.23l-0.017-6.785c-0.001-0.614-0.502-1.112-1.117-1.111
			l-6.37,0.016c-0.614,0.001-1.112,0.502-1.111,1.117l0.032,12.943c0.001,0.614,0.502,1.113,1.117,1.111l6.369-0.016h0.126
			c0.039,0,0.074-0.01,0.106-0.025c0.148-0.032,0.284-0.094,0.404-0.179C96.878,140.51,97.147,140.092,97.147,140.092z
			 M89.221,127.458h7.586v4.804v0.379v0.692v0.231v0.692v0.231v0.692v0.23v0.692v0.231v0.692v0.042h-7.586V127.458z M89.829,125.941
			h6.369c0.335,0,0.608,0.272,0.608,0.608v0.403H89.22v-0.403C89.221,126.214,89.494,125.941,89.829,125.941z M96.198,140.101
			h-6.369c-0.335,0-0.608-0.273-0.608-0.608v-1.92h7.586v0.376v0.231v0.692v0.23v0.391c0,0.078-0.016,0.152-0.043,0.221
			c-0.017,0.044-0.039,0.085-0.065,0.125C96.588,139.997,96.406,140.101,96.198,140.101z"/>
	</g>
	<text transform="matrix(1 0 0 1 88.5698 144.2852)" fill="#A9A9AA" font-family="'MyriadPro-Regular'" font-size="3">iPhone</text>
</g>
<g>
	<g>
		<path fill="#A9A9AA" d="M112.07,137.826c-0.558,0-1.011,0.454-1.011,1.012s0.454,1.011,1.011,1.011
			c0.557,0,1.011-0.454,1.011-1.011C113.081,138.279,112.627,137.826,112.07,137.826z M112.07,139.343
			c-0.279,0-0.506-0.227-0.506-0.505c0-0.279,0.227-0.506,0.506-0.506c0.279,0,0.506,0.227,0.506,0.506
			C112.576,139.116,112.349,139.343,112.07,139.343z"/>
		<path fill="#A9A9AA" d="M111.059,126.7h1.011c0.14,0,0.253-0.113,0.253-0.252c0-0.14-0.113-0.253-0.253-0.253h-1.011
			c-0.14,0-0.253,0.113-0.253,0.253C110.806,126.587,110.919,126.7,111.059,126.7z"/>
		<path fill="#A9A9AA" d="M112.829,126.7h0.252c0.14,0,0.253-0.113,0.253-0.252c0-0.14-0.113-0.253-0.253-0.253h-0.252
			c-0.14,0-0.253,0.113-0.253,0.253C112.576,126.587,112.689,126.7,112.829,126.7z"/>
		<path fill="#A9A9AA" d="M116.203,140.092c0-0.001,0-0.001,0.001-0.002c0.031-0.048,0.058-0.099,0.082-0.151
			c0.006-0.013,0.012-0.026,0.017-0.039c0.005-0.012,0.011-0.022,0.015-0.035c0.003-0.01,0.002-0.019,0.004-0.029
			c0.038-0.111,0.063-0.229,0.063-0.354l-0.001-0.391v-0.231l-0.001-0.692l-0.001-0.231l-0.001-0.692v-0.23l-0.002-0.692v-0.231
			l-0.001-0.692l-0.001-0.231l-0.001-0.692v-0.23l-0.002-0.692v-0.23l-0.017-6.785c-0.001-0.614-0.502-1.112-1.117-1.111
			l-6.37,0.016c-0.614,0.001-1.112,0.502-1.111,1.117l0.032,12.943c0.001,0.614,0.502,1.113,1.117,1.111l6.369-0.016h0.126
			c0.039,0,0.074-0.01,0.106-0.025c0.148-0.032,0.284-0.094,0.404-0.179C115.934,140.51,116.203,140.092,116.203,140.092z
			 M108.277,127.458h7.586v4.804v0.379v0.692v0.231v0.692v0.231v0.692v0.23v0.692v0.231v0.692v0.042h-7.586V127.458z
			 M108.885,125.941h6.369c0.335,0,0.608,0.272,0.608,0.608v0.403h-7.586v-0.403C108.277,126.214,108.55,125.941,108.885,125.941z
			 M115.254,140.101h-6.369c-0.335,0-0.608-0.273-0.608-0.608v-1.92h7.586v0.376v0.231v0.692v0.23v0.391
			c0,0.078-0.016,0.152-0.043,0.221c-0.017,0.044-0.039,0.085-0.065,0.125C115.645,139.997,115.462,140.101,115.254,140.101z"/>
	</g>
	<text transform="matrix(1 0 0 1 107.6265 144.2852)" fill="#A9A9AA" font-family="'MyriadPro-Regular'" font-size="3">Android</text>
</g>
<g>
	<g>
		<path fill="#A9A9AA" d="M132.514,137.826c-0.558,0-1.011,0.454-1.011,1.012s0.454,1.011,1.011,1.011
			c0.557,0,1.011-0.454,1.011-1.011C133.525,138.279,133.071,137.826,132.514,137.826z M132.514,139.343
			c-0.279,0-0.506-0.227-0.506-0.505c0-0.279,0.227-0.506,0.506-0.506c0.279,0,0.506,0.227,0.506,0.506
			C133.02,139.116,132.792,139.343,132.514,139.343z"/>
		<path fill="#A9A9AA" d="M131.502,126.7h1.011c0.14,0,0.253-0.113,0.253-0.252c0-0.14-0.113-0.253-0.253-0.253h-1.011
			c-0.14,0-0.253,0.113-0.253,0.253C131.25,126.587,131.363,126.7,131.502,126.7z"/>
		<path fill="#A9A9AA" d="M133.272,126.7h0.252c0.14,0,0.253-0.113,0.253-0.252c0-0.14-0.113-0.253-0.253-0.253h-0.252
			c-0.14,0-0.253,0.113-0.253,0.253C133.02,126.587,133.133,126.7,133.272,126.7z"/>
		<path fill="#A9A9AA" d="M136.647,140.092c0-0.001,0-0.001,0.001-0.002c0.031-0.048,0.058-0.099,0.082-0.151
			c0.006-0.013,0.012-0.026,0.017-0.039c0.005-0.012,0.011-0.022,0.015-0.035c0.003-0.01,0.002-0.019,0.004-0.029
			c0.038-0.111,0.063-0.229,0.063-0.354l-0.001-0.391v-0.231l-0.001-0.692l-0.001-0.231l-0.001-0.692v-0.23l-0.002-0.692v-0.231
			l-0.001-0.692l-0.001-0.231l-0.001-0.692v-0.23l-0.002-0.692v-0.23l-0.017-6.785c-0.001-0.614-0.502-1.112-1.117-1.111
			l-6.37,0.016c-0.614,0.001-1.112,0.502-1.111,1.117l0.032,12.943c0.001,0.614,0.502,1.113,1.117,1.111l6.369-0.016h0.126
			c0.039,0,0.074-0.01,0.106-0.025c0.148-0.032,0.284-0.094,0.404-0.179C136.378,140.51,136.647,140.092,136.647,140.092z
			 M128.721,127.458h7.586v4.804v0.379v0.692v0.231v0.692v0.231v0.692v0.23v0.692v0.231v0.692v0.042h-7.586V127.458z
			 M129.329,125.941h6.369c0.335,0,0.608,0.272,0.608,0.608v0.403h-7.586v-0.403C128.721,126.214,128.994,125.941,129.329,125.941z
			 M135.698,140.101h-6.369c-0.335,0-0.608-0.273-0.608-0.608v-1.92h7.586v0.376v0.231v0.692v0.23v0.391
			c0,0.078-0.016,0.152-0.043,0.221c-0.017,0.044-0.039,0.085-0.065,0.125C136.088,139.997,135.906,140.101,135.698,140.101z"/>
	</g>
	<text transform="matrix(1 0 0 1 128.0698 144.2852)" fill="#A9A9AA" font-family="'MyriadPro-Regular'" font-size="3">HTML5</text>
</g>
<g>
	<g>
		<path fill="#A9A9AA" d="M151.596,137.826c-0.558,0-1.011,0.454-1.011,1.012s0.454,1.011,1.011,1.011s1.012-0.454,1.012-1.011
			C152.607,138.279,152.152,137.826,151.596,137.826z M151.596,139.343c-0.277,0-0.506-0.227-0.506-0.505
			c0-0.279,0.229-0.506,0.506-0.506c0.279,0,0.506,0.227,0.506,0.506C152.102,139.116,151.875,139.343,151.596,139.343z"/>
		<path fill="#A9A9AA" d="M150.584,126.7h1.012c0.139,0,0.252-0.113,0.252-0.252c0-0.14-0.113-0.253-0.252-0.253h-1.012
			c-0.14,0-0.253,0.113-0.253,0.253C150.332,126.587,150.445,126.7,150.584,126.7z"/>
		<path fill="#A9A9AA" d="M152.354,126.7h0.254c0.146,0,0.252-0.113,0.252-0.252c0-0.14-0.106-0.253-0.252-0.253h-0.254
			c-0.14,0-0.252,0.113-0.252,0.253C152.102,126.587,152.215,126.7,152.354,126.7z"/>
		<path fill="#A9A9AA" d="M155.729,140.092c0-0.001,0-0.001,0-0.002c0.031-0.048,0.063-0.099,0.082-0.151
			c0.006-0.013,0.019-0.026,0.021-0.039c0.004-0.012,0.01-0.022,0.018-0.035c0.004-0.01,0.002-0.019,0.004-0.029
			c0.039-0.111,0.063-0.229,0.063-0.354l-0.001-0.391v-0.231l-0.002-0.692l-0.001-0.231l-0.001-0.692l-0.003-0.23l-0.003-0.692
			v-0.231L155.9,135.4v-0.231l-0.002-0.692v-0.23l-0.002-0.692v-0.23l-0.021-6.785c-0.001-0.614-0.502-1.112-1.115-1.111
			l-6.371,0.016c-0.614,0.001-1.112,0.502-1.111,1.117l0.032,12.943c0.001,0.614,0.502,1.113,1.117,1.111l6.369-0.016h0.126
			c0.039,0,0.074-0.01,0.105-0.025c0.146-0.032,0.281-0.094,0.402-0.179C155.46,140.51,155.729,140.092,155.729,140.092z
			 M147.803,127.458h7.585v4.804v0.379v0.692v0.231v0.692v0.231v0.692v0.23v0.692v0.231v0.692v0.042h-7.585V127.458z
			 M148.411,125.941h6.368c0.337,0,0.609,0.272,0.609,0.608v0.403H147.8v-0.403C147.803,126.214,148.076,125.941,148.411,125.941z
			 M154.779,140.101h-6.368c-0.335,0-0.608-0.273-0.608-0.608v-1.92h7.585v0.376v0.231v0.692v0.23v0.391
			c0,0.078-0.021,0.152-0.043,0.221c-0.021,0.044-0.037,0.085-0.064,0.125C155.171,139.997,154.986,140.101,154.779,140.101z"/>
	</g>
	<text transform="matrix(1 0 0 1 147.1519 144.2852)" fill="#A9A9AA" font-family="'MyriadPro-Regular'" font-size="3">Android</text>
</g>
<g>
	<g>
		<path fill="#A9A9AA" d="M172.04,137.826c-0.558,0-1.011,0.454-1.011,1.012s0.453,1.011,1.011,1.011s1.011-0.454,1.011-1.011
			C173.051,138.279,172.598,137.826,172.04,137.826z M172.04,139.343c-0.278,0-0.506-0.227-0.506-0.505
			c0-0.279,0.228-0.506,0.506-0.506s0.506,0.227,0.506,0.506C172.546,139.116,172.318,139.343,172.04,139.343z"/>
		<path fill="#A9A9AA" d="M171.029,126.7h1.011c0.14,0,0.253-0.113,0.253-0.252c0-0.14-0.113-0.253-0.253-0.253h-1.011
			c-0.141,0-0.254,0.113-0.254,0.253C170.775,126.587,170.889,126.7,171.029,126.7z"/>
		<path fill="#A9A9AA" d="M172.799,126.7h0.252c0.141,0,0.254-0.113,0.254-0.252c0-0.14-0.113-0.253-0.254-0.253h-0.252
			c-0.14,0-0.253,0.113-0.253,0.253C172.546,126.587,172.659,126.7,172.799,126.7z"/>
		<path fill="#A9A9AA" d="M176.174,140.092c0-0.001,0-0.001,0-0.002c0.031-0.048,0.059-0.099,0.082-0.151
			c0.006-0.013,0.012-0.026,0.018-0.039c0.004-0.012,0.017-0.022,0.021-0.035c0.003-0.01,0.002-0.019,0.004-0.029
			c0.038-0.111,0.063-0.229,0.063-0.354v-0.391v-0.231l-0.002-0.692l-0.002-0.231v-0.692l-0.002-0.23l-0.002-0.692v-0.231
			l-0.002-0.692l-0.002-0.231l-0.002-0.692v-0.23l-0.004-0.692v-0.23l-0.019-6.785c0-0.614-0.505-1.112-1.115-1.111l-6.37,0.016
			c-0.609,0.001-1.107,0.502-1.107,1.117l0.031,12.943c0.002,0.614,0.502,1.113,1.114,1.111l6.369-0.016h0.126
			c0.039,0,0.07-0.01,0.104-0.025c0.146-0.032,0.281-0.094,0.401-0.179C175.904,140.51,176.174,140.092,176.174,140.092z
			 M168.247,127.458h7.586v4.804v0.379v0.692v0.231v0.692v0.231v0.692v0.23v0.692v0.231v0.692v0.042h-7.586V127.458z
			 M168.855,125.941h6.369c0.336,0,0.604,0.272,0.604,0.608v0.403h-7.586v-0.403C168.247,126.214,168.52,125.941,168.855,125.941z
			 M175.225,140.101h-6.369c-0.336,0-0.604-0.273-0.604-0.608v-1.92h7.586v0.376v0.231v0.692v0.23v0.391
			c0,0.078-0.021,0.152-0.043,0.221c-0.021,0.044-0.038,0.085-0.063,0.125C175.615,139.997,175.432,140.101,175.225,140.101z"/>
	</g>
	<text transform="matrix(1 0 0 1 167.5967 144.2852)" fill="#A9A9AA" font-family="'MyriadPro-Regular'" font-size="3">HTML5</text>
</g>
<g>
	<g>
		<line fill="none" stroke="#E3E4E6" stroke-width="0.03" stroke-miterlimit="10" x1="28.865" y1="17.163" x2="38.991" y2="6.588"/>
		<line fill="none" stroke="#E3E4E6" stroke-width="0.03" stroke-miterlimit="10" x1="39.215" y1="16.939" x2="28.64" y2="6.813"/>
	</g>
	<g>
		<line fill="none" stroke="#E3E4E6" stroke-width="0.03" stroke-miterlimit="10" x1="34.086" y1="19.194" x2="33.769" y2="4.557"/>
		
			<line fill="none" stroke="#E3E4E6" stroke-width="0.03" stroke-miterlimit="10" x1="41.247" y1="11.717" x2="26.608" y2="12.035"/>
	</g>
	<circle fill="#F7911E" cx="33.66" cy="11.5" r="2.664"/>
</g>
<g>
	
		<image overflow="visible" opacity="0.06" enable-background="new    " width="92" height="88" xlink:href="1272D322.png"  transform="matrix(0.2243 0 0 0.2345 45.7837 1.249)">
	</image>
	<g>
		<rect x="48.785" y="4.25" fill="#FFFFFF" width="14.5" height="14.5"/>
	</g>
</g>
<g>
	<line fill="none" stroke="#E3E4E6" stroke-width="0.03" stroke-miterlimit="10" x1="48.785" y1="18.75" x2="63.285" y2="4.25"/>
	<line fill="none" stroke="#E3E4E6" stroke-width="0.03" stroke-miterlimit="10" x1="63.285" y1="18.75" x2="48.785" y2="4.25"/>
	<circle fill="#F7911E" cx="56.035" cy="11.5" r="2.664"/>
</g>
<g>
	<circle cx="192.039" cy="8.876" r="0.5"/>
	<circle cx="194.082" cy="8.876" r="0.5"/>
	<circle cx="196.125" cy="8.876" r="0.5"/>
</g>
<g>
	<path fill="#A9A9AA" d="M128.84,32.798l0.987,11.094l4.428,1.251l4.461-1.251l0.989-11.092L128.84,32.798L128.84,32.798z
		 M137.561,36.419h-5.202l0.116,1.397h4.969l-0.387,4.199l-2.769,0.764v0.006h-0.031l-2.794-0.77l-0.169-2.146h1.351l0.101,1.078
		l1.51,0.412l1.522-0.412l0.169-1.758h-4.723l-0.363-4.117h6.821L137.561,36.419z"/>
	<g>
		<path fill="#A9A9AA" d="M129.903,30.113h0.729v0.769h0.666v-0.769h0.73v2.182h-0.73v-0.781h-0.666v0.781h-0.729V30.113z"/>
		<path fill="#A9A9AA" d="M132.835,30.731h-0.643v-0.618h2.013v0.618h-0.643v1.563h-0.726v-1.563H132.835z"/>
		<path fill="#A9A9AA" d="M134.371,30.113h0.759l0.468,0.768l0.467-0.768h0.761v2.182H136.1v-1.082l-0.504,0.779h-0.012
			l-0.504-0.779v1.082h-0.716v-2.182H134.371z"/>
		<path fill="#A9A9AA" d="M137.075,30.113h0.731v1.558h1.024v0.624h-1.755L137.075,30.113L137.075,30.113z"/>
	</g>
</g>
<g>
	<g enable-background="new    ">
		<path fill="#A9A9AA" d="M88.418,44.203v0.418h0.379v0.201h-0.379v0.785c0,0.18,0.051,0.282,0.198,0.282
			c0.069,0,0.121-0.009,0.153-0.018l0.012,0.198c-0.051,0.021-0.132,0.036-0.234,0.036c-0.124,0-0.223-0.039-0.286-0.111
			c-0.075-0.078-0.102-0.208-0.102-0.379v-0.794h-0.226v-0.201h0.226v-0.349L88.418,44.203z"/>
		<path fill="#A9A9AA" d="M89.388,44.212c0.003,0.09-0.063,0.162-0.168,0.162c-0.093,0-0.159-0.072-0.159-0.162
			c0-0.094,0.069-0.166,0.165-0.166C89.324,44.046,89.388,44.119,89.388,44.212z M89.093,46.076v-1.455h0.265v1.455H89.093z"/>
		<path fill="#A9A9AA" d="M90.113,44.203v0.418h0.379v0.201h-0.379v0.785c0,0.18,0.051,0.282,0.198,0.282
			c0.069,0,0.121-0.009,0.153-0.018l0.012,0.198c-0.051,0.021-0.132,0.036-0.234,0.036c-0.124,0-0.223-0.039-0.286-0.111
			c-0.075-0.078-0.102-0.208-0.102-0.379v-0.794h-0.226v-0.201h0.226v-0.349L90.113,44.203z"/>
		<path fill="#A9A9AA" d="M91.593,46.076l-0.021-0.184h-0.009c-0.082,0.114-0.238,0.217-0.445,0.217
			c-0.295,0-0.445-0.208-0.445-0.418c0-0.352,0.313-0.544,0.875-0.541v-0.03c0-0.12-0.033-0.337-0.331-0.337
			c-0.135,0-0.277,0.043-0.379,0.108l-0.06-0.174c0.12-0.078,0.294-0.13,0.478-0.13c0.445,0,0.553,0.304,0.553,0.596v0.544
			c0,0.126,0.006,0.249,0.024,0.349H91.593z M91.554,45.333c-0.289-0.006-0.616,0.045-0.616,0.327c0,0.172,0.114,0.253,0.25,0.253
			c0.189,0,0.31-0.12,0.352-0.244c0.009-0.026,0.015-0.057,0.015-0.084V45.333z"/>
		<path fill="#A9A9AA" d="M92.233,45.014c0-0.149-0.003-0.273-0.012-0.394h0.234l0.015,0.24h0.006
			c0.072-0.138,0.241-0.273,0.481-0.273c0.202,0,0.514,0.12,0.514,0.619v0.869h-0.265v-0.839c0-0.234-0.087-0.43-0.336-0.43
			c-0.175,0-0.31,0.123-0.355,0.271c-0.012,0.033-0.018,0.078-0.018,0.123v0.875h-0.265V45.014z"/>
		<path fill="#A9A9AA" d="M94.193,44.212c0.003,0.09-0.063,0.162-0.168,0.162c-0.093,0-0.159-0.072-0.159-0.162
			c0-0.094,0.069-0.166,0.165-0.166C94.13,44.046,94.193,44.119,94.193,44.212z M93.898,46.076v-1.455h0.265v1.455H93.898z"/>
		<path fill="#A9A9AA" d="M95.818,45.679c0,0.15,0.003,0.282,0.012,0.396h-0.234l-0.015-0.237h-0.006
			c-0.069,0.117-0.223,0.271-0.481,0.271c-0.229,0-0.502-0.126-0.502-0.638v-0.851h0.265v0.806c0,0.276,0.084,0.463,0.325,0.463
			c0.177,0,0.3-0.123,0.349-0.24c0.015-0.039,0.024-0.087,0.024-0.136v-0.893h0.265V45.679z"/>
		<path fill="#A9A9AA" d="M96.253,45.014c0-0.149-0.003-0.273-0.012-0.394h0.231l0.012,0.234h0.009
			c0.081-0.138,0.216-0.268,0.457-0.268c0.198,0,0.349,0.12,0.412,0.292h0.006c0.045-0.081,0.103-0.145,0.163-0.189
			c0.087-0.066,0.183-0.103,0.322-0.103c0.192,0,0.478,0.127,0.478,0.632v0.856h-0.258v-0.823c0-0.28-0.102-0.448-0.315-0.448
			c-0.15,0-0.268,0.111-0.313,0.24c-0.012,0.036-0.021,0.084-0.021,0.133v0.898h-0.258v-0.872c0-0.231-0.103-0.399-0.304-0.399
			c-0.166,0-0.286,0.132-0.328,0.265c-0.015,0.039-0.021,0.084-0.021,0.129v0.878h-0.259V45.014z"/>
	</g>
	<g>
		<g>
			<path fill="#A9A9AA" d="M97.754,33.688l-1.492-1.433c-0.373-0.366-0.896-0.224-0.896-0.224c-1.8,0.356-3.753,2.168-3.753,2.168
				c-2.544,2.237-3.531,4.584-3.531,4.584c-0.483,1.031,0,1.513,0,1.513l1.425,1.489c1.358,1.82,5.506-2.281,5.506-2.281
				c2.96-2.83,3.112-4.671,3.112-4.671C98.28,33.936,97.754,33.688,97.754,33.688z M89.859,40.011c0,0,1.108-4.769,6.071-6.104
				C95.931,33.908,95.156,38.897,89.859,40.011z"/>
		</g>
		<g>
			<path fill="#A9A9AA" d="M87.568,34.776c0,0,0.155,1.843,3.115,4.67c0,0,4.144,4.104,5.505,2.283l1.424-1.493
				c0,0,0.482-0.479,0-1.513c0,0-0.988-2.347-3.533-4.585c0,0-1.953-1.812-3.75-2.166c0,0-0.528-0.145-0.898,0.222l-1.49,1.434
				C87.941,33.629,87.415,33.876,87.568,34.776z M89.762,33.847c4.965,1.337,6.075,6.106,6.075,6.106
				C90.263,39.033,89.762,33.847,89.762,33.847z"/>
		</g>
	</g>
</g>
<g>
	<g>
		<g>
			<g>
				<g>
					<path fill="#A9A9AA" d="M71.613,31.263l0.021-0.072c-0.013,0,0.098-0.17,0.085-0.17c-0.818,0.789-0.746,1.85-0.352,2.609
						c0.273,0.534,0.777,1.029,1.373,1.296c0.278,0.127,0.701,0.24,1.145,0.232c0.951-0.021,1.617-0.47,1.994-1.204l0.022-0.057
						c-0.332,0.334-0.873,0.568-1.3,0.612C72.835,34.691,71.022,33.109,71.613,31.263z"/>
				</g>
				<g>
					<path fill="#A9A9AA" d="M73.954,31.535c0.234,0.375,0.681,0.704,1.375,0.557c0.175-0.038,0.573-0.339,0.644-0.496
						c-0.598,0.405-0.965,0.269-1.145,0.219c-0.035-0.011-0.126-0.054-0.21-0.102c-0.185-0.111-0.275-0.164-0.416-0.371
						c-0.082-0.114-0.159-0.3-0.188-0.402c-0.043-0.175-0.029-0.437,0.051-0.667c-0.267,0.241-0.311,0.704-0.219,1.014
						C73.858,31.327,73.92,31.479,73.954,31.535z"/>
				</g>
				<g>
					<path fill="#A9A9AA" d="M74.146,33.517c0.933,0.125,1.627-0.268,1.872-0.878c-0.276,0.291-0.74,0.5-1.182,0.497
						c-0.996-0.006-2.108-0.898-1.984-2.136c0.01-0.106,0.054-0.273,0.167-0.491c-0.329,0.416-0.532,0.758-0.473,1.332
						C72.618,32.625,73.364,33.415,74.146,33.517z"/>
				</g>
			</g>
			<g>
				<g>
					<path fill="#A9A9AA" d="M79.901,35.823l-1.109,1.532l-0.099-0.4h-0.729c0,0,0.072,0.366,0.129,0.555
						c0.053,0.184,0.144,0.37,0.149,0.554c0.004,0.209-0.106,0.603-0.106,0.603l0.708-0.002c0,0,0.075-0.378,0.151-0.556
						c0.026-0.068,0.087-0.123,0.123-0.177c0.119-0.154,1.557-2.106,1.557-2.106L79.901,35.823z"/>
				</g>
				<g>
					<path fill="#A9A9AA" d="M78.437,36.235c-0.155-0.092-0.525-0.055-0.843-0.055h-0.49c-0.307,0-0.488-0.02-0.517,0.101
						c-0.098,0.365-0.502,2.382-0.502,2.382h0.65l0.427-1.859h0.349c0.408,0,1.155-0.01,1.155-0.01S78.575,36.32,78.437,36.235z"/>
				</g>
				<g>
					<path fill="#A9A9AA" d="M75.938,36.434c-0.135-0.191-0.418-0.259-0.601-0.277c-0.494-0.052-0.902,0.081-1.128,0.25
						c-0.07,0.051-0.127,0.092-0.174,0.148c-0.021,0.022-0.04,0.046-0.056,0.07c-0.017,0.02-0.032,0.033-0.047,0.057
						c-0.02,0.03-0.042,0.091-0.068,0.145c-0.021,0.042-0.04,0.093-0.057,0.128c-0.136,0.34-0.276,0.975-0.151,1.305
						c0.019,0.052,0.059,0.111,0.074,0.128c0.018,0.023,0.032,0.055,0.051,0.073c0.069,0.07,0.171,0.124,0.278,0.152
						c0.543,0.127,1.627,0.074,1.627,0.074l0.134-0.592c0,0-0.766,0.035-1.136-0.013c-0.052-0.002-0.208-0.012-0.285-0.081
						c-0.067-0.06-0.148-0.198-0.092-0.292c0.043-0.067,0.21-0.048,0.353-0.052c0.449-0.015,1.277,0,1.277,0
						s0.162-0.704,0.076-1.002C75.992,36.584,75.976,36.482,75.938,36.434z M75.399,37.137l-0.967-0.006
						c0,0-0.014-0.421,0.556-0.401c0.202,0.007,0.271,0.033,0.345,0.15C75.418,37.02,75.399,37.137,75.399,37.137z"/>
				</g>
				<g>
					<path fill="#A9A9AA" d="M73.022,36.18l-0.451,1.88c0,0-0.249,0.002-0.325,0c-0.238-0.002-0.316-0.012-0.374-0.126
						c-0.061-0.115-0.005-0.266,0.022-0.425c0.077-0.442,0.264-1.334,0.264-1.334l-0.657,0.005c0,0-0.123,0.572-0.182,0.852
						c-0.084,0.396-0.262,0.978-0.075,1.331c0.192,0.361,0.648,0.3,1.153,0.3h0.729c0.179-0.817,0.532-2.487,0.532-2.487
						L73.022,36.18z"/>
				</g>
				<g>
					<path fill="#A9A9AA" d="M70.943,36.456c-0.04-0.281-0.225-0.586-0.423-0.712c-0.008-0.005-0.045-0.037-0.055-0.041
						c-0.149-0.086-0.386-0.159-0.555-0.177c-0.853-0.088-1.36,0.292-1.651,0.802c-0.116,0.201-0.195,0.42-0.25,0.651
						c-0.066,0.258-0.113,0.571-0.074,0.854c0.021,0.168,0.116,0.413,0.25,0.553c0.333,0.345,0.983,0.299,1.679,0.299
						c0.217,0,0.727-0.003,0.881-0.006c0.05-0.001,0.193-0.589,0.182-0.604c-0.018-0.015-0.186,0.005-0.378-0.011
						C70.738,37.56,71.014,36.981,70.943,36.456z M70.063,37.382c-0.064,0.227-0.125,0.451-0.201,0.652
						c-0.506-0.002-0.978,0.067-1.127-0.251c-0.087-0.176-0.047-0.421,0-0.649c0.061-0.309,0.123-0.535,0.3-0.727
						c0.138-0.148,0.485-0.331,0.853-0.199c0.124,0.043,0.311,0.248,0.325,0.476C70.226,36.893,70.131,37.149,70.063,37.382z"/>
				</g>
				<g>
					<path fill="#A9A9AA" d="M67.029,36.78h0.703c0.047-0.189,0.089-0.404,0.13-0.6c-0.246,0-0.457-0.004-0.683-0.004
						C67.128,36.362,67.084,36.57,67.029,36.78z"/>
				</g>
				<g>
					<path fill="#A9A9AA" d="M66.728,38.11c-0.104,0.483-0.119,0.992-0.652,0.928c-0.053,0.187-0.117,0.438-0.175,0.647
						c0.221,0.002,0.423,0.022,0.602,0.001c0.107-0.014,0.308-0.059,0.35-0.098c0.02-0.02,0.033-0.013,0.053-0.026
						c0.231-0.183,0.284-0.434,0.375-0.779c0.134-0.55,0.313-1.34,0.4-1.833h-0.677C66.97,37.067,66.787,37.828,66.728,38.11z"/>
				</g>
			</g>
		</g>
	</g>
</g>
<g>
	<polygon fill="#E44D26" points="18.008,190.984 16.873,178.232 29.36,178.232 28.228,190.984 23.117,192.406 	"/>
	<polygon fill="#F16529" points="23.117,191.318 27.257,190.172 28.228,179.277 23.117,179.277 	"/>
	<polygon fill="#EBEBEB" points="23.117,184.004 21.054,184.004 20.903,182.406 23.117,182.406 23.117,180.842 23.117,180.842 
		19.196,180.842 19.238,181.258 19.62,185.568 23.117,185.568 	"/>
	<polygon fill="#EBEBEB" points="23.117,188.068 23.117,188.068 21.368,187.604 21.259,186.354 20.412,186.354 19.688,186.354 
		19.906,188.807 23.117,189.7 23.117,189.693 	"/>
	<path d="M18.035,174.768h0.793v0.787h0.737v-0.787h0.792v2.379h-0.792v-0.793h-0.737v0.793h-0.793V174.768L18.035,174.768z"/>
	<path d="M21.396,175.555H20.7v-0.787h2.199v0.787h-0.711v1.592h-0.793L21.396,175.555L21.396,175.555z"/>
	<path d="M23.24,174.768h0.833l0.506,0.834l0.505-0.834h0.833v2.379h-0.792v-1.183l-0.546,0.847h-0.013l-0.548-0.847v1.183H23.24
		V174.768z"/>
	<path d="M26.314,174.768h0.792v1.592h1.121v0.787h-1.913V174.768z"/>
	<polygon fill="#FFFFFF" points="23.117,184.004 23.117,185.568 25.044,185.568 24.853,187.598 23.117,188.068 23.117,189.693 
		26.327,188.807 26.341,188.546 26.711,184.428 26.751,184.004 26.327,184.004 	"/>
	<polygon fill="#FFFFFF" points="23.117,180.842 23.117,181.811 23.117,182.398 23.117,182.406 26.888,182.406 26.888,182.406 
		26.888,182.406 26.93,182.057 26.997,181.258 27.038,180.842 	"/>
</g>
<g>
	<g>
		<path fill="#991962" d="M72.412,193.063c-0.412,0-0.746-0.334-0.746-0.746v-14.08c0-0.409,0.334-0.743,0.746-0.743h9.841
			c0.412,0,0.746,0.334,0.746,0.743v14.08c0,0.412-0.334,0.746-0.746,0.746H72.412z"/>
		<circle fill="#FFFFFF" cx="77.332" cy="191.616" r="0.603"/>
	</g>
	<g>
		<path fill="#68194E" d="M58.188,190.898c0,0.263-0.213,0.477-0.476,0.477h-3.244c-0.263,0-0.476-0.214-0.476-0.477v-6.28
			c0-0.263,0.213-0.478,0.476-0.478h3.244c0.263,0,0.476,0.215,0.476,0.478V190.898z"/>
		
			<line fill="none" stroke="#FFFFFF" stroke-width="0.25" stroke-miterlimit="10" x1="58.188" y1="185.059" x2="53.993" y2="185.059"/>
		
			<line fill="none" stroke="#FFFFFF" stroke-width="0.25" stroke-miterlimit="10" x1="58.188" y1="189.754" x2="53.993" y2="189.754"/>
		<circle fill="#FFFFFF" cx="56.09" cy="190.527" r="0.385"/>
		<g>
			<path fill="#FFFFFF" d="M55.608,184.747h0.482c0.067,0,0.122-0.054,0.122-0.119c0-0.067-0.055-0.121-0.122-0.121h-0.482
				c-0.065,0-0.119,0.054-0.119,0.121C55.489,184.693,55.542,184.747,55.608,184.747z"/>
			<path fill="#FFFFFF" d="M56.453,184.747h0.12c0.066,0,0.119-0.054,0.119-0.119c0-0.067-0.053-0.121-0.119-0.121h-0.12
				c-0.067,0-0.122,0.054-0.122,0.121C56.331,184.693,56.386,184.747,56.453,184.747z"/>
		</g>
	</g>
	<path fill="#BF1D72" d="M68.44,188.247h-2.001v-1.19h4.226v-9.627c0-0.412,0.334-0.746,0.746-0.746h4.347v-2.437
		c0-0.498-0.403-0.901-0.902-0.901H56.068c-0.499,0-0.903,0.403-0.903,0.901v9.259h2.854c0.45,0,0.815,0.365,0.815,0.814v2.734
		h5.649v1.188h-2.001c-0.271,0-0.49,0.221-0.49,0.487c0,0.271,0.22,0.49,0.49,0.49h5.958c0.271,0,0.49-0.22,0.49-0.49
		C68.93,188.468,68.711,188.247,68.44,188.247z"/>
</g>
<g>
	<path fill="#00769D" d="M110.772,179.605h-0.904l2.465,6.963l1.379-3.94l-1.068-3.022h-0.955v-0.662h4.223v0.662h-0.988
		l2.463,6.965l0.887-2.527c1.162-3.242-0.953-4.253-0.953-4.979s0.586-1.312,1.311-1.312c0.039,0,0.078,0.002,0.115,0.006
		c-1.227-1.157-2.881-1.866-4.699-1.866c-2.377,0-4.471,1.211-5.699,3.051h2.426v0.662H110.772L110.772,179.605z"/>
	<path fill="#00769D" d="M107.2,182.736c0,2.621,1.473,4.896,3.637,6.05l-3.09-8.734C107.396,180.877,107.2,181.784,107.2,182.736z"
		/>
	<path fill="#00769D" d="M120.005,179.363c0.098,0.576,0.068,1.226-0.082,1.875h0.027l-0.104,0.297l0,0
		c-0.063,0.214-0.139,0.433-0.227,0.646l-2.355,6.601c2.158-1.151,3.627-3.427,3.627-6.044
		C120.892,181.512,120.569,180.359,120.005,179.363z"/>
	<path fill="#00769D" d="M111.935,189.251c0.666,0.216,1.375,0.332,2.111,0.332c0.703,0,1.381-0.104,2.02-0.304l-2.004-5.659
		L111.935,189.251z"/>
	<path fill="#00769D" d="M119.833,176.952c-1.547-1.546-3.602-2.396-5.787-2.396s-4.24,0.851-5.785,2.396
		c-1.545,1.545-2.396,3.6-2.396,5.784c0,2.186,0.852,4.24,2.396,5.785c1.545,1.547,3.6,2.396,5.785,2.396s4.24-0.853,5.787-2.396
		c1.545-1.545,2.395-3.603,2.395-5.785C122.228,180.552,121.376,178.497,119.833,176.952z M114.046,190.343
		c-4.193,0-7.605-3.411-7.605-7.604c0-4.191,3.412-7.604,7.605-7.604s7.605,3.412,7.605,7.604
		C121.651,186.932,118.239,190.343,114.046,190.343z"/>
</g>
<path fill="#F37B20" d="M161.607,179.134v11.591l-1.144,0.696l-1.142-0.7v-11.578l-2.952,1.818v9.912l4.094,2.506l4.129-2.523
	v-9.896L161.607,179.134z M160.468,173.029l-8.61,5.218v9.913l2.238,1.318v-9.914l6.375-3.879l6.381,3.873l0.026,0.014l-0.004,9.891
	l2.215-1.303v-9.913L160.468,173.029z"/>
<g>
	<path fill="#57A345" d="M202.686,178.725c0.654-0.654,1.711-0.654,2.363,0l0.156,0.155l2.012-2.013l-0.156-0.156
		c-1.146-1.148-2.756-1.549-4.227-1.204c-0.211-1.297-1.334-2.286-2.689-2.286c-1.504,0-2.725,1.221-2.725,2.729
		c0,1.3,0.908,2.388,2.121,2.661c-0.459,1.541-0.082,3.279,1.131,4.496l4.533,4.533l2.01-2.016l-4.533-4.533
		C202.033,180.441,202.031,179.381,202.686,178.725z"/>
	<path fill="#F68F34" d="M217.74,175.948c0-1.507-1.221-2.729-2.725-2.729c-1.377,0-2.52,1.023-2.699,2.354
		c-1.533-0.451-3.26-0.07-4.469,1.142l-4.533,4.534l2.01,2.013l4.531-4.531c0.656-0.653,1.711-0.652,2.359-0.004
		c0.652,0.651,0.652,1.713-0.002,2.365l-0.15,0.155l2.01,2.015l0.156-0.156c1.203-1.205,1.584-2.92,1.146-4.447
		C216.709,178.479,217.74,177.334,217.74,175.948z"/>
	<path fill="#E22A2A" d="M215.424,188.162c0.359-1.48-0.039-3.11-1.195-4.268l-4.523-4.537l-2.014,2.014l4.525,4.535
		c0.656,0.656,0.654,1.713,0.004,2.365c-0.652,0.648-1.711,0.648-2.365-0.002l-0.15-0.154l-2.012,2.015l0.154,0.153
		c1.223,1.226,2.979,1.601,4.523,1.124c0.25,1.247,1.352,2.185,2.67,2.185c1.504,0,2.725-1.221,2.725-2.729
		C217.766,189.486,216.748,188.348,215.424,188.162z"/>
	<path fill="#0E6FAC" d="M209.576,183.738l-4.527,4.535c-0.65,0.648-1.711,0.649-2.365-0.002c-0.648-0.655-0.648-1.713-0.002-2.367
		l0.156-0.154l-2.012-2.012l-0.154,0.152c-1.168,1.17-1.563,2.818-1.182,4.313c-1.201,0.282-2.096,1.362-2.096,2.653
		c0,1.51,1.221,2.729,2.725,2.729c1.295,0,2.379-0.901,2.656-2.114c1.486,0.367,3.123-0.024,4.285-1.188l4.521-4.535
		L209.576,183.738z"/>
</g>
<g>
	<path id="Drupal" fill="#5E52FF" d="M257.949,176.209c-1.174-0.729-2.283-1.016-3.391-1.744c-0.688-0.464-1.641-1.566-2.438-2.517
		c-0.154,1.522-0.619,2.143-1.149,2.584c-1.132,0.882-1.839,1.146-2.813,1.677c-0.82,0.421-5.271,3.068-5.271,8.766
		c0,5.693,4.807,9.892,10.146,9.892c5.338,0,9.968-3.866,9.968-9.716C263,179.299,258.656,176.65,257.949,176.209z M258.039,192.637
		c-0.111,0.108-1.131,0.815-2.324,0.926c-1.197,0.11-2.814,0.18-3.789-0.707c-0.154-0.151-0.113-0.373,0-0.461
		c0.109-0.09,0.199-0.153,0.332-0.153c0.135,0,0.109,0,0.178,0.045c0.443,0.354,1.107,0.639,2.523,0.639
		c1.42,0,2.418-0.396,2.859-0.729c0.197-0.152,0.287-0.021,0.311,0.066C258.15,192.348,258.193,192.48,258.039,192.637z
		 M254.201,190.775c0.242-0.221,0.643-0.573,1.02-0.729c0.377-0.153,0.574-0.134,0.93-0.134c0.354,0,0.732,0.021,0.996,0.199
		c0.27,0.178,0.422,0.572,0.508,0.791c0.094,0.225,0,0.354-0.176,0.443c-0.15,0.088-0.176,0.043-0.332-0.242
		c-0.15-0.287-0.287-0.574-1.063-0.574c-0.773,0-1.02,0.267-1.396,0.574c-0.375,0.311-0.51,0.418-0.643,0.242
		C253.914,191.175,253.957,190.997,254.201,190.775z M262.195,186.568c0,0.685-0.221,1.92-0.754,2.688
		c-0.529,0.772-0.861,1.063-1.484,1.021c-0.797-0.067-2.393-2.539-3.41-2.586c-1.283-0.043-4.074,2.675-6.27,2.675
		c-1.33,0-1.729-0.198-2.168-0.487c-0.666-0.463-0.998-1.169-0.979-2.141c0.024-1.723,1.64-3.334,3.681-3.354
		c2.59-0.021,4.387,2.56,5.69,2.537c1.106-0.021,3.235-2.185,4.274-2.185C261.885,184.736,262.195,185.882,262.195,186.568z"/>
</g>
<g>
	<g enable-background="new    ">
		<path fill="#A9A9AA" d="M148.852,42.984c0,0.159-0.121,0.288-0.311,0.288c-0.182,0-0.303-0.129-0.299-0.288
			c-0.004-0.166,0.117-0.291,0.303-0.291S148.848,42.818,148.852,42.984z M148.257,45.35v-1.851h0.575v1.851H148.257z"/>
		<path fill="#A9A9AA" d="M149.312,42.833c0.178-0.03,0.428-0.053,0.78-0.053c0.355,0,0.609,0.068,0.779,0.204
			c0.162,0.129,0.272,0.341,0.272,0.591c0,0.249-0.083,0.461-0.235,0.605c-0.196,0.185-0.488,0.269-0.828,0.269
			c-0.076,0-0.145-0.004-0.197-0.012v0.912h-0.571V42.833z M149.883,43.991c0.05,0.011,0.11,0.015,0.193,0.015
			c0.307,0,0.496-0.154,0.496-0.416c0-0.234-0.163-0.375-0.451-0.375c-0.117,0-0.196,0.012-0.238,0.023V43.991z"/>
		<path fill="#A9A9AA" d="M151.488,42.663h0.575v1.056h0.007c0.061-0.08,0.137-0.141,0.228-0.189
			c0.083-0.045,0.193-0.072,0.299-0.072c0.367,0,0.647,0.254,0.647,0.811v1.082h-0.575v-1.018c0-0.242-0.083-0.409-0.299-0.409
			c-0.151,0-0.246,0.099-0.288,0.2c-0.015,0.038-0.019,0.088-0.019,0.129v1.098h-0.575V42.663z"/>
		<path fill="#A9A9AA" d="M155.531,44.403c0,0.678-0.48,0.988-0.977,0.988c-0.541,0-0.957-0.356-0.957-0.954s0.393-0.98,0.987-0.98
			C155.152,43.457,155.531,43.848,155.531,44.403z M154.191,44.423c0,0.317,0.133,0.556,0.378,0.556
			c0.224,0,0.367-0.223,0.367-0.556c0-0.276-0.106-0.557-0.367-0.557C154.293,43.866,154.191,44.15,154.191,44.423z"/>
		<path fill="#A9A9AA" d="M155.883,44.09c0-0.231-0.008-0.428-0.015-0.591h0.499l0.027,0.254h0.011
			c0.075-0.117,0.265-0.296,0.571-0.296c0.379,0,0.662,0.25,0.662,0.795v1.098h-0.574v-1.025c0-0.238-0.084-0.401-0.292-0.401
			c-0.159,0-0.253,0.11-0.292,0.216c-0.015,0.034-0.021,0.091-0.021,0.144v1.067h-0.576V44.09z"/>
		<path fill="#A9A9AA" d="M158.541,44.607c0.019,0.239,0.254,0.353,0.521,0.353c0.197,0,0.356-0.026,0.512-0.076l0.075,0.39
			c-0.188,0.076-0.42,0.114-0.67,0.114c-0.628,0-0.987-0.363-0.987-0.942c0-0.47,0.291-0.988,0.935-0.988
			c0.598,0,0.825,0.466,0.825,0.924c0,0.099-0.012,0.186-0.02,0.227H158.541z M159.219,44.215c0-0.141-0.061-0.375-0.326-0.375
			c-0.242,0-0.34,0.22-0.355,0.375H159.219z"/>
	</g>
	<g>
		<g>
			<path fill="#A9A9AA" d="M153.792,31.251c-0.104-0.827,0.457-2.627,2.42-2.896C156.439,29.742,155.299,31.333,153.792,31.251z"/>
			<g>
				<path fill="#A9A9AA" d="M158.737,32.371c-0.644-0.623-1.202-1.222-2.379-1.283c-0.951-0.042-1.387,0.539-2.274,0.558
					c-0.828,0.019-0.765-0.642-2.482-0.456c-1.49,0.166-2.794,1.656-2.689,3.745c0.103,2.254,1.677,5.379,3.144,5.379
					c1.035-0.021,1.283-0.517,2.131-0.517c1.06,0,1.305,0.62,2.129,0.496c1.428-0.205,2.771-2.459,2.771-3.183
					c-0.784-0.416-1.567-1.121-1.672-2.297C157.332,33.631,158.055,32.886,158.737,32.371z"/>
			</g>
		</g>
	</g>
</g>
<g>
	<text transform="matrix(1 0 0 1 167.7324 45.3916)" fill="#A9A9AA" font-family="'MyriadPro-Regular'" font-size="3.3059">Android</text>
	<g id="XMLID_1_">
		<g>
			<path fill="#A9A9AA" d="M175.576,29.251c0-0.229-0.189-0.415-0.419-0.415c-0.231,0-0.416,0.186-0.416,0.415
				c0,0.233,0.185,0.421,0.416,0.421C175.387,29.672,175.576,29.486,175.576,29.251z M172.319,29.251
				c0-0.229-0.188-0.415-0.42-0.415c-0.229,0-0.419,0.186-0.419,0.415c0,0.233,0.188,0.421,0.419,0.421
				C172.133,29.672,172.319,29.486,172.319,29.251z M176.021,27.058l-0.699,1.008c1.166,0.508,1.952,1.497,1.952,2.629h-7.517
				c0-1.143,0.801-2.133,1.976-2.639l-0.688-1.001c-0.031-0.047-0.021-0.112,0.026-0.148c0.047-0.034,0.11-0.021,0.144,0.027
				l0.724,1.042c0.478-0.183,1.017-0.279,1.579-0.279c0.574,0,1.117,0.103,1.604,0.287l0.726-1.05
				c0.035-0.046,0.1-0.062,0.146-0.027C176.043,26.943,176.053,27.008,176.021,27.058z"/>
			<path fill="#A9A9AA" d="M179.26,36.089c-0.15,0.15-0.362,0.244-0.592,0.244c-0.462,0-0.839-0.373-0.839-0.837v-3.425
				c0-0.23,0.093-0.438,0.247-0.591c0.152-0.154,0.361-0.247,0.592-0.247c0.461,0,0.836,0.377,0.836,0.835v3.426
				C179.504,35.727,179.411,35.935,179.26,36.089z"/>
			<path fill="#A9A9AA" d="M168.992,36.089c-0.152,0.15-0.359,0.244-0.591,0.244c-0.462,0-0.837-0.373-0.837-0.837v-3.425
				c0-0.23,0.092-0.438,0.244-0.591c0.152-0.154,0.363-0.247,0.593-0.247c0.462,0,0.836,0.377,0.836,0.835v3.426
				C169.238,35.727,169.143,35.935,168.992,36.089z"/>
			<path fill="#A9A9AA" d="M176.346,38.083h-0.443v1.88c0,0.462-0.377,0.835-0.838,0.835c-0.463,0-0.838-0.373-0.838-0.835v-1.88
				h-1.377v1.88c0,0.462-0.375,0.835-0.836,0.835c-0.463,0-0.836-0.373-0.836-0.835v-1.88h-0.485c-0.933,0-0.933-0.417-0.933-0.929
				v-5.92h7.516v5.92C177.275,37.664,177.275,38.083,176.346,38.083z"/>
		</g>
	</g>
</g>
<g>
	<g>
		<g>
			<g>
				<g>
					<path fill="#A9A9AA" d="M109.524,34.504c-0.009-0.158-0.155-0.281-0.329-0.271l-1.282-0.07
						c-0.173,0.008-0.308,0.144-0.299,0.303l0.223,2.889c0.008,0.161,0.156,0.282,0.328,0.272l1.365-0.271
						c0.174-0.009,0.308-0.145,0.299-0.303L109.524,34.504z M109.236,36.728l-0.86,0.123c-0.141,0.007-0.257-0.092-0.264-0.218
						l-0.14-1.65c-0.006-0.125,0.101-0.237,0.24-0.245l0.828,0.035c0.138-0.008,0.256,0.09,0.262,0.218l0.17,1.494
						C109.48,36.617,109.375,36.723,109.236,36.728z"/>
				</g>
			</g>
			<g>
				<g>
					<path fill="#A9A9AA" d="M112.093,33.28c-0.015-0.299-0.295-0.529-0.622-0.512l-2.421-0.136
						c-0.328,0.017-0.581,0.273-0.566,0.577l0.42,5.453c0.016,0.296,0.295,0.529,0.623,0.512l2.58-0.506
						c0.327-0.017,0.581-0.276,0.565-0.573L112.093,33.28z M111.773,37.519l-1.992,0.249c-0.263,0.012-0.485-0.171-0.496-0.411
						l-0.261-3.11c-0.014-0.24,0.19-0.448,0.452-0.46l1.93,0.043c0.262-0.014,0.484,0.172,0.496,0.41l0.322,2.821
						C112.237,37.302,112.036,37.506,111.773,37.519z"/>
				</g>
			</g>
			<g>
				<g>
					<path fill="#A9A9AA" d="M114.862,32.003c-0.021-0.416-0.376-0.739-0.795-0.718l-3.086-0.199
						c-0.415,0.021-0.739,0.377-0.719,0.796l0.568,7.599c0.02,0.417,0.377,0.741,0.794,0.72l3.285-0.692
						c0.417-0.021,0.74-0.377,0.719-0.795L114.862,32.003z M114.485,37.909l-2.539,0.333c-0.335,0.017-0.619-0.239-0.638-0.577
						l-0.354-4.337c-0.016-0.336,0.241-0.619,0.577-0.637l2.463,0.072c0.332-0.016,0.618,0.24,0.637,0.576l0.43,3.931
						C115.074,37.608,114.817,37.891,114.485,37.909z"/>
				</g>
			</g>
			<g>
				<g>
					<path fill="#A9A9AA" d="M118.119,31.271c-0.027-0.506-0.458-0.898-0.963-0.872l-3.927-0.233
						c-0.505,0.027-0.897,0.457-0.872,0.966l0.692,9.225c0.026,0.504,0.457,0.899,0.965,0.873l4.167-0.849
						c0.51-0.027,0.898-0.459,0.872-0.965L118.119,31.271z M117.479,38.449l-3.081,0.403c-0.407,0.021-0.752-0.291-0.771-0.695
						l-0.429-5.265c-0.021-0.407,0.29-0.75,0.694-0.771l2.989,0.089c0.407-0.021,0.753,0.29,0.773,0.696l0.522,4.775
						C118.196,38.085,117.886,38.429,117.479,38.449z"/>
				</g>
			</g>
		</g>
	</g>
	<g enable-background="new    ">
		<path fill="#A9A9AA" d="M106.492,44.043c0.148-0.025,0.355-0.044,0.648-0.044c0.296,0,0.507,0.056,0.648,0.169
			c0.135,0.107,0.227,0.283,0.227,0.491c0,0.208-0.069,0.384-0.195,0.504c-0.164,0.154-0.406,0.223-0.689,0.223
			c-0.063,0-0.12-0.003-0.164-0.009v0.758h-0.475V44.043z M106.967,45.006c0.041,0.009,0.091,0.012,0.161,0.012
			c0.255,0,0.412-0.129,0.412-0.346c0-0.195-0.135-0.312-0.375-0.312c-0.097,0-0.163,0.009-0.198,0.019V45.006z"/>
		<path fill="#A9A9AA" d="M108.301,43.902h0.478v0.877h0.006c0.05-0.065,0.113-0.117,0.188-0.157c0.069-0.038,0.161-0.06,0.249-0.06
			c0.305,0,0.538,0.21,0.538,0.674v0.899h-0.479v-0.846c0-0.202-0.069-0.339-0.248-0.339c-0.126,0-0.205,0.082-0.239,0.167
			c-0.013,0.031-0.016,0.071-0.016,0.106v0.913h-0.478V43.902z"/>
		<path fill="#A9A9AA" d="M111.66,45.348c0,0.563-0.399,0.822-0.812,0.822c-0.45,0-0.796-0.295-0.796-0.793
			c0-0.497,0.327-0.815,0.821-0.815C111.345,44.562,111.66,44.886,111.66,45.348z M110.546,45.364c0,0.264,0.11,0.462,0.314,0.462
			c0.186,0,0.305-0.185,0.305-0.462c0-0.23-0.088-0.463-0.305-0.463C110.631,44.901,110.546,45.138,110.546,45.364z"/>
		<path fill="#A9A9AA" d="M111.952,45.087c0-0.192-0.007-0.355-0.013-0.491h0.416l0.022,0.211h0.009
			c0.063-0.097,0.22-0.246,0.475-0.246c0.314,0,0.55,0.208,0.55,0.66v0.913h-0.479v-0.853c0-0.198-0.069-0.333-0.242-0.333
			c-0.132,0-0.21,0.091-0.242,0.179c-0.012,0.028-0.019,0.076-0.019,0.12v0.887h-0.478V45.087z"/>
		<path fill="#A9A9AA" d="M114.16,45.519c0.016,0.199,0.211,0.292,0.434,0.292c0.164,0,0.296-0.022,0.425-0.063l0.063,0.324
			c-0.157,0.063-0.349,0.095-0.557,0.095c-0.522,0-0.821-0.303-0.821-0.784c0-0.389,0.242-0.821,0.777-0.821
			c0.497,0,0.686,0.388,0.686,0.768c0,0.082-0.01,0.154-0.016,0.189H114.16z M114.723,45.192c0-0.117-0.051-0.312-0.271-0.312
			c-0.201,0-0.283,0.182-0.295,0.312H114.723z"/>
		<path fill="#A9A9AA" d="M116.919,44.597c-0.007,0.097-0.013,0.226-0.013,0.456v0.858c0,0.296-0.06,0.539-0.233,0.693
			c-0.17,0.145-0.4,0.188-0.626,0.188c-0.201,0-0.415-0.041-0.553-0.12l0.094-0.362c0.097,0.057,0.268,0.116,0.447,0.116
			c0.227,0,0.399-0.123,0.399-0.406v-0.1h-0.006c-0.091,0.129-0.239,0.202-0.416,0.202c-0.38,0-0.651-0.309-0.651-0.752
			c0-0.494,0.321-0.809,0.699-0.809c0.21,0,0.343,0.091,0.421,0.217h0.006l0.016-0.182H116.919z M116.428,45.222
			c0-0.03-0.003-0.062-0.009-0.088c-0.035-0.125-0.126-0.21-0.258-0.21c-0.173,0-0.315,0.158-0.315,0.438
			c0,0.229,0.113,0.409,0.315,0.409c0.123,0,0.22-0.082,0.251-0.195c0.013-0.035,0.016-0.085,0.016-0.126V45.222z"/>
		<path fill="#A9A9AA" d="M118.161,46.135l-0.028-0.154h-0.01c-0.101,0.123-0.258,0.189-0.44,0.189
			c-0.312,0-0.497-0.227-0.497-0.472c0-0.4,0.358-0.592,0.903-0.588v-0.022c0-0.082-0.044-0.198-0.28-0.198
			c-0.157,0-0.324,0.053-0.425,0.117l-0.088-0.309c0.107-0.06,0.318-0.135,0.598-0.135c0.513,0,0.676,0.302,0.676,0.664v0.536
			c0,0.147,0.006,0.289,0.022,0.374H118.161z M118.104,45.408c-0.251-0.003-0.447,0.057-0.447,0.242
			c0,0.123,0.082,0.182,0.189,0.182c0.119,0,0.217-0.078,0.249-0.176c0.006-0.024,0.009-0.053,0.009-0.082V45.408z"/>
		<path fill="#A9A9AA" d="M118.945,45.113c0-0.201-0.007-0.375-0.013-0.516h0.415l0.022,0.214h0.006
			c0.113-0.164,0.289-0.249,0.513-0.249c0.336,0,0.639,0.292,0.639,0.783c0,0.56-0.355,0.825-0.699,0.825
			c-0.186,0-0.33-0.076-0.399-0.177h-0.007v0.764h-0.478V45.113z M119.422,45.475c0,0.038,0.003,0.072,0.01,0.101
			c0.031,0.128,0.142,0.227,0.28,0.227c0.208,0,0.33-0.174,0.33-0.434c0-0.246-0.11-0.432-0.324-0.432
			c-0.135,0-0.255,0.102-0.286,0.242c-0.006,0.026-0.01,0.058-0.01,0.085V45.475z"/>
	</g>
</g>
<g>
	<g>
		<path fill="#A9A9AA" d="M50.862,28.733c0-0.408-0.248-0.921-1.294-0.921c-0.431,0-1.611,0-1.611,0l-0.453,2.115
			c0,0,0.867,0,1.675,0C50.487,29.926,50.862,29.307,50.862,28.733L50.862,28.733z"/>
		<path fill="#A9A9AA" d="M55.195,28.733c0-0.408-0.25-0.921-1.293-0.921c-0.429,0-1.606,0-1.606,0l-0.459,2.115
			c0,0,0.869,0,1.671,0C54.823,29.926,55.195,29.307,55.195,28.733L55.195,28.733z"/>
		<path fill="#A9A9AA" d="M50.278,31.914c0-0.407-0.249-0.918-1.293-0.918c-0.43,0-1.608,0-1.608,0l-0.458,2.111
			c0,0,0.872,0,1.679,0C49.905,33.107,50.278,32.488,50.278,31.914L50.278,31.914z"/>
		<path fill="#A9A9AA" d="M54.614,31.914c0-0.407-0.248-0.918-1.291-0.918c-0.434,0-1.612,0-1.612,0l-0.457,2.111
			c0,0,0.87,0,1.674,0C54.242,33.107,54.614,32.488,54.614,31.914L54.614,31.914z"/>
		<path fill="#A9A9AA" d="M59.149,30.623c0-0.406-0.249-0.919-1.292-0.919c-0.433,0-1.613,0-1.613,0l-0.457,2.114
			c0,0,0.87,0,1.676,0C58.776,31.818,59.149,31.199,59.149,30.623L59.149,30.623z"/>
		<path fill="#A9A9AA" d="M58.527,33.942c0-0.408-0.25-0.923-1.294-0.923c-0.429,0-1.609,0-1.609,0l-0.458,2.116
			c0,0,0.869,0,1.678,0C58.15,35.134,58.527,34.518,58.527,33.942L58.527,33.942z"/>
		<path fill="#A9A9AA" d="M53.992,35.23c0-0.406-0.247-0.921-1.293-0.921c-0.431,0-1.609,0-1.609,0l-0.458,2.114
			c0,0,0.872,0,1.679,0C53.62,36.426,53.992,35.806,53.992,35.23L53.992,35.23z"/>
	</g>
	<path fill="#A9A9AA" d="M50.25,40.598c-0.021,0.045-0.126,0.25-0.391,0.25c-0.307,0-0.426-0.254-0.426-0.444
		c0-0.313,0.21-0.593,0.52-0.593c0.333,0,0.413,0.248,0.42,0.293h0.491c0.029-0.183-0.116-0.744-0.893-0.744
		c-0.568,0-1.022,0.453-1.022,1.06c0,0.496,0.31,0.878,0.885,0.878c0.716,0,0.909-0.562,0.934-0.7H50.25L50.25,40.598z"/>
	<path fill="#A9A9AA" d="M46.485,40.734c0-0.028,0.007-0.083,0.032-0.196c0.025-0.114,0.372-1.71,0.372-1.71h-0.46l-0.382,1.761
		c-0.016,0.073-0.023,0.147-0.023,0.211c0,0.386,0.298,0.5,0.539,0.5c0.085,0,0.165-0.014,0.184-0.017
		c0.008-0.039,0.081-0.37,0.083-0.385c-0.01,0.001-0.061,0.005-0.119,0.005C46.539,40.903,46.485,40.83,46.485,40.734L46.485,40.734
		z"/>
	<polygon fill="#A9A9AA" points="53.023,39.365 52.381,39.365 51.557,40.108 51.834,38.823 51.372,38.823 50.844,41.26 
		51.308,41.26 51.436,40.668 51.721,40.441 52.116,41.26 52.631,41.26 52.072,40.164 53.023,39.365 	"/>
	<path fill="#A9A9AA" d="M43.923,40.434c0.051-0.171,0.484-1.653,0.484-1.653s0.562,0.04,0.875,0.063
		c0.635,0.046,0.766,0.409,0.75,0.624c-0.034,0.474-0.491,0.567-0.546,0.58c0.049,0.02,0.332,0.156,0.305,0.528
		c-0.029,0.404-0.426,0.716-1.005,0.675c0,0-0.208-0.015-0.264-0.019C44.038,41.198,43.801,40.846,43.923,40.434L43.923,40.434
		L43.923,40.434z M45.296,40.502c0.008-0.114-0.055-0.264-0.382-0.288l-0.424-0.031l-0.169,0.579l0.481,0.035
		C45.112,40.82,45.283,40.691,45.296,40.502L45.296,40.502L45.296,40.502z M45.523,39.534c0.008-0.119-0.074-0.227-0.295-0.242
		l-0.468-0.033l-0.142,0.483l0.488,0.035C45.37,39.795,45.512,39.678,45.523,39.534L45.523,39.534z"/>
	<path fill="#A9A9AA" d="M52.813,40.508c0.039-0.175,0.365-1.684,0.365-1.684s0.563,0,0.877,0c0.637,0,0.793,0.354,0.793,0.568
		c0,0.475-0.448,0.601-0.504,0.618c0.051,0.017,0.343,0.132,0.343,0.505c0,0.405-0.374,0.745-0.954,0.745c0,0-0.208,0-0.265,0
		C52.982,41.261,52.72,40.927,52.813,40.508L52.813,40.508L52.813,40.508z M54.187,40.478c0-0.115-0.074-0.26-0.402-0.26H53.36
		l-0.127,0.589h0.481C54.026,40.807,54.187,40.667,54.187,40.478L54.187,40.478L54.187,40.478z M54.344,39.496
		c0-0.119-0.09-0.221-0.312-0.221h-0.469l-0.106,0.492h0.489C54.21,39.767,54.344,39.64,54.344,39.496L54.344,39.496z"/>
	<path fill="#A9A9AA" d="M58.032,39.366c-0.491,0-0.824,0.291-0.938,0.836c-0.048,0.235-0.226,1.06-0.226,1.06h0.46
		c0,0,0.169-0.784,0.223-1.031c0.07-0.322,0.241-0.433,0.471-0.433c0.073,0,0.121,0.009,0.146,0.013
		c0.013-0.066,0.077-0.357,0.092-0.429C58.21,39.376,58.131,39.366,58.032,39.366L58.032,39.366z"/>
	<path fill="#A9A9AA" d="M59.599,41.987l1.544-2.621h-0.497L59.936,40.6l-0.167-1.235c0,0-0.252,0-0.531,0
		c-0.609,0-0.924,0.279-1.037,0.812c-0.057,0.265-0.234,1.085-0.234,1.085h0.46c0,0,0.168-0.778,0.236-1.092
		c0.064-0.305,0.291-0.399,0.535-0.347l0.098-0.448c0.071,0.425,0.291,1.783,0.291,1.783l-0.482,0.829H59.599L59.599,41.987z"/>
	<path fill="#A9A9AA" d="M47.813,40.453c0.102-0.015,0.399-0.06,0.438-0.066c-0.007,0.032-0.019,0.082-0.028,0.119
		c-0.054,0.229-0.287,0.376-0.544,0.376c-0.164,0-0.261-0.088-0.261-0.194C47.419,40.603,47.499,40.5,47.813,40.453L47.813,40.453
		L47.813,40.453z M47.642,39.959c0.011-0.018,0.129-0.201,0.424-0.201c0.184,0,0.277,0.067,0.277,0.148
		c0,0.115-0.185,0.145-0.504,0.19c-0.55,0.079-0.898,0.25-0.898,0.646c0,0.282,0.234,0.556,0.649,0.556
		c0.346,0,0.526-0.208,0.542-0.224c0.001,0.05,0.008,0.125,0.013,0.185c0.039,0,0.357,0,0.477,0
		c-0.018-0.082-0.051-0.239,0.006-0.491c0.03-0.133,0.114-0.516,0.157-0.727c0.081-0.398-0.138-0.681-0.7-0.681
		c-0.721,0-0.928,0.519-0.962,0.598H47.642L47.642,39.959z"/>
	<path fill="#A9A9AA" d="M56.19,40.693c-0.016,0.037-0.128,0.193-0.378,0.193c-0.36,0-0.442-0.305-0.434-0.389
		c0.192,0,1.303,0,1.403,0c0.008-0.035,0.04-0.159,0.04-0.288c0-0.443-0.301-0.85-0.908-0.85c-0.555,0-1,0.467-1,1.021
		c0,0.536,0.322,0.917,0.892,0.917c0.704,0,0.893-0.552,0.911-0.604C56.59,40.693,56.19,40.693,56.19,40.693L56.19,40.693
		L56.19,40.693z M55.917,39.78c0.311,0,0.429,0.189,0.417,0.341c-0.179,0-0.708,0-0.887,0C55.47,40.024,55.618,39.78,55.917,39.78
		L55.917,39.78z"/>
</g>
<g>
	<text transform="matrix(1 0 0 1 28.0625 46.0757)" fill="#A9A9AA" font-family="'MyriadPro-Regular'" font-size="3">Windows</text>
	<g>
		<path fill="#A9A9AA" d="M28.893,32.082l-0.008-3.358l4.134-0.562v3.919H28.893z M33.707,28.061l5.511-0.801v4.822h-5.511V28.061z
			 M39.218,32.769l-0.002,4.821l-5.511-0.774v-4.046H39.218z M33.019,36.728l-4.128-0.566l-0.003-3.393h4.131V36.728L33.019,36.728z
			"/>
	</g>
</g>
<g>
	<defs>
		<path id="XMLID_2_" d="M99.436,12.27c0,3.73-3.023,6.753-6.753,6.753c-3.73,0-6.753-3.023-6.753-6.753
			c0-2.56,1.424-4.786,3.522-5.932c0.96-0.523,2.061-0.821,3.231-0.821C96.413,5.517,99.436,8.54,99.436,12.27z"/>
	</defs>
	<use xlink:href="#XMLID_2_"  overflow="visible" fill="#F28300"/>
	<clipPath id="XMLID_4_">
		<use xlink:href="#XMLID_2_"  overflow="visible"/>
	</clipPath>
</g>
<line fill="none" x1="94.667" y1="13.5" x2="97.083" y2="17.833"/>
<rect id="_x3C_Slice_x3E_" x="2.5" y="44.189" fill="none" width="261" height="150.311"/>
<rect id="_x3C_Slice_x3E__1_" x="2.5" y="1.5" fill="none" width="261" height="42.689"/>
</svg>
