<?xml version="1.0" encoding="utf-8"?>
<!-- Generator: Adobe Illustrator 20.1.0, SVG Export Plug-In . SVG Version: 6.00 Build 0)  -->
<svg version="1.1" id="Layer_1" xmlns="http://www.w3.org/2000/svg" xmlns:xlink="http://www.w3.org/1999/xlink" x="0px" y="0px"
	 viewBox="0 0 300 300" style="enable-background:new 0 0 300 300;" xml:space="preserve">
<style type="text/css">
	.st0{fill:#FFFFFF;}
	.st1{fill:none;stroke:#E4E4E6;stroke-width:3.000000e-02;stroke-miterlimit:10;}
	.st2{fill:#F79221;}
	.st3{fill:#AAAAAB;}
	.st4{font-family:'MyriadPro-Regular';}
	.st5{font-size:3px;}
	.st6{fill:#010101;}
	.st7{enable-background:new    ;}
	.st8{fill:#E44F26;}
	.st9{fill:#F1662A;}
	.st10{fill:#EBEBEB;}
	.st11{fill:#9A2063;}
	.st12{fill:#69194E;}
	.st13{fill:none;stroke:#FFFFFF;stroke-width:0.25;stroke-miterlimit:10;}
	.st14{fill:#C01D72;}
	.st15{fill:#01779E;}
	.st16{fill:#F27C21;}
	.st17{fill:#57A345;}
	.st18{fill:#F79034;}
	.st19{fill:#E22D2A;}
	.st20{fill:#1070AD;}
	.st21{fill:#5C60AB;}
	.st22{fill:#F19C20;}
	.st23{fill:#F08321;}
	.st24{fill:#EB8423;}
	.st25{fill:#F7B818;}
	.st26{fill:#F89A1C;}
</style>
<circle class="st0" cx="194.1" cy="8.9" r="7.1"/>
<g>
	<g>
		<polygon class="st0" points="34.1,19.2 28.9,17.1 26.6,12 28.7,6.8 33.8,4.6 39,6.6 41.2,11.7 39.2,16.9 		"/>
	</g>
</g>
<g>
	<g>
		<g>
			<circle class="st0" cx="13" cy="11.5" r="7.2"/>
		</g>
	</g>
</g>
<g>
	<line class="st1" x1="7.9" y1="16.6" x2="18.1" y2="6.4"/>
	<line class="st1" x1="13" y1="18.7" x2="13" y2="4.3"/>
	<line class="st1" x1="20.2" y1="11.5" x2="5.8" y2="11.5"/>
	<line class="st1" x1="18.1" y1="16.6" x2="7.9" y2="6.4"/>
</g>
<circle class="st2" cx="13" cy="11.5" r="2.7"/>
<g>
	<g>
		<path class="st3" d="M33.7,72.7c-0.6,0-1,0.5-1,1s0.5,1,1,1c0.6,0,1-0.5,1-1C34.7,73.2,34.3,72.7,33.7,72.7z M33.7,74.2
			c-0.3,0-0.5-0.2-0.5-0.5c0-0.3,0.2-0.5,0.5-0.5c0.3,0,0.5,0.2,0.5,0.5C34.2,74,34,74.2,33.7,74.2z"/>
		<path class="st3" d="M32.7,61.6h1c0.1,0,0.3-0.1,0.3-0.3c0-0.1-0.1-0.3-0.3-0.3h-1c-0.1,0-0.3,0.1-0.3,0.3
			C32.5,61.5,32.6,61.6,32.7,61.6z"/>
		<path class="st3" d="M34.5,61.6h0.3c0.1,0,0.3-0.1,0.3-0.3c0-0.1-0.1-0.3-0.3-0.3h-0.3c-0.1,0-0.3,0.1-0.3,0.3
			C34.2,61.5,34.3,61.6,34.5,61.6z"/>
		<path class="st3" d="M37.9,75C37.9,75,37.9,75,37.9,75c0,0,0.1-0.1,0.1-0.2c0,0,0,0,0,0c0,0,0,0,0,0c0,0,0,0,0,0
			c0-0.1,0.1-0.2,0.1-0.4l0-0.4v-0.2l0-0.7l0-0.2l0-0.7v-0.2l0-0.7V71l0-0.7l0-0.2l0-0.7v-0.2l0-0.7v-0.2l0-6.8
			c0-0.6-0.5-1.1-1.1-1.1l-6.4,0c-0.6,0-1.1,0.5-1.1,1.1l0,12.9c0,0.6,0.5,1.1,1.1,1.1l6.4,0h0.1c0,0,0.1,0,0.1,0
			c0.1,0,0.3-0.1,0.4-0.2C37.6,75.4,37.9,75,37.9,75z M29.9,62.3h7.6v4.8v0.4v0.7v0.2v0.7v0.2v0.7v0.2V71v0.2v0.7v0h-7.6L29.9,62.3
			L29.9,62.3z M30.5,60.8h6.4c0.3,0,0.6,0.3,0.6,0.6v0.4h-7.6v-0.4C29.9,61.1,30.2,60.8,30.5,60.8z M36.9,75h-6.4
			c-0.3,0-0.6-0.3-0.6-0.6v-1.9h7.6v0.4v0.2v0.7V74v0.4c0,0.1,0,0.2,0,0.2c0,0,0,0.1-0.1,0.1C37.3,74.9,37.1,75,36.9,75z"/>
	</g>
	<text transform="matrix(1 0 0 1 29.282 79.166)" class="st3 st4 st5">iPhone</text>
</g>
<g>
	<g>
		<path class="st3" d="M52.8,72.7c-0.6,0-1,0.5-1,1s0.5,1,1,1s1-0.5,1-1C53.8,73.2,53.3,72.7,52.8,72.7z M52.8,74.2
			c-0.3,0-0.5-0.2-0.5-0.5c0-0.3,0.2-0.5,0.5-0.5s0.5,0.2,0.5,0.5C53.3,74,53.1,74.2,52.8,74.2z"/>
		<path class="st3" d="M51.8,61.6h1c0.1,0,0.3-0.1,0.3-0.3c0-0.1-0.1-0.3-0.3-0.3h-1c-0.1,0-0.3,0.1-0.3,0.3
			C51.5,61.5,51.6,61.6,51.8,61.6z"/>
		<path class="st3" d="M53.5,61.6h0.3c0.1,0,0.3-0.1,0.3-0.3c0-0.1-0.1-0.3-0.3-0.3h-0.3c-0.1,0-0.3,0.1-0.3,0.3
			C53.3,61.5,53.4,61.6,53.5,61.6z"/>
		<path class="st3" d="M56.9,75C56.9,75,56.9,75,56.9,75c0,0,0.1-0.1,0.1-0.2c0,0,0,0,0,0c0,0,0,0,0,0c0,0,0,0,0,0
			c0-0.1,0.1-0.2,0.1-0.4l0-0.4v-0.2l0-0.7l0-0.2l0-0.7v-0.2l0-0.7V71l0-0.7l0-0.2l0-0.7v-0.2l0-0.7v-0.2l0-6.8
			c0-0.6-0.5-1.1-1.1-1.1l-6.4,0c-0.6,0-1.1,0.5-1.1,1.1l0,12.9c0,0.6,0.5,1.1,1.1,1.1l6.4,0h0.1c0,0,0.1,0,0.1,0
			c0.1,0,0.3-0.1,0.4-0.2C56.6,75.4,56.9,75,56.9,75z M49,62.3h7.6v4.8v0.4v0.7v0.2v0.7v0.2v0.7v0.2V71v0.2v0.7v0H49V62.3z
			 M49.6,60.8H56c0.3,0,0.6,0.3,0.6,0.6v0.4H49v-0.4C49,61.1,49.3,60.8,49.6,60.8z M56,75h-6.4c-0.3,0-0.6-0.3-0.6-0.6v-1.9h7.6v0.4
			v0.2v0.7V74v0.4c0,0.1,0,0.2,0,0.2c0,0,0,0.1-0.1,0.1C56.4,74.9,56.2,75,56,75z"/>
	</g>
	<text transform="matrix(1 0 0 1 48.3386 79.166)" class="st3 st4 st5">Android</text>
</g>
<g>
	<g>
		<path class="st3" d="M73.2,72.7c-0.6,0-1,0.5-1,1s0.5,1,1,1c0.6,0,1-0.5,1-1C74.2,73.2,73.8,72.7,73.2,72.7z M73.2,74.2
			c-0.3,0-0.5-0.2-0.5-0.5c0-0.3,0.2-0.5,0.5-0.5c0.3,0,0.5,0.2,0.5,0.5C73.7,74,73.5,74.2,73.2,74.2z"/>
		<path class="st3" d="M72.2,61.6h1c0.1,0,0.3-0.1,0.3-0.3c0-0.1-0.1-0.3-0.3-0.3h-1c-0.1,0-0.3,0.1-0.3,0.3
			C72,61.5,72.1,61.6,72.2,61.6z"/>
		<path class="st3" d="M74,61.6h0.3c0.1,0,0.3-0.1,0.3-0.3c0-0.1-0.1-0.3-0.3-0.3H74c-0.1,0-0.3,0.1-0.3,0.3
			C73.7,61.5,73.8,61.6,74,61.6z"/>
		<path class="st3" d="M77.4,75C77.4,75,77.4,75,77.4,75c0,0,0.1-0.1,0.1-0.2c0,0,0,0,0,0c0,0,0,0,0,0c0,0,0,0,0,0
			c0-0.1,0.1-0.2,0.1-0.4l0-0.4v-0.2l0-0.7l0-0.2l0-0.7v-0.2l0-0.7V71l0-0.7l0-0.2l0-0.7v-0.2l0-0.7v-0.2l0-6.8
			c0-0.6-0.5-1.1-1.1-1.1l-6.4,0c-0.6,0-1.1,0.5-1.1,1.1l0,12.9c0,0.6,0.5,1.1,1.1,1.1l6.4,0h0.1c0,0,0.1,0,0.1,0
			c0.1,0,0.3-0.1,0.4-0.2C77.1,75.4,77.4,75,77.4,75z M69.4,62.3H77v4.8v0.4v0.7v0.2v0.7v0.2v0.7v0.2V71v0.2v0.7v0h-7.6V62.3z
			 M70,60.8h6.4c0.3,0,0.6,0.3,0.6,0.6v0.4h-7.6v-0.4C69.4,61.1,69.7,60.8,70,60.8z M76.4,75H70c-0.3,0-0.6-0.3-0.6-0.6v-1.9H77v0.4
			v0.2v0.7V74v0.4c0,0.1,0,0.2,0,0.2c0,0,0,0.1-0.1,0.1C76.8,74.9,76.6,75,76.4,75z"/>
	</g>
	<text transform="matrix(1 0 0 1 68.782 79.166)" class="st3 st4 st5">HTML5</text>
</g>
<g>
	<g>
		<path class="st3" d="M93,72.7c-0.6,0-1,0.5-1,1s0.5,1,1,1c0.6,0,1-0.5,1-1C94,73.2,93.6,72.7,93,72.7z M93,74.2
			c-0.3,0-0.5-0.2-0.5-0.5c0-0.3,0.2-0.5,0.5-0.5c0.3,0,0.5,0.2,0.5,0.5C93.5,74,93.3,74.2,93,74.2z"/>
		<path class="st3" d="M92,61.6h1c0.1,0,0.3-0.1,0.3-0.3c0-0.1-0.1-0.3-0.3-0.3h-1c-0.1,0-0.3,0.1-0.3,0.3
			C91.8,61.5,91.9,61.6,92,61.6z"/>
		<path class="st3" d="M93.8,61.6H94c0.1,0,0.3-0.1,0.3-0.3c0-0.1-0.1-0.3-0.3-0.3h-0.3c-0.1,0-0.3,0.1-0.3,0.3
			C93.5,61.5,93.6,61.6,93.8,61.6z"/>
		<path class="st3" d="M97.1,75C97.1,75,97.1,75,97.1,75c0,0,0.1-0.1,0.1-0.2c0,0,0,0,0,0c0,0,0,0,0,0c0,0,0,0,0,0
			c0-0.1,0.1-0.2,0.1-0.4l0-0.4v-0.2l0-0.7l0-0.2l0-0.7v-0.2l0-0.7V71l0-0.7l0-0.2l0-0.7v-0.2l0-0.7v-0.2l0-6.8
			c0-0.6-0.5-1.1-1.1-1.1l-6.4,0c-0.6,0-1.1,0.5-1.1,1.1l0,12.9c0,0.6,0.5,1.1,1.1,1.1l6.4,0h0.1c0,0,0.1,0,0.1,0
			c0.1,0,0.3-0.1,0.4-0.2C96.9,75.4,97.1,75,97.1,75z M89.2,62.3h7.6v4.8v0.4v0.7v0.2v0.7v0.2v0.7v0.2V71v0.2v0.7v0h-7.6V62.3z
			 M89.8,60.8h6.4c0.3,0,0.6,0.3,0.6,0.6v0.4h-7.6v-0.4C89.2,61.1,89.5,60.8,89.8,60.8z M96.2,75h-6.4c-0.3,0-0.6-0.3-0.6-0.6v-1.9
			h7.6v0.4v0.2v0.7V74v0.4c0,0.1,0,0.2,0,0.2c0,0,0,0.1-0.1,0.1C96.6,74.9,96.4,75,96.2,75z"/>
	</g>
	<text transform="matrix(1 0 0 1 88.5701 79.166)" class="st3 st4 st5">iPhone</text>
</g>
<g>
	<g>
		<path class="st3" d="M112.1,72.7c-0.6,0-1,0.5-1,1s0.5,1,1,1s1-0.5,1-1C113.1,73.2,112.6,72.7,112.1,72.7z M112.1,74.2
			c-0.3,0-0.5-0.2-0.5-0.5c0-0.3,0.2-0.5,0.5-0.5s0.5,0.2,0.5,0.5C112.6,74,112.3,74.2,112.1,74.2z"/>
		<path class="st3" d="M111.1,61.6h1c0.1,0,0.3-0.1,0.3-0.3c0-0.1-0.1-0.3-0.3-0.3h-1c-0.1,0-0.3,0.1-0.3,0.3
			C110.8,61.5,110.9,61.6,111.1,61.6z"/>
		<path class="st3" d="M112.8,61.6h0.3c0.1,0,0.3-0.1,0.3-0.3c0-0.1-0.1-0.3-0.3-0.3h-0.3c-0.1,0-0.3,0.1-0.3,0.3
			C112.6,61.5,112.7,61.6,112.8,61.6z"/>
		<path class="st3" d="M116.2,75C116.2,75,116.2,75,116.2,75c0,0,0.1-0.1,0.1-0.2c0,0,0,0,0,0c0,0,0,0,0,0c0,0,0,0,0,0
			c0-0.1,0.1-0.2,0.1-0.4l0-0.4v-0.2l0-0.7l0-0.2l0-0.7v-0.2l0-0.7V71l0-0.7l0-0.2l0-0.7v-0.2l0-0.7v-0.2l0-6.8
			c0-0.6-0.5-1.1-1.1-1.1l-6.4,0c-0.6,0-1.1,0.5-1.1,1.1l0,12.9c0,0.6,0.5,1.1,1.1,1.1l6.4,0h0.1c0,0,0.1,0,0.1,0
			c0.1,0,0.3-0.1,0.4-0.2C115.9,75.4,116.2,75,116.2,75z M108.3,62.3h7.6v4.8v0.4v0.7v0.2v0.7v0.2v0.7v0.2V71v0.2v0.7v0h-7.6V62.3z
			 M108.9,60.8h6.4c0.3,0,0.6,0.3,0.6,0.6v0.4h-7.6v-0.4C108.3,61.1,108.6,60.8,108.9,60.8z M115.3,75h-6.4c-0.3,0-0.6-0.3-0.6-0.6
			v-1.9h7.6v0.4v0.2v0.7V74v0.4c0,0.1,0,0.2,0,0.2c0,0,0,0.1-0.1,0.1C115.6,74.9,115.5,75,115.3,75z"/>
	</g>
	<text transform="matrix(1 0 0 1 107.6267 79.166)" class="st3 st4 st5">Android</text>
</g>
<g>
	<g>
		<path class="st3" d="M132.5,72.7c-0.6,0-1,0.5-1,1s0.5,1,1,1c0.6,0,1-0.5,1-1C133.5,73.2,133.1,72.7,132.5,72.7z M132.5,74.2
			c-0.3,0-0.5-0.2-0.5-0.5c0-0.3,0.2-0.5,0.5-0.5c0.3,0,0.5,0.2,0.5,0.5C133,74,132.8,74.2,132.5,74.2z"/>
		<path class="st3" d="M131.5,61.6h1c0.1,0,0.3-0.1,0.3-0.3c0-0.1-0.1-0.3-0.3-0.3h-1c-0.1,0-0.3,0.1-0.3,0.3
			C131.2,61.5,131.4,61.6,131.5,61.6z"/>
		<path class="st3" d="M133.3,61.6h0.3c0.1,0,0.3-0.1,0.3-0.3c0-0.1-0.1-0.3-0.3-0.3h-0.3c-0.1,0-0.3,0.1-0.3,0.3
			C133,61.5,133.1,61.6,133.3,61.6z"/>
		<path class="st3" d="M136.6,75C136.6,75,136.6,75,136.6,75c0,0,0.1-0.1,0.1-0.2c0,0,0,0,0,0c0,0,0,0,0,0c0,0,0,0,0,0
			c0-0.1,0.1-0.2,0.1-0.4l0-0.4v-0.2l0-0.7l0-0.2l0-0.7v-0.2l0-0.7V71l0-0.7l0-0.2l0-0.7v-0.2l0-0.7v-0.2l0-6.8
			c0-0.6-0.5-1.1-1.1-1.1l-6.4,0c-0.6,0-1.1,0.5-1.1,1.1l0,12.9c0,0.6,0.5,1.1,1.1,1.1l6.4,0h0.1c0,0,0.1,0,0.1,0
			c0.1,0,0.3-0.1,0.4-0.2C136.4,75.4,136.6,75,136.6,75z M128.7,62.3h7.6v4.8v0.4v0.7v0.2v0.7v0.2v0.7v0.2V71v0.2v0.7v0h-7.6V62.3z
			 M129.3,60.8h6.4c0.3,0,0.6,0.3,0.6,0.6v0.4h-7.6v-0.4C128.7,61.1,129,60.8,129.3,60.8z M135.7,75h-6.4c-0.3,0-0.6-0.3-0.6-0.6
			v-1.9h7.6v0.4v0.2v0.7V74v0.4c0,0.1,0,0.2,0,0.2c0,0,0,0.1-0.1,0.1C136.1,74.9,135.9,75,135.7,75z"/>
	</g>
	<text transform="matrix(1 0 0 1 128.0701 79.166)" class="st3 st4 st5">HTML5</text>
</g>
<g>
	<g>
		<path class="st3" d="M151.6,72.7c-0.6,0-1,0.5-1,1s0.5,1,1,1c0.6,0,1-0.5,1-1C152.6,73.2,152.2,72.7,151.6,72.7z M151.6,74.2
			c-0.3,0-0.5-0.2-0.5-0.5c0-0.3,0.2-0.5,0.5-0.5s0.5,0.2,0.5,0.5C152.1,74,151.9,74.2,151.6,74.2z"/>
		<path class="st3" d="M150.6,61.6h1c0.1,0,0.3-0.1,0.3-0.3c0-0.1-0.1-0.3-0.3-0.3h-1c-0.1,0-0.3,0.1-0.3,0.3
			C150.3,61.5,150.4,61.6,150.6,61.6z"/>
		<path class="st3" d="M152.4,61.6h0.3c0.1,0,0.3-0.1,0.3-0.3c0-0.1-0.1-0.3-0.3-0.3h-0.3c-0.1,0-0.3,0.1-0.3,0.3
			C152.1,61.5,152.2,61.6,152.4,61.6z"/>
		<path class="st3" d="M155.7,75C155.7,75,155.7,75,155.7,75c0,0,0.1-0.1,0.1-0.2c0,0,0,0,0,0c0,0,0,0,0,0c0,0,0,0,0,0
			c0-0.1,0.1-0.2,0.1-0.4l0-0.4v-0.2l0-0.7l0-0.2l0-0.7l0-0.2l0-0.7V71l0-0.7v-0.2l0-0.7v-0.2l0-0.7v-0.2l0-6.8
			c0-0.6-0.5-1.1-1.1-1.1l-6.4,0c-0.6,0-1.1,0.5-1.1,1.1l0,12.9c0,0.6,0.5,1.1,1.1,1.1l6.4,0h0.1c0,0,0.1,0,0.1,0
			c0.1,0,0.3-0.1,0.4-0.2C155.5,75.4,155.7,75,155.7,75z M147.8,62.3h7.6v4.8v0.4v0.7v0.2v0.7v0.2v0.7v0.2V71v0.2v0.7v0h-7.6V62.3z
			 M148.4,60.8h6.4c0.3,0,0.6,0.3,0.6,0.6v0.4h-7.6v-0.4C147.8,61.1,148.1,60.8,148.4,60.8z M154.8,75h-6.4c-0.3,0-0.6-0.3-0.6-0.6
			v-1.9h7.6v0.4v0.2v0.7V74v0.4c0,0.1,0,0.2,0,0.2c0,0,0,0.1-0.1,0.1C155.2,74.9,155,75,154.8,75z"/>
	</g>
	<text transform="matrix(1 0 0 1 147.1521 79.166)" class="st3 st4 st5">Android</text>
</g>
<g>
	<g>
		<path class="st3" d="M172,72.7c-0.6,0-1,0.5-1,1s0.5,1,1,1c0.6,0,1-0.5,1-1C173.1,73.2,172.6,72.7,172,72.7z M172,74.2
			c-0.3,0-0.5-0.2-0.5-0.5c0-0.3,0.2-0.5,0.5-0.5c0.3,0,0.5,0.2,0.5,0.5C172.5,74,172.3,74.2,172,74.2z"/>
		<path class="st3" d="M171,61.6h1c0.1,0,0.3-0.1,0.3-0.3c0-0.1-0.1-0.3-0.3-0.3h-1c-0.1,0-0.3,0.1-0.3,0.3
			C170.8,61.5,170.9,61.6,171,61.6z"/>
		<path class="st3" d="M172.8,61.6h0.3c0.1,0,0.3-0.1,0.3-0.3c0-0.1-0.1-0.3-0.3-0.3h-0.3c-0.1,0-0.3,0.1-0.3,0.3
			C172.5,61.5,172.7,61.6,172.8,61.6z"/>
		<path class="st3" d="M176.2,75C176.2,75,176.2,75,176.2,75c0,0,0.1-0.1,0.1-0.2c0,0,0,0,0,0c0,0,0,0,0,0c0,0,0,0,0,0
			c0-0.1,0.1-0.2,0.1-0.4V74v-0.2l0-0.7l0-0.2v-0.7l0-0.2l0-0.7V71l0-0.7l0-0.2l0-0.7v-0.2l0-0.7v-0.2l0-6.8c0-0.6-0.5-1.1-1.1-1.1
			l-6.4,0c-0.6,0-1.1,0.5-1.1,1.1l0,12.9c0,0.6,0.5,1.1,1.1,1.1l6.4,0h0.1c0,0,0.1,0,0.1,0c0.1,0,0.3-0.1,0.4-0.2
			C175.9,75.4,176.2,75,176.2,75z M168.2,62.3h7.6v4.8v0.4v0.7v0.2v0.7v0.2v0.7v0.2V71v0.2v0.7v0h-7.6V62.3z M168.9,60.8h6.4
			c0.3,0,0.6,0.3,0.6,0.6v0.4h-7.6v-0.4C168.2,61.1,168.5,60.8,168.9,60.8z M175.2,75h-6.4c-0.3,0-0.6-0.3-0.6-0.6v-1.9h7.6v0.4v0.2
			v0.7V74v0.4c0,0.1,0,0.2,0,0.2c0,0,0,0.1-0.1,0.1C175.6,74.9,175.4,75,175.2,75z"/>
	</g>
	<text transform="matrix(1 0 0 1 167.5964 79.166)" class="st3 st4 st5">HTML5</text>
</g>
<g>
	<g>
		<path class="st3" d="M157.3,14.5c-0.6,0-1,0.5-1,1s0.5,1,1,1c0.6,0,1-0.5,1-1C158.3,14.9,157.9,14.5,157.3,14.5z M157.3,16
			c-0.3,0-0.5-0.2-0.5-0.5c0-0.3,0.2-0.5,0.5-0.5s0.5,0.2,0.5,0.5C157.8,15.8,157.6,16,157.3,16z"/>
		<path class="st3" d="M156.3,3.3h1c0.1,0,0.3-0.1,0.3-0.3c0-0.1-0.1-0.3-0.3-0.3h-1c-0.1,0-0.3,0.1-0.3,0.3
			C156,3.2,156.2,3.3,156.3,3.3z"/>
		<path class="st3" d="M158.1,3.3h0.3c0.1,0,0.3-0.1,0.3-0.3c0-0.1-0.1-0.3-0.3-0.3h-0.3c-0.1,0-0.3,0.1-0.3,0.3
			C157.8,3.2,157.9,3.3,158.1,3.3z"/>
		<path class="st3" d="M161.4,16.7C161.4,16.7,161.4,16.7,161.4,16.7c0-0.1,0.1-0.1,0.1-0.2c0,0,0,0,0,0c0,0,0,0,0,0c0,0,0,0,0,0
			c0-0.1,0.1-0.2,0.1-0.4l0-0.4v-0.2l0-0.7l0-0.2l0-0.7l0-0.2l0-0.7v-0.2l0-0.7v-0.2l0-0.7v-0.2l0-0.7V10l0-6.8
			c0-0.6-0.5-1.1-1.1-1.1l-6.4,0c-0.6,0-1.1,0.5-1.1,1.1l0,12.9c0,0.6,0.5,1.1,1.1,1.1l6.4,0h0.1c0,0,0.1,0,0.1,0
			c0.1,0,0.3-0.1,0.4-0.2C161.2,17.2,161.4,16.7,161.4,16.7z M153.5,4.1h7.6v4.8v0.4V10v0.2v0.7v0.2v0.7v0.2v0.7V13v0.7v0h-7.6V4.1z
			 M154.1,2.6h6.4c0.3,0,0.6,0.3,0.6,0.6v0.4h-7.6V3.2C153.5,2.9,153.8,2.6,154.1,2.6z M160.5,16.7h-6.4c-0.3,0-0.6-0.3-0.6-0.6
			v-1.9h7.6v0.4v0.2v0.7v0.2v0.4c0,0.1,0,0.2,0,0.2c0,0,0,0.1-0.1,0.1C160.9,16.6,160.7,16.7,160.5,16.7z"/>
	</g>
	<text transform="matrix(1 0 0 1 152.8601 20.9277)" class="st3 st4 st5">Android</text>
</g>
<g>
	<g>
		<path class="st3" d="M33.7,105.5c-0.6,0-1,0.5-1,1s0.5,1,1,1c0.6,0,1-0.5,1-1C34.7,105.9,34.3,105.5,33.7,105.5z M33.7,107
			c-0.3,0-0.5-0.2-0.5-0.5s0.2-0.5,0.5-0.5c0.3,0,0.5,0.2,0.5,0.5C34.2,106.8,34,107,33.7,107z"/>
		<path class="st3" d="M32.7,94.4h1c0.1,0,0.3-0.1,0.3-0.3c0-0.1-0.1-0.3-0.3-0.3h-1c-0.1,0-0.3,0.1-0.3,0.3
			C32.5,94.3,32.6,94.4,32.7,94.4z"/>
		<path class="st3" d="M34.5,94.4h0.3c0.1,0,0.3-0.1,0.3-0.3c0-0.1-0.1-0.3-0.3-0.3h-0.3c-0.1,0-0.3,0.1-0.3,0.3
			C34.2,94.3,34.3,94.4,34.5,94.4z"/>
		<path class="st3" d="M37.9,107.8C37.9,107.8,37.9,107.8,37.9,107.8c0,0,0.1-0.1,0.1-0.2c0,0,0,0,0,0c0,0,0,0,0,0c0,0,0,0,0,0
			c0-0.1,0.1-0.2,0.1-0.4l0-0.4v-0.2l0-0.7l0-0.2l0-0.7v-0.2l0-0.7v-0.2l0-0.7l0-0.2l0-0.7v-0.2l0-0.7V101l0-6.8
			c0-0.6-0.5-1.1-1.1-1.1l-6.4,0c-0.6,0-1.1,0.5-1.1,1.1l0,12.9c0,0.6,0.5,1.1,1.1,1.1l6.4,0h0.1c0,0,0.1,0,0.1,0
			c0.1,0,0.3-0.1,0.4-0.2C37.6,108.2,37.9,107.8,37.9,107.8z M29.9,95.1h7.6v4.8v0.4v0.7v0.2v0.7v0.2v0.7v0.2v0.7v0.2v0.7v0h-7.6
			L29.9,95.1L29.9,95.1z M30.5,93.6h6.4c0.3,0,0.6,0.3,0.6,0.6v0.4h-7.6v-0.4C29.9,93.9,30.2,93.6,30.5,93.6z M36.9,107.8h-6.4
			c-0.3,0-0.6-0.3-0.6-0.6v-1.9h7.6v0.4v0.2v0.7v0.2v0.4c0,0.1,0,0.2,0,0.2c0,0,0,0.1-0.1,0.1C37.3,107.7,37.1,107.8,36.9,107.8z"/>
	</g>
	<text transform="matrix(1 0 0 1 29.282 111.9521)" class="st3 st4 st5">iPhone</text>
</g>
<g>
	<g>
		<path class="st3" d="M52.8,105.5c-0.6,0-1,0.5-1,1s0.5,1,1,1s1-0.5,1-1C53.8,105.9,53.3,105.5,52.8,105.5z M52.8,107
			c-0.3,0-0.5-0.2-0.5-0.5s0.2-0.5,0.5-0.5s0.5,0.2,0.5,0.5C53.3,106.8,53.1,107,52.8,107z"/>
		<path class="st3" d="M51.8,94.4h1c0.1,0,0.3-0.1,0.3-0.3c0-0.1-0.1-0.3-0.3-0.3h-1c-0.1,0-0.3,0.1-0.3,0.3
			C51.5,94.3,51.6,94.4,51.8,94.4z"/>
		<path class="st3" d="M53.5,94.4h0.3c0.1,0,0.3-0.1,0.3-0.3c0-0.1-0.1-0.3-0.3-0.3h-0.3c-0.1,0-0.3,0.1-0.3,0.3
			C53.3,94.3,53.4,94.4,53.5,94.4z"/>
		<path class="st3" d="M56.9,107.8C56.9,107.8,56.9,107.8,56.9,107.8c0,0,0.1-0.1,0.1-0.2c0,0,0,0,0,0c0,0,0,0,0,0c0,0,0,0,0,0
			c0-0.1,0.1-0.2,0.1-0.4l0-0.4v-0.2l0-0.7l0-0.2l0-0.7v-0.2l0-0.7v-0.2l0-0.7l0-0.2l0-0.7v-0.2l0-0.7V101l0-6.8
			c0-0.6-0.5-1.1-1.1-1.1l-6.4,0c-0.6,0-1.1,0.5-1.1,1.1l0,12.9c0,0.6,0.5,1.1,1.1,1.1l6.4,0h0.1c0,0,0.1,0,0.1,0
			c0.1,0,0.3-0.1,0.4-0.2C56.6,108.2,56.9,107.8,56.9,107.8z M49,95.1h7.6v4.8v0.4v0.7v0.2v0.7v0.2v0.7v0.2v0.7v0.2v0.7v0H49V95.1z
			 M49.6,93.6H56c0.3,0,0.6,0.3,0.6,0.6v0.4H49v-0.4C49,93.9,49.3,93.6,49.6,93.6z M56,107.8h-6.4c-0.3,0-0.6-0.3-0.6-0.6v-1.9h7.6
			v0.4v0.2v0.7v0.2v0.4c0,0.1,0,0.2,0,0.2c0,0,0,0.1-0.1,0.1C56.4,107.7,56.2,107.8,56,107.8z"/>
	</g>
	<text transform="matrix(1 0 0 1 48.3386 111.9521)" class="st3 st4 st5">Android</text>
</g>
<g>
	<g>
		<path class="st3" d="M73.2,105.5c-0.6,0-1,0.5-1,1s0.5,1,1,1c0.6,0,1-0.5,1-1C74.2,105.9,73.8,105.5,73.2,105.5z M73.2,107
			c-0.3,0-0.5-0.2-0.5-0.5s0.2-0.5,0.5-0.5c0.3,0,0.5,0.2,0.5,0.5C73.7,106.8,73.5,107,73.2,107z"/>
		<path class="st3" d="M72.2,94.4h1c0.1,0,0.3-0.1,0.3-0.3c0-0.1-0.1-0.3-0.3-0.3h-1c-0.1,0-0.3,0.1-0.3,0.3
			C72,94.3,72.1,94.4,72.2,94.4z"/>
		<path class="st3" d="M74,94.4h0.3c0.1,0,0.3-0.1,0.3-0.3c0-0.1-0.1-0.3-0.3-0.3H74c-0.1,0-0.3,0.1-0.3,0.3
			C73.7,94.3,73.8,94.4,74,94.4z"/>
		<path class="st3" d="M77.4,107.8C77.4,107.8,77.4,107.8,77.4,107.8c0,0,0.1-0.1,0.1-0.2c0,0,0,0,0,0c0,0,0,0,0,0c0,0,0,0,0,0
			c0-0.1,0.1-0.2,0.1-0.4l0-0.4v-0.2l0-0.7l0-0.2l0-0.7v-0.2l0-0.7v-0.2l0-0.7l0-0.2l0-0.7v-0.2l0-0.7V101l0-6.8
			c0-0.6-0.5-1.1-1.1-1.1l-6.4,0c-0.6,0-1.1,0.5-1.1,1.1l0,12.9c0,0.6,0.5,1.1,1.1,1.1l6.4,0h0.1c0,0,0.1,0,0.1,0
			c0.1,0,0.3-0.1,0.4-0.2C77.1,108.2,77.4,107.8,77.4,107.8z M69.4,95.1H77v4.8v0.4v0.7v0.2v0.7v0.2v0.7v0.2v0.7v0.2v0.7v0h-7.6
			V95.1z M70,93.6h6.4c0.3,0,0.6,0.3,0.6,0.6v0.4h-7.6v-0.4C69.4,93.9,69.7,93.6,70,93.6z M76.4,107.8H70c-0.3,0-0.6-0.3-0.6-0.6
			v-1.9H77v0.4v0.2v0.7v0.2v0.4c0,0.1,0,0.2,0,0.2c0,0,0,0.1-0.1,0.1C76.8,107.7,76.6,107.8,76.4,107.8z"/>
	</g>
	<text transform="matrix(1 0 0 1 68.782 111.9521)" class="st3 st4 st5">HTML5</text>
</g>
<g>
	<g>
		<path class="st3" d="M93,105.5c-0.6,0-1,0.5-1,1s0.5,1,1,1c0.6,0,1-0.5,1-1C94,105.9,93.6,105.5,93,105.5z M93,107
			c-0.3,0-0.5-0.2-0.5-0.5s0.2-0.5,0.5-0.5c0.3,0,0.5,0.2,0.5,0.5C93.5,106.8,93.3,107,93,107z"/>
		<path class="st3" d="M92,94.4h1c0.1,0,0.3-0.1,0.3-0.3c0-0.1-0.1-0.3-0.3-0.3h-1c-0.1,0-0.3,0.1-0.3,0.3
			C91.8,94.3,91.9,94.4,92,94.4z"/>
		<path class="st3" d="M93.8,94.4H94c0.1,0,0.3-0.1,0.3-0.3c0-0.1-0.1-0.3-0.3-0.3h-0.3c-0.1,0-0.3,0.1-0.3,0.3
			C93.5,94.3,93.6,94.4,93.8,94.4z"/>
		<path class="st3" d="M97.1,107.8C97.1,107.8,97.1,107.8,97.1,107.8c0,0,0.1-0.1,0.1-0.2c0,0,0,0,0,0c0,0,0,0,0,0c0,0,0,0,0,0
			c0-0.1,0.1-0.2,0.1-0.4l0-0.4v-0.2l0-0.7l0-0.2l0-0.7v-0.2l0-0.7v-0.2l0-0.7l0-0.2l0-0.7v-0.2l0-0.7V101l0-6.8
			c0-0.6-0.5-1.1-1.1-1.1l-6.4,0c-0.6,0-1.1,0.5-1.1,1.1l0,12.9c0,0.6,0.5,1.1,1.1,1.1l6.4,0h0.1c0,0,0.1,0,0.1,0
			c0.1,0,0.3-0.1,0.4-0.2C96.9,108.2,97.1,107.8,97.1,107.8z M89.2,95.1h7.6v4.8v0.4v0.7v0.2v0.7v0.2v0.7v0.2v0.7v0.2v0.7v0h-7.6
			V95.1z M89.8,93.6h6.4c0.3,0,0.6,0.3,0.6,0.6v0.4h-7.6v-0.4C89.2,93.9,89.5,93.6,89.8,93.6z M96.2,107.8h-6.4
			c-0.3,0-0.6-0.3-0.6-0.6v-1.9h7.6v0.4v0.2v0.7v0.2v0.4c0,0.1,0,0.2,0,0.2c0,0,0,0.1-0.1,0.1C96.6,107.7,96.4,107.8,96.2,107.8z"/>
	</g>
	<text transform="matrix(1 0 0 1 88.5701 111.9521)" class="st3 st4 st5">iPhone</text>
</g>
<g>
	<g>
		<path class="st3" d="M112.1,105.5c-0.6,0-1,0.5-1,1s0.5,1,1,1s1-0.5,1-1C113.1,105.9,112.6,105.5,112.1,105.5z M112.1,107
			c-0.3,0-0.5-0.2-0.5-0.5s0.2-0.5,0.5-0.5s0.5,0.2,0.5,0.5C112.6,106.8,112.3,107,112.1,107z"/>
		<path class="st3" d="M111.1,94.4h1c0.1,0,0.3-0.1,0.3-0.3c0-0.1-0.1-0.3-0.3-0.3h-1c-0.1,0-0.3,0.1-0.3,0.3
			C110.8,94.3,110.9,94.4,111.1,94.4z"/>
		<path class="st3" d="M112.8,94.4h0.3c0.1,0,0.3-0.1,0.3-0.3c0-0.1-0.1-0.3-0.3-0.3h-0.3c-0.1,0-0.3,0.1-0.3,0.3
			C112.6,94.3,112.7,94.4,112.8,94.4z"/>
		<path class="st3" d="M116.2,107.8C116.2,107.8,116.2,107.8,116.2,107.8c0,0,0.1-0.1,0.1-0.2c0,0,0,0,0,0c0,0,0,0,0,0c0,0,0,0,0,0
			c0-0.1,0.1-0.2,0.1-0.4l0-0.4v-0.2l0-0.7l0-0.2l0-0.7v-0.2l0-0.7v-0.2l0-0.7l0-0.2l0-0.7v-0.2l0-0.7V101l0-6.8
			c0-0.6-0.5-1.1-1.1-1.1l-6.4,0c-0.6,0-1.1,0.5-1.1,1.1l0,12.9c0,0.6,0.5,1.1,1.1,1.1l6.4,0h0.1c0,0,0.1,0,0.1,0
			c0.1,0,0.3-0.1,0.4-0.2C115.9,108.2,116.2,107.8,116.2,107.8z M108.3,95.1h7.6v4.8v0.4v0.7v0.2v0.7v0.2v0.7v0.2v0.7v0.2v0.7v0
			h-7.6V95.1z M108.9,93.6h6.4c0.3,0,0.6,0.3,0.6,0.6v0.4h-7.6v-0.4C108.3,93.9,108.6,93.6,108.9,93.6z M115.3,107.8h-6.4
			c-0.3,0-0.6-0.3-0.6-0.6v-1.9h7.6v0.4v0.2v0.7v0.2v0.4c0,0.1,0,0.2,0,0.2c0,0,0,0.1-0.1,0.1C115.6,107.7,115.5,107.8,115.3,107.8z
			"/>
	</g>
	<text transform="matrix(1 0 0 1 107.6267 111.9521)" class="st3 st4 st5">Android</text>
</g>
<g>
	<g>
		<path class="st3" d="M132.5,105.5c-0.6,0-1,0.5-1,1s0.5,1,1,1c0.6,0,1-0.5,1-1C133.5,105.9,133.1,105.5,132.5,105.5z M132.5,107
			c-0.3,0-0.5-0.2-0.5-0.5s0.2-0.5,0.5-0.5c0.3,0,0.5,0.2,0.5,0.5C133,106.8,132.8,107,132.5,107z"/>
		<path class="st3" d="M131.5,94.4h1c0.1,0,0.3-0.1,0.3-0.3c0-0.1-0.1-0.3-0.3-0.3h-1c-0.1,0-0.3,0.1-0.3,0.3
			C131.2,94.3,131.4,94.4,131.5,94.4z"/>
		<path class="st3" d="M133.3,94.4h0.3c0.1,0,0.3-0.1,0.3-0.3c0-0.1-0.1-0.3-0.3-0.3h-0.3c-0.1,0-0.3,0.1-0.3,0.3
			C133,94.3,133.1,94.4,133.3,94.4z"/>
		<path class="st3" d="M136.6,107.8C136.6,107.8,136.6,107.8,136.6,107.8c0,0,0.1-0.1,0.1-0.2c0,0,0,0,0,0c0,0,0,0,0,0c0,0,0,0,0,0
			c0-0.1,0.1-0.2,0.1-0.4l0-0.4v-0.2l0-0.7l0-0.2l0-0.7v-0.2l0-0.7v-0.2l0-0.7l0-0.2l0-0.7v-0.2l0-0.7V101l0-6.8
			c0-0.6-0.5-1.1-1.1-1.1l-6.4,0c-0.6,0-1.1,0.5-1.1,1.1l0,12.9c0,0.6,0.5,1.1,1.1,1.1l6.4,0h0.1c0,0,0.1,0,0.1,0
			c0.1,0,0.3-0.1,0.4-0.2C136.4,108.2,136.6,107.8,136.6,107.8z M128.7,95.1h7.6v4.8v0.4v0.7v0.2v0.7v0.2v0.7v0.2v0.7v0.2v0.7v0
			h-7.6V95.1z M129.3,93.6h6.4c0.3,0,0.6,0.3,0.6,0.6v0.4h-7.6v-0.4C128.7,93.9,129,93.6,129.3,93.6z M135.7,107.8h-6.4
			c-0.3,0-0.6-0.3-0.6-0.6v-1.9h7.6v0.4v0.2v0.7v0.2v0.4c0,0.1,0,0.2,0,0.2c0,0,0,0.1-0.1,0.1C136.1,107.7,135.9,107.8,135.7,107.8z
			"/>
	</g>
	<text transform="matrix(1 0 0 1 128.0701 111.9521)" class="st3 st4 st5">HTML5</text>
</g>
<g>
	<g>
		<path class="st3" d="M151.6,105.5c-0.6,0-1,0.5-1,1s0.5,1,1,1c0.6,0,1-0.5,1-1C152.6,105.9,152.2,105.5,151.6,105.5z M151.6,107
			c-0.3,0-0.5-0.2-0.5-0.5s0.2-0.5,0.5-0.5s0.5,0.2,0.5,0.5C152.1,106.8,151.9,107,151.6,107z"/>
		<path class="st3" d="M150.6,94.4h1c0.1,0,0.3-0.1,0.3-0.3c0-0.1-0.1-0.3-0.3-0.3h-1c-0.1,0-0.3,0.1-0.3,0.3
			C150.3,94.3,150.4,94.4,150.6,94.4z"/>
		<path class="st3" d="M152.4,94.4h0.3c0.1,0,0.3-0.1,0.3-0.3c0-0.1-0.1-0.3-0.3-0.3h-0.3c-0.1,0-0.3,0.1-0.3,0.3
			C152.1,94.3,152.2,94.4,152.4,94.4z"/>
		<path class="st3" d="M155.7,107.8C155.7,107.8,155.7,107.8,155.7,107.8c0,0,0.1-0.1,0.1-0.2c0,0,0,0,0,0c0,0,0,0,0,0c0,0,0,0,0,0
			c0-0.1,0.1-0.2,0.1-0.4l0-0.4v-0.2l0-0.7l0-0.2l0-0.7l0-0.2l0-0.7v-0.2l0-0.7v-0.2l0-0.7v-0.2l0-0.7V101l0-6.8
			c0-0.6-0.5-1.1-1.1-1.1l-6.4,0c-0.6,0-1.1,0.5-1.1,1.1l0,12.9c0,0.6,0.5,1.1,1.1,1.1l6.4,0h0.1c0,0,0.1,0,0.1,0
			c0.1,0,0.3-0.1,0.4-0.2C155.5,108.2,155.7,107.8,155.7,107.8z M147.8,95.1h7.6v4.8v0.4v0.7v0.2v0.7v0.2v0.7v0.2v0.7v0.2v0.7v0
			h-7.6V95.1z M148.4,93.6h6.4c0.3,0,0.6,0.3,0.6,0.6v0.4h-7.6v-0.4C147.8,93.9,148.1,93.6,148.4,93.6z M154.8,107.8h-6.4
			c-0.3,0-0.6-0.3-0.6-0.6v-1.9h7.6v0.4v0.2v0.7v0.2v0.4c0,0.1,0,0.2,0,0.2c0,0,0,0.1-0.1,0.1C155.2,107.7,155,107.8,154.8,107.8z"
			/>
	</g>
	<text transform="matrix(1 0 0 1 147.1521 111.9521)" class="st3 st4 st5">Android</text>
</g>
<g>
	<g>
		<path class="st3" d="M172,105.5c-0.6,0-1,0.5-1,1s0.5,1,1,1c0.6,0,1-0.5,1-1C173.1,105.9,172.6,105.5,172,105.5z M172,107
			c-0.3,0-0.5-0.2-0.5-0.5s0.2-0.5,0.5-0.5c0.3,0,0.5,0.2,0.5,0.5C172.5,106.8,172.3,107,172,107z"/>
		<path class="st3" d="M171,94.4h1c0.1,0,0.3-0.1,0.3-0.3c0-0.1-0.1-0.3-0.3-0.3h-1c-0.1,0-0.3,0.1-0.3,0.3
			C170.8,94.3,170.9,94.4,171,94.4z"/>
		<path class="st3" d="M172.8,94.4h0.3c0.1,0,0.3-0.1,0.3-0.3c0-0.1-0.1-0.3-0.3-0.3h-0.3c-0.1,0-0.3,0.1-0.3,0.3
			C172.5,94.3,172.7,94.4,172.8,94.4z"/>
		<path class="st3" d="M176.2,107.8C176.2,107.8,176.2,107.8,176.2,107.8c0,0,0.1-0.1,0.1-0.2c0,0,0,0,0,0c0,0,0,0,0,0c0,0,0,0,0,0
			c0-0.1,0.1-0.2,0.1-0.4v-0.4v-0.2l0-0.7l0-0.2v-0.7l0-0.2l0-0.7v-0.2l0-0.7l0-0.2l0-0.7v-0.2l0-0.7V101l0-6.8
			c0-0.6-0.5-1.1-1.1-1.1l-6.4,0c-0.6,0-1.1,0.5-1.1,1.1l0,12.9c0,0.6,0.5,1.1,1.1,1.1l6.4,0h0.1c0,0,0.1,0,0.1,0
			c0.1,0,0.3-0.1,0.4-0.2C175.9,108.2,176.2,107.8,176.2,107.8z M168.2,95.1h7.6v4.8v0.4v0.7v0.2v0.7v0.2v0.7v0.2v0.7v0.2v0.7v0
			h-7.6V95.1z M168.9,93.6h6.4c0.3,0,0.6,0.3,0.6,0.6v0.4h-7.6v-0.4C168.2,93.9,168.5,93.6,168.9,93.6z M175.2,107.8h-6.4
			c-0.3,0-0.6-0.3-0.6-0.6v-1.9h7.6v0.4v0.2v0.7v0.2v0.4c0,0.1,0,0.2,0,0.2c0,0,0,0.1-0.1,0.1C175.6,107.7,175.4,107.8,175.2,107.8z
			"/>
	</g>
	<text transform="matrix(1 0 0 1 167.5964 111.9521)" class="st3 st4 st5">HTML5</text>
</g>
<g>
	<g>
		<path class="st3" d="M33.7,137.8c-0.6,0-1,0.5-1,1s0.5,1,1,1c0.6,0,1-0.5,1-1C34.7,138.3,34.3,137.8,33.7,137.8z M33.7,139.3
			c-0.3,0-0.5-0.2-0.5-0.5c0-0.3,0.2-0.5,0.5-0.5c0.3,0,0.5,0.2,0.5,0.5C34.2,139.1,34,139.3,33.7,139.3z"/>
		<path class="st3" d="M32.7,126.7h1c0.1,0,0.3-0.1,0.3-0.3c0-0.1-0.1-0.3-0.3-0.3h-1c-0.1,0-0.3,0.1-0.3,0.3
			C32.5,126.6,32.6,126.7,32.7,126.7z"/>
		<path class="st3" d="M34.5,126.7h0.3c0.1,0,0.3-0.1,0.3-0.3c0-0.1-0.1-0.3-0.3-0.3h-0.3c-0.1,0-0.3,0.1-0.3,0.3
			C34.2,126.6,34.3,126.7,34.5,126.7z"/>
		<path class="st3" d="M37.9,140.1C37.9,140.1,37.9,140.1,37.9,140.1c0-0.1,0.1-0.1,0.1-0.2c0,0,0,0,0,0c0,0,0,0,0,0c0,0,0,0,0,0
			c0-0.1,0.1-0.2,0.1-0.4l0-0.4v-0.2l0-0.7l0-0.2l0-0.7V137l0-0.7v-0.2l0-0.7l0-0.2l0-0.7v-0.2l0-0.7v-0.2l0-6.8
			c0-0.6-0.5-1.1-1.1-1.1l-6.4,0c-0.6,0-1.1,0.5-1.1,1.1l0,12.9c0,0.6,0.5,1.1,1.1,1.1l6.4,0h0.1c0,0,0.1,0,0.1,0
			c0.1,0,0.3-0.1,0.4-0.2C37.6,140.5,37.9,140.1,37.9,140.1z M29.9,127.5h7.6v4.8v0.4v0.7v0.2v0.7v0.2v0.7v0.2v0.7v0.2v0.7v0h-7.6
			L29.9,127.5L29.9,127.5z M30.5,125.9h6.4c0.3,0,0.6,0.3,0.6,0.6v0.4h-7.6v-0.4C29.9,126.2,30.2,125.9,30.5,125.9z M36.9,140.1
			h-6.4c-0.3,0-0.6-0.3-0.6-0.6v-1.9h7.6v0.4v0.2v0.7v0.2v0.4c0,0.1,0,0.2,0,0.2c0,0,0,0.1-0.1,0.1C37.3,140,37.1,140.1,36.9,140.1z
			"/>
	</g>
	<text transform="matrix(1 0 0 1 29.282 144.2852)" class="st3 st4 st5">iPhone</text>
</g>
<g>
	<g>
		<path class="st3" d="M52.8,137.8c-0.6,0-1,0.5-1,1s0.5,1,1,1s1-0.5,1-1C53.8,138.3,53.3,137.8,52.8,137.8z M52.8,139.3
			c-0.3,0-0.5-0.2-0.5-0.5c0-0.3,0.2-0.5,0.5-0.5s0.5,0.2,0.5,0.5C53.3,139.1,53.1,139.3,52.8,139.3z"/>
		<path class="st3" d="M51.8,126.7h1c0.1,0,0.3-0.1,0.3-0.3c0-0.1-0.1-0.3-0.3-0.3h-1c-0.1,0-0.3,0.1-0.3,0.3
			C51.5,126.6,51.6,126.7,51.8,126.7z"/>
		<path class="st3" d="M53.5,126.7h0.3c0.1,0,0.3-0.1,0.3-0.3c0-0.1-0.1-0.3-0.3-0.3h-0.3c-0.1,0-0.3,0.1-0.3,0.3
			C53.3,126.6,53.4,126.7,53.5,126.7z"/>
		<path class="st3" d="M56.9,140.1C56.9,140.1,56.9,140.1,56.9,140.1c0-0.1,0.1-0.1,0.1-0.2c0,0,0,0,0,0c0,0,0,0,0,0c0,0,0,0,0,0
			c0-0.1,0.1-0.2,0.1-0.4l0-0.4v-0.2l0-0.7l0-0.2l0-0.7V137l0-0.7v-0.2l0-0.7l0-0.2l0-0.7v-0.2l0-0.7v-0.2l0-6.8
			c0-0.6-0.5-1.1-1.1-1.1l-6.4,0c-0.6,0-1.1,0.5-1.1,1.1l0,12.9c0,0.6,0.5,1.1,1.1,1.1l6.4,0h0.1c0,0,0.1,0,0.1,0
			c0.1,0,0.3-0.1,0.4-0.2C56.6,140.5,56.9,140.1,56.9,140.1z M49,127.5h7.6v4.8v0.4v0.7v0.2v0.7v0.2v0.7v0.2v0.7v0.2v0.7v0H49V127.5
			z M49.6,125.9H56c0.3,0,0.6,0.3,0.6,0.6v0.4H49v-0.4C49,126.2,49.3,125.9,49.6,125.9z M56,140.1h-6.4c-0.3,0-0.6-0.3-0.6-0.6v-1.9
			h7.6v0.4v0.2v0.7v0.2v0.4c0,0.1,0,0.2,0,0.2c0,0,0,0.1-0.1,0.1C56.4,140,56.2,140.1,56,140.1z"/>
	</g>
	<text transform="matrix(1 0 0 1 48.3386 144.2852)" class="st3 st4 st5">Android</text>
</g>
<g>
	<g>
		<path class="st3" d="M73.2,137.8c-0.6,0-1,0.5-1,1s0.5,1,1,1c0.6,0,1-0.5,1-1C74.2,138.3,73.8,137.8,73.2,137.8z M73.2,139.3
			c-0.3,0-0.5-0.2-0.5-0.5c0-0.3,0.2-0.5,0.5-0.5c0.3,0,0.5,0.2,0.5,0.5C73.7,139.1,73.5,139.3,73.2,139.3z"/>
		<path class="st3" d="M72.2,126.7h1c0.1,0,0.3-0.1,0.3-0.3c0-0.1-0.1-0.3-0.3-0.3h-1c-0.1,0-0.3,0.1-0.3,0.3
			C72,126.6,72.1,126.7,72.2,126.7z"/>
		<path class="st3" d="M74,126.7h0.3c0.1,0,0.3-0.1,0.3-0.3c0-0.1-0.1-0.3-0.3-0.3H74c-0.1,0-0.3,0.1-0.3,0.3
			C73.7,126.6,73.8,126.7,74,126.7z"/>
		<path class="st3" d="M77.4,140.1C77.4,140.1,77.4,140.1,77.4,140.1c0-0.1,0.1-0.1,0.1-0.2c0,0,0,0,0,0c0,0,0,0,0,0c0,0,0,0,0,0
			c0-0.1,0.1-0.2,0.1-0.4l0-0.4v-0.2l0-0.7l0-0.2l0-0.7V137l0-0.7v-0.2l0-0.7l0-0.2l0-0.7v-0.2l0-0.7v-0.2l0-6.8
			c0-0.6-0.5-1.1-1.1-1.1l-6.4,0c-0.6,0-1.1,0.5-1.1,1.1l0,12.9c0,0.6,0.5,1.1,1.1,1.1l6.4,0h0.1c0,0,0.1,0,0.1,0
			c0.1,0,0.3-0.1,0.4-0.2C77.1,140.5,77.4,140.1,77.4,140.1z M69.4,127.5H77v4.8v0.4v0.7v0.2v0.7v0.2v0.7v0.2v0.7v0.2v0.7v0h-7.6
			V127.5z M70,125.9h6.4c0.3,0,0.6,0.3,0.6,0.6v0.4h-7.6v-0.4C69.4,126.2,69.7,125.9,70,125.9z M76.4,140.1H70
			c-0.3,0-0.6-0.3-0.6-0.6v-1.9H77v0.4v0.2v0.7v0.2v0.4c0,0.1,0,0.2,0,0.2c0,0,0,0.1-0.1,0.1C76.8,140,76.6,140.1,76.4,140.1z"/>
	</g>
	<text transform="matrix(1 0 0 1 68.782 144.2852)" class="st3 st4 st5">HTML5</text>
</g>
<g>
	<g>
		<path class="st3" d="M93,137.8c-0.6,0-1,0.5-1,1s0.5,1,1,1c0.6,0,1-0.5,1-1C94,138.3,93.6,137.8,93,137.8z M93,139.3
			c-0.3,0-0.5-0.2-0.5-0.5c0-0.3,0.2-0.5,0.5-0.5c0.3,0,0.5,0.2,0.5,0.5C93.5,139.1,93.3,139.3,93,139.3z"/>
		<path class="st3" d="M92,126.7h1c0.1,0,0.3-0.1,0.3-0.3c0-0.1-0.1-0.3-0.3-0.3h-1c-0.1,0-0.3,0.1-0.3,0.3
			C91.8,126.6,91.9,126.7,92,126.7z"/>
		<path class="st3" d="M93.8,126.7H94c0.1,0,0.3-0.1,0.3-0.3c0-0.1-0.1-0.3-0.3-0.3h-0.3c-0.1,0-0.3,0.1-0.3,0.3
			C93.5,126.6,93.6,126.7,93.8,126.7z"/>
		<path class="st3" d="M97.1,140.1C97.1,140.1,97.1,140.1,97.1,140.1c0-0.1,0.1-0.1,0.1-0.2c0,0,0,0,0,0c0,0,0,0,0,0c0,0,0,0,0,0
			c0-0.1,0.1-0.2,0.1-0.4l0-0.4v-0.2l0-0.7l0-0.2l0-0.7V137l0-0.7v-0.2l0-0.7l0-0.2l0-0.7v-0.2l0-0.7v-0.2l0-6.8
			c0-0.6-0.5-1.1-1.1-1.1l-6.4,0c-0.6,0-1.1,0.5-1.1,1.1l0,12.9c0,0.6,0.5,1.1,1.1,1.1l6.4,0h0.1c0,0,0.1,0,0.1,0
			c0.1,0,0.3-0.1,0.4-0.2C96.9,140.5,97.1,140.1,97.1,140.1z M89.2,127.5h7.6v4.8v0.4v0.7v0.2v0.7v0.2v0.7v0.2v0.7v0.2v0.7v0h-7.6
			V127.5z M89.8,125.9h6.4c0.3,0,0.6,0.3,0.6,0.6v0.4h-7.6v-0.4C89.2,126.2,89.5,125.9,89.8,125.9z M96.2,140.1h-6.4
			c-0.3,0-0.6-0.3-0.6-0.6v-1.9h7.6v0.4v0.2v0.7v0.2v0.4c0,0.1,0,0.2,0,0.2c0,0,0,0.1-0.1,0.1C96.6,140,96.4,140.1,96.2,140.1z"/>
	</g>
	<text transform="matrix(1 0 0 1 88.5701 144.2852)" class="st3 st4 st5">iPhone</text>
</g>
<g>
	<g>
		<path class="st3" d="M112.1,137.8c-0.6,0-1,0.5-1,1s0.5,1,1,1s1-0.5,1-1C113.1,138.3,112.6,137.8,112.1,137.8z M112.1,139.3
			c-0.3,0-0.5-0.2-0.5-0.5c0-0.3,0.2-0.5,0.5-0.5s0.5,0.2,0.5,0.5C112.6,139.1,112.3,139.3,112.1,139.3z"/>
		<path class="st3" d="M111.1,126.7h1c0.1,0,0.3-0.1,0.3-0.3c0-0.1-0.1-0.3-0.3-0.3h-1c-0.1,0-0.3,0.1-0.3,0.3
			C110.8,126.6,110.9,126.7,111.1,126.7z"/>
		<path class="st3" d="M112.8,126.7h0.3c0.1,0,0.3-0.1,0.3-0.3c0-0.1-0.1-0.3-0.3-0.3h-0.3c-0.1,0-0.3,0.1-0.3,0.3
			C112.6,126.6,112.7,126.7,112.8,126.7z"/>
		<path class="st3" d="M116.2,140.1C116.2,140.1,116.2,140.1,116.2,140.1c0-0.1,0.1-0.1,0.1-0.2c0,0,0,0,0,0c0,0,0,0,0,0
			c0,0,0,0,0,0c0-0.1,0.1-0.2,0.1-0.4l0-0.4v-0.2l0-0.7l0-0.2l0-0.7V137l0-0.7v-0.2l0-0.7l0-0.2l0-0.7v-0.2l0-0.7v-0.2l0-6.8
			c0-0.6-0.5-1.1-1.1-1.1l-6.4,0c-0.6,0-1.1,0.5-1.1,1.1l0,12.9c0,0.6,0.5,1.1,1.1,1.1l6.4,0h0.1c0,0,0.1,0,0.1,0
			c0.1,0,0.3-0.1,0.4-0.2C115.9,140.5,116.2,140.1,116.2,140.1z M108.3,127.5h7.6v4.8v0.4v0.7v0.2v0.7v0.2v0.7v0.2v0.7v0.2v0.7v0
			h-7.6V127.5z M108.9,125.9h6.4c0.3,0,0.6,0.3,0.6,0.6v0.4h-7.6v-0.4C108.3,126.2,108.6,125.9,108.9,125.9z M115.3,140.1h-6.4
			c-0.3,0-0.6-0.3-0.6-0.6v-1.9h7.6v0.4v0.2v0.7v0.2v0.4c0,0.1,0,0.2,0,0.2c0,0,0,0.1-0.1,0.1C115.6,140,115.5,140.1,115.3,140.1z"
			/>
	</g>
	<text transform="matrix(1 0 0 1 107.6267 144.2852)" class="st3 st4 st5">Android</text>
</g>
<g>
	<g>
		<path class="st3" d="M132.5,137.8c-0.6,0-1,0.5-1,1s0.5,1,1,1c0.6,0,1-0.5,1-1C133.5,138.3,133.1,137.8,132.5,137.8z M132.5,139.3
			c-0.3,0-0.5-0.2-0.5-0.5c0-0.3,0.2-0.5,0.5-0.5c0.3,0,0.5,0.2,0.5,0.5C133,139.1,132.8,139.3,132.5,139.3z"/>
		<path class="st3" d="M131.5,126.7h1c0.1,0,0.3-0.1,0.3-0.3c0-0.1-0.1-0.3-0.3-0.3h-1c-0.1,0-0.3,0.1-0.3,0.3
			C131.2,126.6,131.4,126.7,131.5,126.7z"/>
		<path class="st3" d="M133.3,126.7h0.3c0.1,0,0.3-0.1,0.3-0.3c0-0.1-0.1-0.3-0.3-0.3h-0.3c-0.1,0-0.3,0.1-0.3,0.3
			C133,126.6,133.1,126.7,133.3,126.7z"/>
		<path class="st3" d="M136.6,140.1C136.6,140.1,136.6,140.1,136.6,140.1c0-0.1,0.1-0.1,0.1-0.2c0,0,0,0,0,0c0,0,0,0,0,0
			c0,0,0,0,0,0c0-0.1,0.1-0.2,0.1-0.4l0-0.4v-0.2l0-0.7l0-0.2l0-0.7V137l0-0.7v-0.2l0-0.7l0-0.2l0-0.7v-0.2l0-0.7v-0.2l0-6.8
			c0-0.6-0.5-1.1-1.1-1.1l-6.4,0c-0.6,0-1.1,0.5-1.1,1.1l0,12.9c0,0.6,0.5,1.1,1.1,1.1l6.4,0h0.1c0,0,0.1,0,0.1,0
			c0.1,0,0.3-0.1,0.4-0.2C136.4,140.5,136.6,140.1,136.6,140.1z M128.7,127.5h7.6v4.8v0.4v0.7v0.2v0.7v0.2v0.7v0.2v0.7v0.2v0.7v0
			h-7.6V127.5z M129.3,125.9h6.4c0.3,0,0.6,0.3,0.6,0.6v0.4h-7.6v-0.4C128.7,126.2,129,125.9,129.3,125.9z M135.7,140.1h-6.4
			c-0.3,0-0.6-0.3-0.6-0.6v-1.9h7.6v0.4v0.2v0.7v0.2v0.4c0,0.1,0,0.2,0,0.2c0,0,0,0.1-0.1,0.1C136.1,140,135.9,140.1,135.7,140.1z"
			/>
	</g>
	<text transform="matrix(1 0 0 1 128.0701 144.2852)" class="st3 st4 st5">HTML5</text>
</g>
<g>
	<g>
		<path class="st3" d="M151.6,137.8c-0.6,0-1,0.5-1,1s0.5,1,1,1c0.6,0,1-0.5,1-1C152.6,138.3,152.2,137.8,151.6,137.8z M151.6,139.3
			c-0.3,0-0.5-0.2-0.5-0.5c0-0.3,0.2-0.5,0.5-0.5s0.5,0.2,0.5,0.5C152.1,139.1,151.9,139.3,151.6,139.3z"/>
		<path class="st3" d="M150.6,126.7h1c0.1,0,0.3-0.1,0.3-0.3c0-0.1-0.1-0.3-0.3-0.3h-1c-0.1,0-0.3,0.1-0.3,0.3
			C150.3,126.6,150.4,126.7,150.6,126.7z"/>
		<path class="st3" d="M152.4,126.7h0.3c0.1,0,0.3-0.1,0.3-0.3c0-0.1-0.1-0.3-0.3-0.3h-0.3c-0.1,0-0.3,0.1-0.3,0.3
			C152.1,126.6,152.2,126.7,152.4,126.7z"/>
		<path class="st3" d="M155.7,140.1C155.7,140.1,155.7,140.1,155.7,140.1c0-0.1,0.1-0.1,0.1-0.2c0,0,0,0,0,0c0,0,0,0,0,0
			c0,0,0,0,0,0c0-0.1,0.1-0.2,0.1-0.4l0-0.4v-0.2l0-0.7l0-0.2l0-0.7l0-0.2l0-0.7v-0.2l0-0.7v-0.2l0-0.7v-0.2l0-0.7v-0.2l0-6.8
			c0-0.6-0.5-1.1-1.1-1.1l-6.4,0c-0.6,0-1.1,0.5-1.1,1.1l0,12.9c0,0.6,0.5,1.1,1.1,1.1l6.4,0h0.1c0,0,0.1,0,0.1,0
			c0.1,0,0.3-0.1,0.4-0.2C155.5,140.5,155.7,140.1,155.7,140.1z M147.8,127.5h7.6v4.8v0.4v0.7v0.2v0.7v0.2v0.7v0.2v0.7v0.2v0.7v0
			h-7.6V127.5z M148.4,125.9h6.4c0.3,0,0.6,0.3,0.6,0.6v0.4h-7.6v-0.4C147.8,126.2,148.1,125.9,148.4,125.9z M154.8,140.1h-6.4
			c-0.3,0-0.6-0.3-0.6-0.6v-1.9h7.6v0.4v0.2v0.7v0.2v0.4c0,0.1,0,0.2,0,0.2c0,0,0,0.1-0.1,0.1C155.2,140,155,140.1,154.8,140.1z"/>
	</g>
	<text transform="matrix(1 0 0 1 147.1521 144.2852)" class="st3 st4 st5">Android</text>
</g>
<g>
	<g>
		<path class="st3" d="M172,137.8c-0.6,0-1,0.5-1,1s0.5,1,1,1c0.6,0,1-0.5,1-1C173.1,138.3,172.6,137.8,172,137.8z M172,139.3
			c-0.3,0-0.5-0.2-0.5-0.5c0-0.3,0.2-0.5,0.5-0.5c0.3,0,0.5,0.2,0.5,0.5C172.5,139.1,172.3,139.3,172,139.3z"/>
		<path class="st3" d="M171,126.7h1c0.1,0,0.3-0.1,0.3-0.3c0-0.1-0.1-0.3-0.3-0.3h-1c-0.1,0-0.3,0.1-0.3,0.3
			C170.8,126.6,170.9,126.7,171,126.7z"/>
		<path class="st3" d="M172.8,126.7h0.3c0.1,0,0.3-0.1,0.3-0.3c0-0.1-0.1-0.3-0.3-0.3h-0.3c-0.1,0-0.3,0.1-0.3,0.3
			C172.5,126.6,172.7,126.7,172.8,126.7z"/>
		<path class="st3" d="M176.2,140.1C176.2,140.1,176.2,140.1,176.2,140.1c0-0.1,0.1-0.1,0.1-0.2c0,0,0,0,0,0c0,0,0,0,0,0
			c0,0,0,0,0,0c0-0.1,0.1-0.2,0.1-0.4v-0.4v-0.2l0-0.7l0-0.2v-0.7l0-0.2l0-0.7v-0.2l0-0.7l0-0.2l0-0.7v-0.2l0-0.7v-0.2l0-6.8
			c0-0.6-0.5-1.1-1.1-1.1l-6.4,0c-0.6,0-1.1,0.5-1.1,1.1l0,12.9c0,0.6,0.5,1.1,1.1,1.1l6.4,0h0.1c0,0,0.1,0,0.1,0
			c0.1,0,0.3-0.1,0.4-0.2C175.9,140.5,176.2,140.1,176.2,140.1z M168.2,127.5h7.6v4.8v0.4v0.7v0.2v0.7v0.2v0.7v0.2v0.7v0.2v0.7v0
			h-7.6V127.5z M168.9,125.9h6.4c0.3,0,0.6,0.3,0.6,0.6v0.4h-7.6v-0.4C168.2,126.2,168.5,125.9,168.9,125.9z M175.2,140.1h-6.4
			c-0.3,0-0.6-0.3-0.6-0.6v-1.9h7.6v0.4v0.2v0.7v0.2v0.4c0,0.1,0,0.2,0,0.2c0,0,0,0.1-0.1,0.1C175.6,140,175.4,140.1,175.2,140.1z"
			/>
	</g>
	<text transform="matrix(1 0 0 1 167.5964 144.2852)" class="st3 st4 st5">HTML5</text>
</g>
<g>
	<g>
		<line class="st1" x1="28.9" y1="17.2" x2="39" y2="6.6"/>
		<line class="st1" x1="39.2" y1="16.9" x2="28.6" y2="6.8"/>
	</g>
	<g>
		<line class="st1" x1="34.1" y1="19.2" x2="33.8" y2="4.6"/>
		<line class="st1" x1="41.2" y1="11.7" x2="26.6" y2="12"/>
	</g>
	<circle class="st2" cx="33.7" cy="11.5" r="2.7"/>
</g>
<g>
	<g>
		<rect x="48.8" y="4.2" class="st0" width="14.5" height="14.5"/>
	</g>
</g>
<g>
	<line class="st1" x1="48.8" y1="18.8" x2="63.3" y2="4.2"/>
	<line class="st1" x1="63.3" y1="18.8" x2="48.8" y2="4.2"/>
	<circle class="st2" cx="56" cy="11.5" r="2.7"/>
</g>
<g>
	<circle class="st6" cx="192" cy="8.9" r="0.5"/>
	<circle class="st6" cx="194.1" cy="8.9" r="0.5"/>
	<circle class="st6" cx="196.1" cy="8.9" r="0.5"/>
</g>
<g>
	<path class="st3" d="M128.8,32.8l1,11.1l4.4,1.3l4.5-1.3l1-11.1L128.8,32.8L128.8,32.8z M137.6,36.4h-5.2l0.1,1.4h5l-0.4,4.2
		l-2.8,0.8v0h0l-2.8-0.8l-0.2-2.1h1.4l0.1,1.1l1.5,0.4l1.5-0.4l0.2-1.8h-4.7l-0.4-4.1h6.8L137.6,36.4z"/>
	<g>
		<path class="st3" d="M129.9,30.1h0.7v0.8h0.7v-0.8h0.7v2.2h-0.7v-0.8h-0.7v0.8h-0.7V30.1z"/>
		<path class="st3" d="M132.8,30.7h-0.6v-0.6h2v0.6h-0.6v1.6h-0.7L132.8,30.7L132.8,30.7L132.8,30.7z"/>
		<path class="st3" d="M134.4,30.1h0.8l0.5,0.8l0.5-0.8h0.8v2.2h-0.7v-1.1l-0.5,0.8h0l-0.5-0.8v1.1h-0.7L134.4,30.1
			C134.4,30.1,134.4,30.1,134.4,30.1z"/>
		<path class="st3" d="M137.1,30.1h0.7v1.6h1v0.6h-1.8L137.1,30.1L137.1,30.1z"/>
	</g>
</g>
<g>
	<g class="st7">
		<path class="st3" d="M88.4,44.2v0.4h0.4v0.2h-0.4v0.8c0,0.2,0.1,0.3,0.2,0.3c0.1,0,0.1,0,0.2,0l0,0.2c-0.1,0-0.1,0-0.2,0
			c-0.1,0-0.2,0-0.3-0.1c-0.1-0.1-0.1-0.2-0.1-0.4v-0.8h-0.2v-0.2h0.2v-0.3L88.4,44.2z"/>
		<path class="st3" d="M89.4,44.2c0,0.1-0.1,0.2-0.2,0.2c-0.1,0-0.2-0.1-0.2-0.2c0-0.1,0.1-0.2,0.2-0.2C89.3,44,89.4,44.1,89.4,44.2
			z M89.1,46.1v-1.5h0.3v1.5H89.1z"/>
		<path class="st3" d="M90.1,44.2v0.4h0.4v0.2h-0.4v0.8c0,0.2,0.1,0.3,0.2,0.3c0.1,0,0.1,0,0.2,0l0,0.2c-0.1,0-0.1,0-0.2,0
			c-0.1,0-0.2,0-0.3-0.1c-0.1-0.1-0.1-0.2-0.1-0.4v-0.8h-0.2v-0.2h0.2v-0.3L90.1,44.2z"/>
		<path class="st3" d="M91.6,46.1l0-0.2h0c-0.1,0.1-0.2,0.2-0.4,0.2c-0.3,0-0.4-0.2-0.4-0.4c0-0.4,0.3-0.5,0.9-0.5v0
			c0-0.1,0-0.3-0.3-0.3c-0.1,0-0.3,0-0.4,0.1l-0.1-0.2c0.1-0.1,0.3-0.1,0.5-0.1c0.4,0,0.6,0.3,0.6,0.6v0.5c0,0.1,0,0.2,0,0.3H91.6z
			 M91.6,45.3c-0.3,0-0.6,0-0.6,0.3c0,0.2,0.1,0.3,0.2,0.3c0.2,0,0.3-0.1,0.4-0.2c0,0,0-0.1,0-0.1L91.6,45.3L91.6,45.3z"/>
		<path class="st3" d="M92.2,45c0-0.1,0-0.3,0-0.4h0.2l0,0.2h0c0.1-0.1,0.2-0.3,0.5-0.3c0.2,0,0.5,0.1,0.5,0.6v0.9h-0.3v-0.8
			c0-0.2-0.1-0.4-0.3-0.4c-0.2,0-0.3,0.1-0.4,0.3c0,0,0,0.1,0,0.1v0.9h-0.3L92.2,45L92.2,45z"/>
		<path class="st3" d="M94.2,44.2c0,0.1-0.1,0.2-0.2,0.2c-0.1,0-0.2-0.1-0.2-0.2c0-0.1,0.1-0.2,0.2-0.2C94.1,44,94.2,44.1,94.2,44.2
			z M93.9,46.1v-1.5h0.3v1.5H93.9z"/>
		<path class="st3" d="M95.8,45.7c0,0.2,0,0.3,0,0.4h-0.2l0-0.2h0c-0.1,0.1-0.2,0.3-0.5,0.3c-0.2,0-0.5-0.1-0.5-0.6v-0.9h0.3v0.8
			c0,0.3,0.1,0.5,0.3,0.5c0.2,0,0.3-0.1,0.3-0.2c0,0,0-0.1,0-0.1v-0.9h0.3L95.8,45.7L95.8,45.7z"/>
		<path class="st3" d="M96.3,45c0-0.1,0-0.3,0-0.4h0.2l0,0.2h0c0.1-0.1,0.2-0.3,0.5-0.3c0.2,0,0.3,0.1,0.4,0.3h0
			c0-0.1,0.1-0.1,0.2-0.2c0.1-0.1,0.2-0.1,0.3-0.1c0.2,0,0.5,0.1,0.5,0.6v0.9h-0.3v-0.8c0-0.3-0.1-0.4-0.3-0.4
			c-0.1,0-0.3,0.1-0.3,0.2c0,0,0,0.1,0,0.1v0.9h-0.3v-0.9c0-0.2-0.1-0.4-0.3-0.4c-0.2,0-0.3,0.1-0.3,0.3c0,0,0,0.1,0,0.1v0.9h-0.3
			L96.3,45L96.3,45z"/>
	</g>
	<g>
		<g>
			<path class="st3" d="M97.8,33.7l-1.5-1.4c-0.4-0.4-0.9-0.2-0.9-0.2c-1.8,0.4-3.8,2.2-3.8,2.2c-2.5,2.2-3.5,4.6-3.5,4.6
				c-0.5,1,0,1.5,0,1.5l1.4,1.5c1.4,1.8,5.5-2.3,5.5-2.3c3-2.8,3.1-4.7,3.1-4.7C98.3,33.9,97.8,33.7,97.8,33.7z M89.9,40
				c0,0,1.1-4.8,6.1-6.1C95.9,33.9,95.2,38.9,89.9,40z"/>
		</g>
		<g>
			<path class="st3" d="M87.6,34.8c0,0,0.2,1.8,3.1,4.7c0,0,4.1,4.1,5.5,2.3l1.4-1.5c0,0,0.5-0.5,0-1.5c0,0-1-2.3-3.5-4.6
				c0,0-2-1.8-3.8-2.2c0,0-0.5-0.1-0.9,0.2l-1.5,1.4C87.9,33.6,87.4,33.9,87.6,34.8z M89.8,33.8c5,1.3,6.1,6.1,6.1,6.1
				C90.3,39,89.8,33.8,89.8,33.8z"/>
		</g>
	</g>
</g>
<g>
	<g>
		<g>
			<g>
				<g>
					<path class="st3" d="M70.6,31.3L70.6,31.3c0-0.1,0.1-0.2,0.1-0.2c-0.8,0.8-0.7,1.8-0.4,2.6c0.3,0.5,0.8,1,1.4,1.3
						c0.3,0.1,0.7,0.2,1.1,0.2c0.9,0,1.6-0.5,2-1.2l0-0.1c-0.3,0.3-0.9,0.6-1.3,0.6C71.8,34.7,70,33.1,70.6,31.3z"/>
				</g>
				<g>
					<path class="st3" d="M73,31.5c0.2,0.4,0.7,0.7,1.4,0.6c0.2,0,0.6-0.3,0.6-0.5c-0.6,0.4-1,0.3-1.1,0.2c0,0-0.1-0.1-0.2-0.1
						c-0.2-0.1-0.3-0.2-0.4-0.4C73.1,31.2,73,31,73,30.9c0-0.2,0-0.4,0.1-0.7c-0.3,0.2-0.3,0.7-0.2,1C72.9,31.3,72.9,31.5,73,31.5z"
						/>
				</g>
				<g>
					<path class="st3" d="M73.1,33.5c0.9,0.1,1.6-0.3,1.9-0.9c-0.3,0.3-0.7,0.5-1.2,0.5c-1,0-2.1-0.9-2-2.1c0-0.1,0.1-0.3,0.2-0.5
						c-0.3,0.4-0.5,0.8-0.5,1.3C71.6,32.6,72.4,33.4,73.1,33.5z"/>
				</g>
			</g>
			<g>
				<g>
					<path class="st3" d="M78.9,35.8l-1.1,1.5L77.7,37H77c0,0,0.1,0.4,0.1,0.6c0.1,0.2,0.1,0.4,0.1,0.6c0,0.2-0.1,0.6-0.1,0.6l0.7,0
						c0,0,0.1-0.4,0.2-0.6c0-0.1,0.1-0.1,0.1-0.2c0.1-0.2,1.6-2.1,1.6-2.1L78.9,35.8z"/>
				</g>
				<g>
					<path class="st3" d="M77.4,36.2c-0.2-0.1-0.5-0.1-0.8-0.1h-0.5c-0.3,0-0.5,0-0.5,0.1c-0.1,0.4-0.5,2.4-0.5,2.4h0.7l0.4-1.9h0.3
						c0.4,0,1.2,0,1.2,0S77.6,36.3,77.4,36.2z"/>
				</g>
				<g>
					<path class="st3" d="M74.9,36.4c-0.1-0.2-0.4-0.3-0.6-0.3c-0.5-0.1-0.9,0.1-1.1,0.2c-0.1,0.1-0.1,0.1-0.2,0.1c0,0,0,0-0.1,0.1
						c0,0,0,0,0,0.1c0,0,0,0.1-0.1,0.1c0,0,0,0.1-0.1,0.1c-0.1,0.3-0.3,1-0.2,1.3c0,0.1,0.1,0.1,0.1,0.1c0,0,0,0.1,0.1,0.1
						c0.1,0.1,0.2,0.1,0.3,0.2c0.5,0.1,1.6,0.1,1.6,0.1l0.1-0.6c0,0-0.8,0-1.1,0c-0.1,0-0.2,0-0.3-0.1c-0.1-0.1-0.1-0.2-0.1-0.3
						c0-0.1,0.2,0,0.4-0.1c0.4,0,1.3,0,1.3,0s0.2-0.7,0.1-1C75,36.6,75,36.5,74.9,36.4z M74.4,37.1l-1,0c0,0,0-0.4,0.6-0.4
						c0.2,0,0.3,0,0.3,0.2C74.4,37,74.4,37.1,74.4,37.1z"/>
				</g>
				<g>
					<path class="st3" d="M72,36.2l-0.5,1.9c0,0-0.2,0-0.3,0c-0.2,0-0.3,0-0.4-0.1c-0.1-0.1,0-0.3,0-0.4c0.1-0.4,0.3-1.3,0.3-1.3
						l-0.7,0c0,0-0.1,0.6-0.2,0.9c-0.1,0.4-0.3,1-0.1,1.3c0.2,0.4,0.6,0.3,1.2,0.3h0.7c0.2-0.8,0.5-2.5,0.5-2.5L72,36.2z"/>
				</g>
				<g>
					<path class="st3" d="M69.9,36.5c0-0.3-0.2-0.6-0.4-0.7c0,0,0,0-0.1,0c-0.1-0.1-0.4-0.2-0.6-0.2c-0.9-0.1-1.4,0.3-1.7,0.8
						c-0.1,0.2-0.2,0.4-0.2,0.7c-0.1,0.3-0.1,0.6-0.1,0.9c0,0.2,0.1,0.4,0.2,0.6c0.3,0.3,1,0.3,1.7,0.3c0.2,0,0.7,0,0.9,0
						c0.1,0,0.2-0.6,0.2-0.6c0,0-0.2,0-0.4,0C69.7,37.6,70,37,69.9,36.5z M69.1,37.4c-0.1,0.2-0.1,0.5-0.2,0.7c-0.5,0-1,0.1-1.1-0.3
						c-0.1-0.2,0-0.4,0-0.6c0.1-0.3,0.1-0.5,0.3-0.7c0.1-0.1,0.5-0.3,0.9-0.2c0.1,0,0.3,0.2,0.3,0.5C69.2,36.9,69.1,37.1,69.1,37.4z
						"/>
				</g>
				<g>
					<path class="st3" d="M66,36.8h0.7c0-0.2,0.1-0.4,0.1-0.6c-0.2,0-0.5,0-0.7,0C66.1,36.4,66.1,36.6,66,36.8z"/>
				</g>
				<g>
					<path class="st3" d="M65.7,38.1c-0.1,0.5-0.1,1-0.7,0.9c-0.1,0.2-0.1,0.4-0.2,0.6c0.2,0,0.4,0,0.6,0c0.1,0,0.3-0.1,0.4-0.1
						c0,0,0,0,0.1,0c0.2-0.2,0.3-0.4,0.4-0.8c0.1-0.5,0.3-1.3,0.4-1.8H66C66,37.1,65.8,37.8,65.7,38.1z"/>
				</g>
			</g>
		</g>
	</g>
</g>
<g>
	<polygon class="st8" points="18,191 16.9,178.2 29.4,178.2 28.2,191 23.1,192.4 	"/>
	<polygon class="st9" points="23.1,191.3 27.3,190.2 28.2,179.3 23.1,179.3 	"/>
	<polygon class="st10" points="23.1,184 21.1,184 20.9,182.4 23.1,182.4 23.1,180.8 23.1,180.8 19.2,180.8 19.2,181.3 19.6,185.6 
		23.1,185.6 	"/>
	<polygon class="st10" points="23.1,188.1 23.1,188.1 21.4,187.6 21.3,186.4 20.4,186.4 19.7,186.4 19.9,188.8 23.1,189.7 
		23.1,189.7 	"/>
	<path class="st6" d="M18,174.8h0.8v0.8h0.7v-0.8h0.8v2.4h-0.8v-0.8h-0.7v0.8H18V174.8L18,174.8z"/>
	<path class="st6" d="M21.4,175.6h-0.7v-0.8h2.2v0.8h-0.7v1.6h-0.8L21.4,175.6L21.4,175.6z"/>
	<path class="st6" d="M23.2,174.8h0.8l0.5,0.8l0.5-0.8h0.8v2.4h-0.8V176l-0.5,0.8h0L24,176v1.2h-0.8V174.8z"/>
	<path class="st6" d="M26.3,174.8h0.8v1.6h1.1v0.8h-1.9V174.8z"/>
	<polygon class="st0" points="23.1,184 23.1,185.6 25,185.6 24.9,187.6 23.1,188.1 23.1,189.7 26.3,188.8 26.3,188.5 26.7,184.4 
		26.8,184 26.3,184 	"/>
	<polygon class="st0" points="23.1,180.8 23.1,181.8 23.1,182.4 23.1,182.4 26.9,182.4 26.9,182.4 26.9,182.4 26.9,182.1 27,181.3 
		27,180.8 	"/>
</g>
<g>
	<g>
		<path class="st11" d="M72.4,193.1c-0.4,0-0.7-0.3-0.7-0.7v-14.1c0-0.4,0.3-0.7,0.7-0.7h9.8c0.4,0,0.7,0.3,0.7,0.7v14.1
			c0,0.4-0.3,0.7-0.7,0.7H72.4z"/>
		<circle class="st0" cx="77.3" cy="191.6" r="0.6"/>
	</g>
	<g>
		<path class="st12" d="M58.2,190.9c0,0.3-0.2,0.5-0.5,0.5h-3.2c-0.3,0-0.5-0.2-0.5-0.5v-6.3c0-0.3,0.2-0.5,0.5-0.5h3.2
			c0.3,0,0.5,0.2,0.5,0.5V190.9z"/>
		<line class="st13" x1="58.2" y1="185.1" x2="54" y2="185.1"/>
		<line class="st13" x1="58.2" y1="189.8" x2="54" y2="189.8"/>
		<circle class="st0" cx="56.1" cy="190.5" r="0.4"/>
		<g>
			<path class="st0" d="M55.6,184.7h0.5c0.1,0,0.1-0.1,0.1-0.1c0-0.1-0.1-0.1-0.1-0.1h-0.5c-0.1,0-0.1,0.1-0.1,0.1
				C55.5,184.7,55.5,184.7,55.6,184.7z"/>
			<path class="st0" d="M56.5,184.7h0.1c0.1,0,0.1-0.1,0.1-0.1c0-0.1-0.1-0.1-0.1-0.1h-0.1c-0.1,0-0.1,0.1-0.1,0.1
				C56.3,184.7,56.4,184.7,56.5,184.7z"/>
		</g>
	</g>
	<path class="st14" d="M68.4,188.2h-2v-1.2h4.2v-9.6c0-0.4,0.3-0.7,0.7-0.7h4.3v-2.4c0-0.5-0.4-0.9-0.9-0.9H56.1
		c-0.5,0-0.9,0.4-0.9,0.9v9.3H58c0.5,0,0.8,0.4,0.8,0.8v2.7h5.6v1.2h-2c-0.3,0-0.5,0.2-0.5,0.5c0,0.3,0.2,0.5,0.5,0.5h6
		c0.3,0,0.5-0.2,0.5-0.5C68.9,188.5,68.7,188.2,68.4,188.2z"/>
</g>
<g>
	<path class="st15" d="M110.8,179.6h-0.9l2.5,7l1.4-3.9l-1.1-3h-1v-0.7h4.2v0.7h-1l2.5,7l0.9-2.5c1.2-3.2-1-4.3-1-5
		c0-0.7,0.6-1.3,1.3-1.3c0,0,0.1,0,0.1,0c-1.2-1.2-2.9-1.9-4.7-1.9c-2.4,0-4.5,1.2-5.7,3.1h2.4L110.8,179.6L110.8,179.6L110.8,179.6
		L110.8,179.6z"/>
	<path class="st15" d="M107.2,182.7c0,2.6,1.5,4.9,3.6,6.1l-3.1-8.7C107.4,180.9,107.2,181.8,107.2,182.7z"/>
	<path class="st15" d="M120,179.4c0.1,0.6,0.1,1.2-0.1,1.9h0l-0.1,0.3l0,0c-0.1,0.2-0.1,0.4-0.2,0.6l-2.4,6.6c2.2-1.2,3.6-3.4,3.6-6
		C120.9,181.5,120.6,180.4,120,179.4z"/>
	<path class="st15" d="M111.9,189.3c0.7,0.2,1.4,0.3,2.1,0.3c0.7,0,1.4-0.1,2-0.3l-2-5.7L111.9,189.3z"/>
	<path class="st15" d="M119.8,177c-1.5-1.5-3.6-2.4-5.8-2.4c-2.2,0-4.2,0.9-5.8,2.4c-1.5,1.5-2.4,3.6-2.4,5.8c0,2.2,0.9,4.2,2.4,5.8
		c1.5,1.5,3.6,2.4,5.8,2.4c2.2,0,4.2-0.9,5.8-2.4c1.5-1.5,2.4-3.6,2.4-5.8C122.2,180.6,121.4,178.5,119.8,177z M114,190.3
		c-4.2,0-7.6-3.4-7.6-7.6c0-4.2,3.4-7.6,7.6-7.6c4.2,0,7.6,3.4,7.6,7.6C121.7,186.9,118.2,190.3,114,190.3z"/>
</g>
<path class="st16" d="M161.6,179.1v11.6l-1.1,0.7l-1.1-0.7v-11.6l-3,1.8v9.9l4.1,2.5l4.1-2.5V181L161.6,179.1z M160.5,173l-8.6,5.2
	v9.9l2.2,1.3v-9.9l6.4-3.9l6.4,3.9l0,0l0,9.9l2.2-1.3v-9.9L160.5,173z"/>
<g>
	<path class="st17" d="M202.7,178.7c0.7-0.7,1.7-0.7,2.4,0l0.2,0.2l2-2l-0.2-0.2c-1.1-1.1-2.8-1.5-4.2-1.2c-0.2-1.3-1.3-2.3-2.7-2.3
		c-1.5,0-2.7,1.2-2.7,2.7c0,1.3,0.9,2.4,2.1,2.7c-0.5,1.5-0.1,3.3,1.1,4.5l4.5,4.5l2-2l-4.5-4.5C202,180.4,202,179.4,202.7,178.7z"
		/>
	<path class="st18" d="M217.7,175.9c0-1.5-1.2-2.7-2.7-2.7c-1.4,0-2.5,1-2.7,2.4c-1.5-0.5-3.3-0.1-4.5,1.1l-4.5,4.5l2,2l4.5-4.5
		c0.7-0.7,1.7-0.7,2.4,0c0.7,0.6,0.7,1.7,0,2.4l-0.1,0.2l2,2l0.2-0.2c1.2-1.2,1.6-2.9,1.1-4.4C216.7,178.5,217.7,177.3,217.7,175.9z
		"/>
	<path class="st19" d="M215.4,188.2c0.4-1.5,0-3.1-1.2-4.3l-4.5-4.5l-2,2l4.5,4.5c0.7,0.7,0.7,1.7,0,2.4c-0.7,0.6-1.7,0.6-2.4,0
		l-0.1-0.2l-2,2l0.2,0.2c1.2,1.2,3,1.6,4.5,1.1c0.2,1.2,1.4,2.2,2.7,2.2c1.5,0,2.7-1.2,2.7-2.7C217.8,189.5,216.7,188.3,215.4,188.2
		z"/>
	<path class="st20" d="M209.6,183.7l-4.5,4.5c-0.6,0.6-1.7,0.6-2.4,0c-0.6-0.7-0.6-1.7,0-2.4l0.2-0.2l-2-2l-0.2,0.2
		c-1.2,1.2-1.6,2.8-1.2,4.3c-1.2,0.3-2.1,1.4-2.1,2.7c0,1.5,1.2,2.7,2.7,2.7c1.3,0,2.4-0.9,2.7-2.1c1.5,0.4,3.1,0,4.3-1.2l4.5-4.5
		L209.6,183.7z"/>
</g>
<g>
	<path id="Drupal" class="st21" d="M257.9,176.2c-1.2-0.7-2.3-1-3.4-1.7c-0.7-0.5-1.6-1.6-2.4-2.5c-0.2,1.5-0.6,2.1-1.1,2.6
		c-1.1,0.9-1.8,1.1-2.8,1.7c-0.8,0.4-5.3,3.1-5.3,8.8c0,5.7,4.8,9.9,10.1,9.9c5.3,0,10-3.9,10-9.7
		C263,179.3,258.7,176.6,257.9,176.2z M258,192.6c-0.1,0.1-1.1,0.8-2.3,0.9c-1.2,0.1-2.8,0.2-3.8-0.7c-0.2-0.2-0.1-0.4,0-0.5
		c0.1-0.1,0.2-0.2,0.3-0.2c0.1,0,0.1,0,0.2,0c0.4,0.4,1.1,0.6,2.5,0.6c1.4,0,2.4-0.4,2.9-0.7c0.2-0.2,0.3,0,0.3,0.1
		C258.1,192.3,258.2,192.5,258,192.6z M254.2,190.8c0.2-0.2,0.6-0.6,1-0.7c0.4-0.2,0.6-0.1,0.9-0.1c0.4,0,0.7,0,1,0.2
		c0.3,0.2,0.4,0.6,0.5,0.8c0.1,0.2,0,0.4-0.2,0.4c-0.1,0.1-0.2,0-0.3-0.2c-0.1-0.3-0.3-0.6-1.1-0.6c-0.8,0-1,0.3-1.4,0.6
		c-0.4,0.3-0.5,0.4-0.6,0.2C253.9,191.2,254,191,254.2,190.8z M262.2,186.6c0,0.7-0.2,1.9-0.8,2.7c-0.5,0.8-0.9,1.1-1.5,1
		c-0.8-0.1-2.4-2.5-3.4-2.6c-1.3,0-4.1,2.7-6.3,2.7c-1.3,0-1.7-0.2-2.2-0.5c-0.7-0.5-1-1.2-1-2.1c0-1.7,1.6-3.3,3.7-3.4
		c2.6,0,4.4,2.6,5.7,2.5c1.1,0,3.2-2.2,4.3-2.2C261.9,184.7,262.2,185.9,262.2,186.6z"/>
</g>
<g>
	<g class="st7">
		<path class="st3" d="M148.9,43c0,0.2-0.1,0.3-0.3,0.3c-0.2,0-0.3-0.1-0.3-0.3c0-0.2,0.1-0.3,0.3-0.3
			C148.7,42.7,148.8,42.8,148.9,43z M148.3,45.3v-1.9h0.6v1.9H148.3z"/>
		<path class="st3" d="M149.3,42.8c0.2,0,0.4-0.1,0.8-0.1c0.4,0,0.6,0.1,0.8,0.2c0.2,0.1,0.3,0.3,0.3,0.6c0,0.2-0.1,0.5-0.2,0.6
			c-0.2,0.2-0.5,0.3-0.8,0.3c-0.1,0-0.1,0-0.2,0v0.9h-0.6V42.8z M149.9,44c0.1,0,0.1,0,0.2,0c0.3,0,0.5-0.2,0.5-0.4
			c0-0.2-0.2-0.4-0.5-0.4c-0.1,0-0.2,0-0.2,0L149.9,44L149.9,44z"/>
		<path class="st3" d="M151.5,42.7h0.6v1.1h0c0.1-0.1,0.1-0.1,0.2-0.2c0.1,0,0.2-0.1,0.3-0.1c0.4,0,0.6,0.3,0.6,0.8v1.1h-0.6v-1
			c0-0.2-0.1-0.4-0.3-0.4c-0.1,0-0.2,0.1-0.3,0.2c0,0,0,0.1,0,0.1v1.1h-0.6L151.5,42.7L151.5,42.7z"/>
		<path class="st3" d="M155.5,44.4c0,0.7-0.5,1-1,1c-0.5,0-1-0.4-1-1s0.4-1,1-1C155.2,43.5,155.5,43.8,155.5,44.4z M154.2,44.4
			c0,0.3,0.1,0.6,0.4,0.6c0.2,0,0.4-0.2,0.4-0.6c0-0.3-0.1-0.6-0.4-0.6C154.3,43.9,154.2,44.2,154.2,44.4z"/>
		<path class="st3" d="M155.9,44.1c0-0.2,0-0.4,0-0.6h0.5l0,0.3h0c0.1-0.1,0.3-0.3,0.6-0.3c0.4,0,0.7,0.2,0.7,0.8v1.1h-0.6v-1
			c0-0.2-0.1-0.4-0.3-0.4c-0.2,0-0.3,0.1-0.3,0.2c0,0,0,0.1,0,0.1v1.1h-0.6L155.9,44.1L155.9,44.1z"/>
		<path class="st3" d="M158.5,44.6c0,0.2,0.3,0.4,0.5,0.4c0.2,0,0.4,0,0.5-0.1l0.1,0.4c-0.2,0.1-0.4,0.1-0.7,0.1c-0.6,0-1-0.4-1-0.9
			c0-0.5,0.3-1,0.9-1c0.6,0,0.8,0.5,0.8,0.9c0,0.1,0,0.2,0,0.2L158.5,44.6L158.5,44.6L158.5,44.6z M159.2,44.2
			c0-0.1-0.1-0.4-0.3-0.4c-0.2,0-0.3,0.2-0.4,0.4H159.2z"/>
	</g>
	<g>
		<g>
			<path class="st3" d="M153.8,31.3c-0.1-0.8,0.5-2.6,2.4-2.9C156.4,29.7,155.3,31.3,153.8,31.3z"/>
			<g>
				<path class="st3" d="M158.7,32.4c-0.6-0.6-1.2-1.2-2.4-1.3c-1,0-1.4,0.5-2.3,0.6c-0.8,0-0.8-0.6-2.5-0.5
					c-1.5,0.2-2.8,1.7-2.7,3.7c0.1,2.3,1.7,5.4,3.1,5.4c1,0,1.3-0.5,2.1-0.5c1.1,0,1.3,0.6,2.1,0.5c1.4-0.2,2.8-2.5,2.8-3.2
					c-0.8-0.4-1.6-1.1-1.7-2.3C157.3,33.6,158.1,32.9,158.7,32.4z"/>
			</g>
		</g>
	</g>
</g>
<g>
	<g class="st7">
		<path class="st3" d="M168.3,44.7l-0.2,0.7h-0.3l0.8-2.2h0.3l0.8,2.2h-0.3l-0.2-0.7H168.3z M169.1,44.5l-0.2-0.6
			c-0.1-0.1-0.1-0.3-0.1-0.4h0c0,0.1-0.1,0.3-0.1,0.4l-0.2,0.6L169.1,44.5L169.1,44.5z"/>
		<path class="st3" d="M170,44.2c0-0.2,0-0.3,0-0.4h0.3l0,0.3h0c0.1-0.2,0.3-0.3,0.5-0.3c0.2,0,0.6,0.1,0.6,0.7v1h-0.3v-0.9
			c0-0.3-0.1-0.5-0.4-0.5c-0.2,0-0.3,0.1-0.4,0.3c0,0,0,0.1,0,0.1v1H170L170,44.2L170,44.2z"/>
		<path class="st3" d="M173.2,43V45c0,0.1,0,0.3,0,0.4H173l0-0.3h0c-0.1,0.2-0.3,0.3-0.5,0.3c-0.4,0-0.7-0.3-0.7-0.8
			c0-0.5,0.3-0.9,0.7-0.9c0.2,0,0.4,0.1,0.5,0.2h0v-1L173.2,43L173.2,43z M172.9,44.4c0,0,0-0.1,0-0.1c0-0.2-0.2-0.3-0.4-0.3
			c-0.3,0-0.5,0.3-0.5,0.6c0,0.3,0.2,0.6,0.5,0.6c0.2,0,0.4-0.1,0.4-0.3c0,0,0-0.1,0-0.1L172.9,44.4L172.9,44.4z"/>
		<path class="st3" d="M173.7,44.3c0-0.2,0-0.4,0-0.5h0.3l0,0.3h0c0.1-0.2,0.2-0.4,0.4-0.4c0,0,0.1,0,0.1,0V44c0,0-0.1,0-0.1,0
			c-0.2,0-0.4,0.2-0.4,0.4c0,0,0,0.1,0,0.1v0.9h-0.3L173.7,44.3L173.7,44.3z"/>
		<path class="st3" d="M176.2,44.6c0,0.6-0.4,0.9-0.8,0.9c-0.4,0-0.8-0.3-0.8-0.8c0-0.5,0.4-0.9,0.8-0.9
			C175.9,43.8,176.2,44.1,176.2,44.6z M174.9,44.6c0,0.4,0.2,0.6,0.5,0.6c0.3,0,0.5-0.3,0.5-0.6c0-0.3-0.1-0.6-0.5-0.6
			S174.9,44.3,174.9,44.6z"/>
		<path class="st3" d="M176.9,43.3c0,0.1-0.1,0.2-0.2,0.2c-0.1,0-0.2-0.1-0.2-0.2c0-0.1,0.1-0.2,0.2-0.2
			C176.8,43.2,176.9,43.2,176.9,43.3z M176.5,45.4v-1.6h0.3v1.6H176.5z"/>
		<path class="st3" d="M178.7,43V45c0,0.1,0,0.3,0,0.4h-0.3l0-0.3h0c-0.1,0.2-0.3,0.3-0.5,0.3c-0.4,0-0.7-0.3-0.7-0.8
			c0-0.5,0.3-0.9,0.7-0.9c0.2,0,0.4,0.1,0.5,0.2h0v-1L178.7,43L178.7,43z M178.4,44.4c0,0,0-0.1,0-0.1c0-0.2-0.2-0.3-0.4-0.3
			c-0.3,0-0.5,0.3-0.5,0.6c0,0.3,0.2,0.6,0.5,0.6c0.2,0,0.4-0.1,0.4-0.3c0,0,0-0.1,0-0.1L178.4,44.4L178.4,44.4z"/>
	</g>
	<g id="XMLID_1_">
		<g>
			<path class="st3" d="M175.6,29.3c0-0.2-0.2-0.4-0.4-0.4s-0.4,0.2-0.4,0.4c0,0.2,0.2,0.4,0.4,0.4
				C175.4,29.7,175.6,29.5,175.6,29.3z M172.3,29.3c0-0.2-0.2-0.4-0.4-0.4c-0.2,0-0.4,0.2-0.4,0.4c0,0.2,0.2,0.4,0.4,0.4
				C172.1,29.7,172.3,29.5,172.3,29.3z M176,27.1l-0.7,1c1.2,0.5,2,1.5,2,2.6h-7.5c0-1.1,0.8-2.1,2-2.6l-0.7-1c0,0,0-0.1,0-0.1
				c0,0,0.1,0,0.1,0l0.7,1c0.5-0.2,1-0.3,1.6-0.3c0.6,0,1.1,0.1,1.6,0.3l0.7-1c0,0,0.1-0.1,0.1,0C176,26.9,176.1,27,176,27.1z"/>
			<path class="st3" d="M179.3,36.1c-0.1,0.2-0.4,0.2-0.6,0.2c-0.5,0-0.8-0.4-0.8-0.8v-3.4c0-0.2,0.1-0.4,0.2-0.6
				c0.2-0.2,0.4-0.2,0.6-0.2c0.5,0,0.8,0.4,0.8,0.8v3.4C179.5,35.7,179.4,35.9,179.3,36.1z"/>
			<path class="st3" d="M169,36.1c-0.2,0.2-0.4,0.2-0.6,0.2c-0.5,0-0.8-0.4-0.8-0.8v-3.4c0-0.2,0.1-0.4,0.2-0.6
				c0.2-0.2,0.4-0.2,0.6-0.2c0.5,0,0.8,0.4,0.8,0.8v3.4C169.2,35.7,169.1,35.9,169,36.1z"/>
			<path class="st3" d="M176.3,38.1h-0.4V40c0,0.5-0.4,0.8-0.8,0.8c-0.5,0-0.8-0.4-0.8-0.8v-1.9h-1.4V40c0,0.5-0.4,0.8-0.8,0.8
				c-0.5,0-0.8-0.4-0.8-0.8v-1.9h-0.5c-0.9,0-0.9-0.4-0.9-0.9v-5.9h7.5v5.9C177.3,37.7,177.3,38.1,176.3,38.1z"/>
		</g>
	</g>
</g>
<g>
	<g>
		<g>
			<g>
				<g>
					<path class="st3" d="M109.5,34.5c0-0.2-0.2-0.3-0.3-0.3l-1.3-0.1c-0.2,0-0.3,0.1-0.3,0.3l0.2,2.9c0,0.2,0.2,0.3,0.3,0.3
						l1.4-0.3c0.2,0,0.3-0.1,0.3-0.3L109.5,34.5z M109.2,36.7l-0.9,0.1c-0.1,0-0.3-0.1-0.3-0.2L108,35c0-0.1,0.1-0.2,0.2-0.2l0.8,0
						c0.1,0,0.3,0.1,0.3,0.2l0.2,1.5C109.5,36.6,109.4,36.7,109.2,36.7z"/>
				</g>
			</g>
			<g>
				<g>
					<path class="st3" d="M112.1,33.3c0-0.3-0.3-0.5-0.6-0.5l-2.4-0.1c-0.3,0-0.6,0.3-0.6,0.6l0.4,5.5c0,0.3,0.3,0.5,0.6,0.5
						l2.6-0.5c0.3,0,0.6-0.3,0.6-0.6L112.1,33.3z M111.8,37.5l-2,0.2c-0.3,0-0.5-0.2-0.5-0.4l-0.3-3.1c0-0.2,0.2-0.4,0.5-0.5l1.9,0
						c0.3,0,0.5,0.2,0.5,0.4l0.3,2.8C112.2,37.3,112,37.5,111.8,37.5z"/>
				</g>
			</g>
			<g>
				<g>
					<path class="st3" d="M114.9,32c0-0.4-0.4-0.7-0.8-0.7l-3.1-0.2c-0.4,0-0.7,0.4-0.7,0.8l0.6,7.6c0,0.4,0.4,0.7,0.8,0.7l3.3-0.7
						c0.4,0,0.7-0.4,0.7-0.8L114.9,32z M114.5,37.9l-2.5,0.3c-0.3,0-0.6-0.2-0.6-0.6l-0.4-4.3c0-0.3,0.2-0.6,0.6-0.6l2.5,0.1
						c0.3,0,0.6,0.2,0.6,0.6l0.4,3.9C115.1,37.6,114.8,37.9,114.5,37.9z"/>
				</g>
			</g>
			<g>
				<g>
					<path class="st3" d="M118.1,31.3c0-0.5-0.5-0.9-1-0.9l-3.9-0.2c-0.5,0-0.9,0.5-0.9,1l0.7,9.2c0,0.5,0.5,0.9,1,0.9l4.2-0.8
						c0.5,0,0.9-0.5,0.9-1L118.1,31.3z M117.5,38.4l-3.1,0.4c-0.4,0-0.8-0.3-0.8-0.7l-0.4-5.3c0-0.4,0.3-0.8,0.7-0.8l3,0.1
						c0.4,0,0.8,0.3,0.8,0.7l0.5,4.8C118.2,38.1,117.9,38.4,117.5,38.4z"/>
				</g>
			</g>
		</g>
	</g>
	<g class="st7">
		<path class="st3" d="M106.5,44c0.1,0,0.4,0,0.6,0c0.3,0,0.5,0.1,0.6,0.2c0.1,0.1,0.2,0.3,0.2,0.5s-0.1,0.4-0.2,0.5
			c-0.2,0.2-0.4,0.2-0.7,0.2c-0.1,0-0.1,0-0.2,0v0.8h-0.5V44z M107,45c0,0,0.1,0,0.2,0c0.3,0,0.4-0.1,0.4-0.3c0-0.2-0.1-0.3-0.4-0.3
			c-0.1,0-0.2,0-0.2,0C107,44.4,107,45,107,45z"/>
		<path class="st3" d="M108.3,43.9h0.5v0.9h0c0.1-0.1,0.1-0.1,0.2-0.2c0.1,0,0.2-0.1,0.2-0.1c0.3,0,0.5,0.2,0.5,0.7v0.9h-0.5v-0.8
			c0-0.2-0.1-0.3-0.2-0.3c-0.1,0-0.2,0.1-0.2,0.2c0,0,0,0.1,0,0.1v0.9h-0.5L108.3,43.9L108.3,43.9z"/>
		<path class="st3" d="M111.7,45.3c0,0.6-0.4,0.8-0.8,0.8c-0.4,0-0.8-0.3-0.8-0.8c0-0.5,0.3-0.8,0.8-0.8
			C111.3,44.6,111.7,44.9,111.7,45.3z M110.5,45.4c0,0.3,0.1,0.5,0.3,0.5c0.2,0,0.3-0.2,0.3-0.5c0-0.2-0.1-0.5-0.3-0.5
			C110.6,44.9,110.5,45.1,110.5,45.4z"/>
		<path class="st3" d="M112,45.1c0-0.2,0-0.4,0-0.5h0.4l0,0.2h0c0.1-0.1,0.2-0.2,0.5-0.2c0.3,0,0.6,0.2,0.6,0.7v0.9h-0.5v-0.9
			c0-0.2-0.1-0.3-0.2-0.3c-0.1,0-0.2,0.1-0.2,0.2c0,0,0,0.1,0,0.1v0.9H112L112,45.1L112,45.1z"/>
		<path class="st3" d="M114.2,45.5c0,0.2,0.2,0.3,0.4,0.3c0.2,0,0.3,0,0.4-0.1l0.1,0.3c-0.2,0.1-0.3,0.1-0.6,0.1
			c-0.5,0-0.8-0.3-0.8-0.8c0-0.4,0.2-0.8,0.8-0.8c0.5,0,0.7,0.4,0.7,0.8c0,0.1,0,0.2,0,0.2C115.2,45.5,114.2,45.5,114.2,45.5z
			 M114.7,45.2c0-0.1-0.1-0.3-0.3-0.3c-0.2,0-0.3,0.2-0.3,0.3H114.7z"/>
		<path class="st3" d="M116.9,44.6c0,0.1,0,0.2,0,0.5v0.9c0,0.3-0.1,0.5-0.2,0.7c-0.2,0.1-0.4,0.2-0.6,0.2c-0.2,0-0.4,0-0.6-0.1
			l0.1-0.4c0.1,0.1,0.3,0.1,0.4,0.1c0.2,0,0.4-0.1,0.4-0.4v-0.1h0c-0.1,0.1-0.2,0.2-0.4,0.2c-0.4,0-0.7-0.3-0.7-0.8
			c0-0.5,0.3-0.8,0.7-0.8c0.2,0,0.3,0.1,0.4,0.2h0l0-0.2L116.9,44.6L116.9,44.6z M116.4,45.2C116.4,45.2,116.4,45.2,116.4,45.2
			c0-0.2-0.1-0.3-0.3-0.3c-0.2,0-0.3,0.2-0.3,0.4c0,0.2,0.1,0.4,0.3,0.4c0.1,0,0.2-0.1,0.3-0.2c0,0,0-0.1,0-0.1L116.4,45.2
			L116.4,45.2z"/>
		<path class="st3" d="M118.2,46.1l0-0.2h0c-0.1,0.1-0.3,0.2-0.4,0.2c-0.3,0-0.5-0.2-0.5-0.5c0-0.4,0.4-0.6,0.9-0.6v0
			c0-0.1,0-0.2-0.3-0.2c-0.2,0-0.3,0.1-0.4,0.1l-0.1-0.3c0.1-0.1,0.3-0.1,0.6-0.1c0.5,0,0.7,0.3,0.7,0.7v0.5c0,0.1,0,0.3,0,0.4
			L118.2,46.1L118.2,46.1z M118.1,45.4c-0.3,0-0.4,0.1-0.4,0.2c0,0.1,0.1,0.2,0.2,0.2c0.1,0,0.2-0.1,0.2-0.2c0,0,0-0.1,0-0.1
			C118.1,45.6,118.1,45.4,118.1,45.4z"/>
		<path class="st3" d="M118.9,45.1c0-0.2,0-0.4,0-0.5h0.4l0,0.2h0c0.1-0.2,0.3-0.2,0.5-0.2c0.3,0,0.6,0.3,0.6,0.8
			c0,0.6-0.4,0.8-0.7,0.8c-0.2,0-0.3-0.1-0.4-0.2h0v0.8h-0.5L118.9,45.1L118.9,45.1z M119.4,45.5c0,0,0,0.1,0,0.1
			c0,0.1,0.1,0.2,0.3,0.2c0.2,0,0.3-0.2,0.3-0.4c0-0.2-0.1-0.4-0.3-0.4c-0.1,0-0.3,0.1-0.3,0.2c0,0,0,0.1,0,0.1V45.5z"/>
	</g>
</g>
<g>
	<g>
		<path class="st3" d="M48.9,32.7c0-0.4-0.2-0.9-1.3-0.9c-0.4,0-1.6,0-1.6,0l-0.5,2.1c0,0,0.9,0,1.7,0
			C48.5,33.9,48.9,33.3,48.9,32.7L48.9,32.7z"/>
		<path class="st3" d="M53.2,32.7c0-0.4-0.2-0.9-1.3-0.9c-0.4,0-1.6,0-1.6,0l-0.5,2.1c0,0,0.9,0,1.7,0
			C52.8,33.9,53.2,33.3,53.2,32.7L53.2,32.7z"/>
		<path class="st3" d="M48.3,35.9c0-0.4-0.2-0.9-1.3-0.9c-0.4,0-1.6,0-1.6,0l-0.5,2.1c0,0,0.9,0,1.7,0
			C47.9,37.1,48.3,36.5,48.3,35.9L48.3,35.9z"/>
		<path class="st3" d="M52.6,35.9c0-0.4-0.2-0.9-1.3-0.9c-0.4,0-1.6,0-1.6,0l-0.5,2.1c0,0,0.9,0,1.7,0
			C52.2,37.1,52.6,36.5,52.6,35.9L52.6,35.9z"/>
		<path class="st3" d="M57.1,34.6c0-0.4-0.2-0.9-1.3-0.9c-0.4,0-1.6,0-1.6,0l-0.5,2.1c0,0,0.9,0,1.7,0
			C56.8,35.8,57.1,35.2,57.1,34.6L57.1,34.6z"/>
		<path class="st3" d="M56.5,37.9c0-0.4-0.2-0.9-1.3-0.9c-0.4,0-1.6,0-1.6,0l-0.5,2.1c0,0,0.9,0,1.7,0
			C56.2,39.1,56.5,38.5,56.5,37.9L56.5,37.9z"/>
		<path class="st3" d="M52,39.2c0-0.4-0.2-0.9-1.3-0.9c-0.4,0-1.6,0-1.6,0l-0.5,2.1c0,0,0.9,0,1.7,0C51.6,40.4,52,39.8,52,39.2
			L52,39.2z"/>
	</g>
	<path class="st3" d="M48.2,44.6c0,0-0.1,0.2-0.4,0.2c-0.3,0-0.4-0.3-0.4-0.4c0-0.3,0.2-0.6,0.5-0.6c0.3,0,0.4,0.2,0.4,0.3h0.5
		c0-0.2-0.1-0.7-0.9-0.7c-0.6,0-1,0.5-1,1.1c0,0.5,0.3,0.9,0.9,0.9c0.7,0,0.9-0.6,0.9-0.7H48.2L48.2,44.6z"/>
	<path class="st3" d="M44.5,44.7c0,0,0-0.1,0-0.2c0-0.1,0.4-1.7,0.4-1.7h-0.5L44,44.6c0,0.1,0,0.1,0,0.2c0,0.4,0.3,0.5,0.5,0.5
		c0.1,0,0.2,0,0.2,0c0,0,0.1-0.4,0.1-0.4c0,0-0.1,0-0.1,0C44.5,44.9,44.5,44.8,44.5,44.7L44.5,44.7z"/>
	<polygon class="st3" points="51,43.4 50.4,43.4 49.6,44.1 49.8,42.8 49.4,42.8 48.8,45.3 49.3,45.3 49.4,44.7 49.7,44.4 50.1,45.3 
		50.6,45.3 50.1,44.2 	"/>
	<path class="st3" d="M41.9,44.4c0.1-0.2,0.5-1.7,0.5-1.7s0.6,0,0.9,0.1c0.6,0,0.8,0.4,0.8,0.6c0,0.5-0.5,0.6-0.5,0.6
		c0,0,0.3,0.2,0.3,0.5c0,0.4-0.4,0.7-1,0.7c0,0-0.2,0-0.3,0C42,45.2,41.8,44.8,41.9,44.4L41.9,44.4L41.9,44.4z M43.3,44.5
		c0-0.1-0.1-0.3-0.4-0.3l-0.4,0l-0.2,0.6l0.5,0C43.1,44.8,43.3,44.7,43.3,44.5L43.3,44.5L43.3,44.5z M43.5,43.5
		c0-0.1-0.1-0.2-0.3-0.2l-0.5,0l-0.1,0.5l0.5,0C43.4,43.8,43.5,43.7,43.5,43.5L43.5,43.5z"/>
	<path class="st3" d="M50.8,44.5c0-0.2,0.4-1.7,0.4-1.7s0.6,0,0.9,0c0.6,0,0.8,0.4,0.8,0.6c0,0.5-0.4,0.6-0.5,0.6
		c0.1,0,0.3,0.1,0.3,0.5c0,0.4-0.4,0.7-1,0.7c0,0-0.2,0-0.3,0C51,45.3,50.7,44.9,50.8,44.5L50.8,44.5L50.8,44.5z M52.2,44.5
		c0-0.1-0.1-0.3-0.4-0.3h-0.4l-0.1,0.6h0.5C52,44.8,52.2,44.7,52.2,44.5L52.2,44.5L52.2,44.5z M52.3,43.5c0-0.1-0.1-0.2-0.3-0.2
		h-0.5l-0.1,0.5h0.5C52.2,43.8,52.3,43.6,52.3,43.5L52.3,43.5z"/>
	<path class="st3" d="M56,43.4c-0.5,0-0.8,0.3-0.9,0.8c0,0.2-0.2,1.1-0.2,1.1h0.5c0,0,0.2-0.8,0.2-1c0.1-0.3,0.2-0.4,0.5-0.4
		c0.1,0,0.1,0,0.1,0c0-0.1,0.1-0.4,0.1-0.4C56.2,43.4,56.1,43.4,56,43.4L56,43.4z"/>
	<path class="st3" d="M57.6,46l1.5-2.6h-0.5l-0.7,1.2l-0.2-1.2c0,0-0.3,0-0.5,0c-0.6,0-0.9,0.3-1,0.8c-0.1,0.3-0.2,1.1-0.2,1.1h0.5
		c0,0,0.2-0.8,0.2-1.1c0.1-0.3,0.3-0.4,0.5-0.3l0.1-0.4c0.1,0.4,0.3,1.8,0.3,1.8L57.1,46H57.6L57.6,46z"/>
	<path class="st3" d="M45.8,44.5c0.1,0,0.4-0.1,0.4-0.1c0,0,0,0.1,0,0.1c-0.1,0.2-0.3,0.4-0.5,0.4c-0.2,0-0.3-0.1-0.3-0.2
		C45.4,44.6,45.5,44.5,45.8,44.5L45.8,44.5L45.8,44.5z M45.6,44c0,0,0.1-0.2,0.4-0.2c0.2,0,0.3,0.1,0.3,0.1c0,0.1-0.2,0.1-0.5,0.2
		c-0.5,0.1-0.9,0.2-0.9,0.6c0,0.3,0.2,0.6,0.6,0.6c0.3,0,0.5-0.2,0.5-0.2c0,0,0,0.1,0,0.2c0,0,0.4,0,0.5,0c0-0.1-0.1-0.2,0-0.5
		c0-0.1,0.1-0.5,0.2-0.7c0.1-0.4-0.1-0.7-0.7-0.7c-0.7,0-0.9,0.5-1,0.6L45.6,44L45.6,44z"/>
	<path class="st3" d="M54.2,44.7c0,0-0.1,0.2-0.4,0.2c-0.4,0-0.4-0.3-0.4-0.4c0.2,0,1.3,0,1.4,0c0,0,0-0.2,0-0.3
		c0-0.4-0.3-0.8-0.9-0.8c-0.6,0-1,0.5-1,1c0,0.5,0.3,0.9,0.9,0.9c0.7,0,0.9-0.6,0.9-0.6C54.6,44.7,54.2,44.7,54.2,44.7L54.2,44.7
		L54.2,44.7z M53.9,43.8c0.3,0,0.4,0.2,0.4,0.3c-0.2,0-0.7,0-0.9,0C53.5,44,53.6,43.8,53.9,43.8L53.9,43.8z"/>
</g>
<g>
	<text transform="matrix(1 0 0 1 28.0632 46.0762)" class="st3 st4 st5">Windows</text>
	<g>
		<path class="st3" d="M28.9,32.1l0-3.4l4.1-0.6v3.9L28.9,32.1L28.9,32.1z M33.7,28.1l5.5-0.8v4.8h-5.5V28.1z M39.2,32.8l0,4.8
			l-5.5-0.8v-4L39.2,32.8L39.2,32.8z M33,36.7l-4.1-0.6l0-3.4H33V36.7L33,36.7z"/>
	</g>
</g>
<g>
	<path class="st22" d="M99.2,10.4c-0.2-0.7-0.5-1.4-0.9-1.9l-3.6,5.1L99.2,10.4z"/>
	<path class="st23" d="M89.3,6.5c-2,1.2-3.3,3.3-3.3,5.8c0,2.7,1.5,4.9,3.8,6l5-4.8L89.3,6.5z"/>
	<path class="st24" d="M98.2,8.4C97,6.7,95,5.5,92.7,5.5c-1.2,0-2.3,0.3-3.2,0.8c-0.1,0-0.1,0.1-0.2,0.1l5.4,7L98.2,8.4z"/>
	<path class="st25" d="M94.7,13.5l2.2,4c1.5-1.2,2.5-3.1,2.5-5.3c0-0.7-0.1-1.3-0.3-1.9L94.7,13.5z"/>
	<path class="st26" d="M89.7,18.3c0.9,0.5,1.9,0.7,3,0.7c1.6,0,3.1-0.6,4.2-1.5l-2.2-4L89.7,18.3z"/>
</g>
<g>
	<path class="st22" d="M15.5,10.7c-0.1-0.3-0.2-0.5-0.4-0.8l-1.4,2L15.5,10.7z"/>
	<path class="st23" d="M11.7,9.2c-0.8,0.5-1.3,1.3-1.3,2.3c0,1,0.6,1.9,1.5,2.4l2-1.9L11.7,9.2z"/>
	<path class="st24" d="M15.2,10c-0.5-0.7-1.3-1.1-2.2-1.1c-0.5,0-0.9,0.1-1.3,0.3c0,0-0.1,0-0.1,0l2.1,2.8L15.2,10z"/>
	<path class="st25" d="M13.8,12l0.9,1.6c0.6-0.5,1-1.2,1-2.1c0-0.3,0-0.5-0.1-0.8L13.8,12z"/>
	<path class="st26" d="M11.8,13.9c0.4,0.2,0.8,0.3,1.2,0.3c0.6,0,1.2-0.2,1.7-0.6L13.8,12L11.8,13.9z"/>
</g>
</svg>
